{"glyphs":{"0":{"ha":719,"x_min":75,"x_max":644,"o":"m 360 -12 q 152 103 229 -12 q 75 514 75 219 q 152 924 75 808 q 360 1040 228 1040 q 568 924 491 1040 q 644 514 644 808 q 567 103 644 219 q 360 -12 490 -12 m 360 33 q 530 134 466 33 q 594 511 594 235 q 530 893 594 792 q 360 994 466 994 q 189 894 253 994 q 125 517 125 793 q 189 135 125 236 q 360 33 253 33 z "},"1":{"ha":383,"x_min":14,"x_max":263,"o":"m 215 0 l 215 968 l 236 979 l 14 807 l 14 858 l 236 1031 l 263 1031 l 263 0 l 215 0 z "},"2":{"ha":558,"x_min":25,"x_max":517,"o":"m 36 0 l 36 28 l 301 461 q 394 642 366 567 q 422 790 422 718 q 367 950 422 905 q 210 994 311 994 q 115 985 160 994 q 25 956 69 975 l 25 1003 q 111 1031 60 1021 q 210 1040 162 1040 q 402 982 331 1040 q 471 790 473 924 q 441 632 469 713 q 339 433 412 552 l 88 28 l 75 44 l 517 44 l 517 0 l 36 0 z "},"3":{"ha":596,"x_min":35,"x_max":543,"o":"m 243 -12 q 135 -3 187 -12 q 35 25 83 6 l 35 72 q 139 43 86 53 q 242 33 192 33 q 426 91 357 33 q 494 264 494 149 q 428 440 494 374 q 219 506 361 506 l 147 506 l 147 551 l 171 551 q 388 617 314 551 q 463 792 463 682 q 407 944 463 894 q 242 994 351 994 q 143 985 189 994 q 53 956 97 975 l 53 1003 q 139 1031 88 1021 q 240 1040 190 1040 q 442 976 372 1040 q 511 790 511 911 q 452 620 511 692 q 283 526 394 549 l 285 542 q 477 451 412 523 q 543 265 543 380 q 463 59 543 131 q 243 -12 382 -12 z "},"4":{"ha":690,"x_min":35,"x_max":661,"o":"m 35 267 l 35 294 l 399 1028 l 450 1028 l 85 293 l 75 311 l 661 311 l 661 267 l 35 267 m 475 0 l 475 311 l 485 681 l 522 681 l 522 0 l 475 0 z "},"5":{"ha":596,"x_min":51,"x_max":560,"o":"m 261 -12 q 151 -3 204 -12 q 51 25 97 6 l 51 72 q 155 43 101 53 q 261 33 208 33 q 448 94 384 33 q 511 275 511 156 q 436 457 511 398 q 201 526 362 517 l 86 533 l 118 1028 l 517 1028 l 517 983 l 142 983 l 164 1003 l 133 546 l 97 579 l 213 572 q 472 489 385 562 q 560 276 560 417 q 483 62 560 136 q 261 -12 406 -12 z "},"6":{"ha":661,"x_min":86,"x_max":626,"o":"m 375 -12 q 169 91 253 -12 q 86 479 86 194 q 178 914 86 788 q 439 1040 269 1040 q 515 1034 476 1040 q 585 1013 553 1027 l 585 965 q 515 987 553 980 q 436 994 476 994 q 213 883 292 994 q 135 489 135 772 l 135 481 q 167 206 135 303 q 253 71 199 109 q 376 33 308 33 q 518 90 458 33 q 578 281 578 147 q 513 472 578 415 q 354 529 447 529 q 220 499 288 529 q 115 397 153 469 l 115 461 q 215 544 150 514 q 357 575 280 575 q 547 503 468 575 q 626 283 626 432 q 552 59 626 131 q 375 -12 478 -12 z "},"7":{"ha":544,"x_min":6,"x_max":506,"o":"m 110 0 l 458 1001 l 465 983 l 6 983 l 6 1028 l 506 1028 l 506 1000 l 158 0 l 110 0 z "},"8":{"ha":719,"x_min":63,"x_max":657,"o":"m 368 -12 q 142 58 222 -12 q 63 254 63 128 q 118 431 63 354 q 268 542 174 508 l 314 519 q 167 422 221 490 q 113 254 113 353 q 176 91 113 149 q 368 33 239 33 q 543 89 479 33 q 607 244 607 144 q 556 397 607 344 q 369 493 505 450 q 157 608 221 540 q 93 786 93 676 q 165 971 93 901 q 357 1040 236 1040 q 553 971 481 1040 q 626 783 626 901 q 578 620 626 690 q 442 510 529 550 l 393 529 q 535 632 490 574 q 579 783 579 690 q 520 940 579 885 q 357 994 461 994 q 199 939 254 994 q 143 788 143 883 q 192 639 143 694 q 376 540 241 583 q 594 426 531 492 q 657 249 657 360 q 579 59 657 131 q 368 -12 501 -12 z "},"9":{"ha":661,"x_min":35,"x_max":575,"o":"m 286 1040 q 492 937 408 1040 q 575 549 575 834 q 483 114 575 240 q 222 -12 392 -12 q 147 -6 185 -12 q 76 15 108 1 l 76 63 q 147 41 108 48 q 225 33 185 33 q 448 144 369 33 q 526 539 526 256 l 526 547 q 494 822 526 725 q 408 957 463 919 q 285 994 353 994 q 143 938 203 994 q 83 747 83 881 q 149 556 83 613 q 307 499 214 499 q 441 528 374 499 q 546 631 508 558 l 546 567 q 446 483 511 514 q 304 453 381 453 q 114 524 193 453 q 35 744 35 596 q 109 968 35 897 q 286 1040 183 1040 z "},"A":{"ha":785,"x_min":18,"x_max":767,"o":"m 18 0 l 363 1028 l 422 1028 l 767 0 l 715 0 l 383 1000 l 400 1000 l 68 0 l 18 0 m 171 367 l 185 413 l 600 413 l 614 367 l 171 367 z "},"Á":{"ha":785,"x_min":18,"x_max":767,"o":"m 18 0 l 363 1028 l 422 1028 l 767 0 l 715 0 l 383 1000 l 400 1000 l 68 0 l 18 0 m 171 367 l 185 413 l 600 413 l 614 367 l 171 367 m 374 1122 l 463 1311 l 513 1311 l 413 1122 l 374 1122 z "},"Ă":{"ha":785,"x_min":18,"x_max":767,"o":"m 18 0 l 363 1028 l 422 1028 l 767 0 l 715 0 l 383 1000 l 400 1000 l 68 0 l 18 0 m 171 367 l 185 413 l 600 413 l 614 367 l 171 367 m 394 1131 q 274 1171 318 1131 q 225 1292 231 1211 l 264 1292 q 301 1199 271 1227 q 394 1171 332 1171 q 487 1199 457 1171 q 522 1292 517 1227 l 561 1292 q 513 1170 556 1210 q 394 1131 471 1131 z "},"Ắ":{"ha":785,"x_min":18,"x_max":767,"o":"m 18 0 l 363 1028 l 422 1028 l 767 0 l 715 0 l 383 1000 l 400 1000 l 68 0 l 18 0 m 171 367 l 185 413 l 600 413 l 614 367 l 171 367 m 393 1131 q 273 1170 316 1131 q 225 1292 231 1210 l 264 1292 q 299 1199 269 1227 q 393 1171 329 1171 q 486 1199 457 1171 q 522 1292 515 1227 l 561 1292 q 512 1171 556 1211 q 393 1131 468 1131 m 374 1283 l 463 1458 l 513 1458 l 413 1283 l 374 1283 z "},"Ặ":{"ha":785,"x_min":18,"x_max":767,"o":"m 18 0 l 363 1028 l 422 1028 l 767 0 l 715 0 l 383 1000 l 400 1000 l 68 0 l 18 0 m 171 367 l 185 413 l 600 413 l 614 367 l 171 367 m 393 -215 q 362 -203 374 -215 q 350 -172 350 -192 q 362 -140 350 -153 q 393 -128 374 -128 q 424 -140 412 -128 q 436 -172 436 -153 q 424 -203 436 -192 q 393 -215 412 -215 m 394 1131 q 274 1171 318 1131 q 225 1292 231 1211 l 264 1292 q 301 1199 271 1227 q 394 1171 332 1171 q 487 1199 457 1171 q 522 1292 517 1227 l 561 1292 q 513 1170 556 1210 q 394 1131 471 1131 z "},"Ằ":{"ha":785,"x_min":18,"x_max":767,"o":"m 18 0 l 363 1028 l 422 1028 l 767 0 l 715 0 l 383 1000 l 400 1000 l 68 0 l 18 0 m 171 367 l 185 413 l 600 413 l 614 367 l 171 367 m 393 1131 q 273 1170 316 1131 q 225 1292 231 1210 l 264 1292 q 299 1199 269 1227 q 393 1171 329 1171 q 486 1199 457 1171 q 522 1292 515 1227 l 561 1292 q 512 1171 556 1211 q 393 1131 468 1131 m 374 1283 l 274 1458 l 324 1458 l 413 1283 l 374 1283 z "},"Ẳ":{"ha":785,"x_min":18,"x_max":767,"o":"m 18 0 l 363 1028 l 422 1028 l 767 0 l 715 0 l 383 1000 l 400 1000 l 68 0 l 18 0 m 171 367 l 185 413 l 600 413 l 614 367 l 171 367 m 392 1131 q 273 1170 315 1131 q 225 1292 231 1210 l 264 1292 q 299 1199 269 1227 q 392 1171 329 1171 q 485 1199 454 1171 q 522 1292 515 1227 l 561 1292 q 512 1171 556 1211 q 392 1131 468 1131 m 372 1283 q 400 1337 374 1322 q 452 1363 426 1352 q 478 1399 478 1373 q 463 1424 478 1414 q 400 1435 447 1435 q 339 1428 371 1435 q 276 1408 307 1422 l 276 1447 q 333 1465 300 1458 q 400 1472 367 1472 q 490 1451 460 1472 q 519 1400 519 1431 q 494 1348 519 1363 q 443 1322 469 1333 q 414 1283 417 1310 l 372 1283 z "},"Ẵ":{"ha":785,"x_min":18,"x_max":767,"o":"m 18 0 l 363 1028 l 422 1028 l 767 0 l 715 0 l 383 1000 l 400 1000 l 68 0 l 18 0 m 171 367 l 185 413 l 600 413 l 614 367 l 171 367 m 392 1131 q 273 1170 315 1131 q 225 1292 231 1210 l 264 1292 q 299 1199 269 1227 q 392 1171 329 1171 q 485 1199 454 1171 q 522 1292 515 1227 l 561 1292 q 512 1171 556 1211 q 392 1131 468 1131 m 472 1343 q 389 1370 428 1343 q 314 1397 350 1397 q 265 1385 287 1397 q 225 1347 244 1372 l 225 1393 q 263 1424 240 1413 q 314 1436 286 1436 q 397 1409 358 1436 q 472 1382 436 1382 q 521 1394 499 1382 q 561 1432 542 1407 l 561 1386 q 523 1355 546 1367 q 472 1343 500 1343 z "},"Â":{"ha":785,"x_min":18,"x_max":767,"o":"m 18 0 l 363 1028 l 422 1028 l 767 0 l 715 0 l 383 1000 l 400 1000 l 68 0 l 18 0 m 171 367 l 185 413 l 600 413 l 614 367 l 171 367 m 231 1122 l 367 1311 l 419 1311 l 556 1122 l 507 1122 l 388 1290 l 399 1290 l 279 1122 l 231 1122 z "},"Ấ":{"ha":785,"x_min":18,"x_max":767,"o":"m 18 0 l 363 1028 l 422 1028 l 767 0 l 715 0 l 383 1000 l 400 1000 l 68 0 l 18 0 m 171 367 l 185 413 l 600 413 l 614 367 l 171 367 m 231 1122 l 367 1311 l 419 1311 l 556 1122 l 507 1122 l 388 1290 l 399 1290 l 279 1122 l 231 1122 m 517 1244 l 606 1433 l 656 1433 l 556 1244 l 517 1244 z "},"Ậ":{"ha":785,"x_min":18,"x_max":767,"o":"m 18 0 l 363 1028 l 422 1028 l 767 0 l 715 0 l 383 1000 l 400 1000 l 68 0 l 18 0 m 171 367 l 185 413 l 600 413 l 614 367 l 171 367 m 393 -215 q 362 -203 374 -215 q 350 -172 350 -192 q 362 -140 350 -153 q 393 -128 374 -128 q 424 -140 412 -128 q 436 -172 436 -153 q 424 -203 436 -192 q 393 -215 412 -215 m 231 1122 l 367 1311 l 419 1311 l 556 1122 l 507 1122 l 388 1290 l 399 1290 l 279 1122 l 231 1122 z "},"Ầ":{"ha":785,"x_min":18,"x_max":767,"o":"m 18 0 l 363 1028 l 422 1028 l 767 0 l 715 0 l 383 1000 l 400 1000 l 68 0 l 18 0 m 171 367 l 185 413 l 600 413 l 614 367 l 171 367 m 231 1122 l 367 1311 l 419 1311 l 556 1122 l 507 1122 l 388 1290 l 399 1290 l 279 1122 l 231 1122 m 531 1244 l 431 1433 l 481 1433 l 569 1244 l 531 1244 z "},"Ẩ":{"ha":785,"x_min":18,"x_max":767,"o":"m 18 0 l 363 1028 l 422 1028 l 767 0 l 715 0 l 383 1000 l 400 1000 l 68 0 l 18 0 m 171 367 l 185 413 l 600 413 l 614 367 l 171 367 m 231 1122 l 367 1311 l 419 1311 l 556 1122 l 507 1122 l 388 1290 l 399 1290 l 279 1122 l 231 1122 m 515 1244 q 543 1298 517 1283 q 595 1324 569 1313 q 621 1360 621 1334 q 606 1385 621 1375 q 543 1396 590 1396 q 482 1390 514 1396 q 419 1369 450 1383 l 419 1408 q 476 1426 443 1419 q 543 1433 510 1433 q 633 1413 603 1433 q 663 1361 663 1392 q 637 1309 663 1324 q 586 1283 612 1294 q 557 1244 560 1272 l 515 1244 z "},"Ẫ":{"ha":785,"x_min":18,"x_max":767,"o":"m 18 0 l 363 1028 l 422 1028 l 767 0 l 715 0 l 383 1000 l 400 1000 l 68 0 l 18 0 m 171 367 l 185 413 l 600 413 l 614 367 l 171 367 m 231 1122 l 367 1311 l 419 1311 l 556 1122 l 507 1122 l 388 1290 l 399 1290 l 279 1122 l 231 1122 m 469 1343 q 389 1370 426 1343 q 317 1397 351 1397 q 270 1385 290 1397 q 231 1347 249 1372 l 231 1393 q 267 1424 245 1413 q 317 1436 290 1436 q 398 1409 360 1436 q 469 1382 435 1382 q 516 1394 496 1382 q 556 1432 537 1407 l 556 1386 q 519 1355 541 1367 q 469 1343 497 1343 z "},"Ȁ":{"ha":785,"x_min":18,"x_max":767,"o":"m 18 0 l 363 1028 l 422 1028 l 767 0 l 715 0 l 383 1000 l 400 1000 l 68 0 l 18 0 m 171 367 l 185 413 l 600 413 l 614 367 l 171 367 m 463 1122 l 396 1311 l 440 1311 l 500 1122 l 463 1122 m 286 1122 l 219 1311 l 264 1311 l 324 1122 l 286 1122 z "},"Ä":{"ha":785,"x_min":18,"x_max":767,"o":"m 18 0 l 363 1028 l 422 1028 l 767 0 l 715 0 l 383 1000 l 400 1000 l 68 0 l 18 0 m 171 367 l 185 413 l 600 413 l 614 367 l 171 367 m 518 1174 q 475 1217 475 1174 q 518 1261 475 1261 q 561 1217 561 1261 q 518 1174 561 1174 m 268 1174 q 225 1217 225 1174 q 268 1261 225 1261 q 311 1217 311 1261 q 268 1174 311 1174 z "},"Ạ":{"ha":785,"x_min":18,"x_max":767,"o":"m 18 0 l 363 1028 l 422 1028 l 767 0 l 715 0 l 383 1000 l 400 1000 l 68 0 l 18 0 m 171 367 l 185 413 l 600 413 l 614 367 l 171 367 m 393 -215 q 362 -203 374 -215 q 350 -172 350 -192 q 362 -140 350 -153 q 393 -128 374 -128 q 424 -140 412 -128 q 436 -172 436 -153 q 424 -203 436 -192 q 393 -215 412 -215 z "},"À":{"ha":785,"x_min":18,"x_max":767,"o":"m 18 0 l 363 1028 l 422 1028 l 767 0 l 715 0 l 383 1000 l 400 1000 l 68 0 l 18 0 m 171 367 l 185 413 l 600 413 l 614 367 l 171 367 m 374 1122 l 274 1311 l 324 1311 l 413 1122 l 374 1122 z "},"Ả":{"ha":785,"x_min":18,"x_max":767,"o":"m 18 0 l 363 1028 l 422 1028 l 767 0 l 715 0 l 383 1000 l 400 1000 l 68 0 l 18 0 m 171 367 l 185 413 l 600 413 l 614 367 l 171 367 m 372 1122 q 400 1176 374 1161 q 452 1201 426 1191 q 478 1238 478 1212 q 463 1263 478 1253 q 400 1274 447 1274 q 339 1267 371 1274 q 276 1247 307 1261 l 276 1286 q 333 1304 300 1297 q 400 1311 367 1311 q 490 1290 460 1311 q 519 1239 519 1269 q 494 1187 519 1201 q 443 1161 469 1172 q 414 1122 417 1149 l 372 1122 z "},"Ȃ":{"ha":785,"x_min":18,"x_max":767,"o":"m 18 0 l 363 1028 l 422 1028 l 767 0 l 715 0 l 383 1000 l 400 1000 l 68 0 l 18 0 m 171 367 l 185 413 l 600 413 l 614 367 l 171 367 m 225 1142 q 273 1263 231 1223 q 392 1303 315 1303 q 512 1263 468 1303 q 561 1142 556 1222 l 522 1142 q 485 1234 515 1206 q 392 1263 454 1263 q 299 1234 329 1263 q 264 1142 269 1206 l 225 1142 z "},"Ā":{"ha":785,"x_min":18,"x_max":767,"o":"m 18 0 l 363 1028 l 422 1028 l 767 0 l 715 0 l 383 1000 l 400 1000 l 68 0 l 18 0 m 171 367 l 185 413 l 600 413 l 614 367 l 171 367 m 226 1197 l 226 1238 l 560 1238 l 560 1197 l 226 1197 z "},"Ą":{"ha":785,"x_min":18,"x_max":844,"o":"m 18 0 l 363 1028 l 422 1028 l 767 0 l 715 0 l 383 1000 l 400 1000 l 68 0 l 18 0 m 171 367 l 185 413 l 600 413 l 614 367 l 171 367 m 743 -278 q 642 -248 678 -278 q 606 -161 606 -218 q 640 -60 606 -107 q 747 32 674 -14 l 767 0 q 672 -79 699 -42 q 644 -158 644 -117 q 742 -242 644 -242 q 788 -235 764 -242 q 844 -214 813 -229 l 844 -251 q 793 -272 818 -265 q 743 -278 768 -278 z "},"Å":{"ha":785,"x_min":18,"x_max":767,"o":"m 18 0 l 363 1028 l 422 1028 l 767 0 l 715 0 l 383 1000 l 400 1000 l 68 0 l 18 0 m 171 367 l 185 413 l 600 413 l 614 367 l 171 367 m 396 993 q 304 1029 340 993 q 268 1121 268 1065 q 304 1213 268 1176 q 396 1249 340 1249 q 488 1213 451 1249 q 524 1121 524 1176 q 488 1029 524 1065 q 396 993 451 993 m 396 1029 q 486 1121 486 1029 q 396 1213 486 1213 q 306 1121 306 1213 q 396 1029 306 1029 z "},"Ǻ":{"ha":785,"x_min":18,"x_max":767,"o":"m 18 0 l 363 1028 l 422 1028 l 767 0 l 715 0 l 383 1000 l 400 1000 l 68 0 l 18 0 m 171 367 l 185 413 l 600 413 l 614 367 l 171 367 m 396 994 q 304 1031 340 994 q 268 1122 268 1067 q 304 1214 268 1178 q 396 1250 340 1250 q 488 1214 451 1250 q 524 1122 524 1178 q 488 1031 524 1067 q 396 994 451 994 m 396 1031 q 486 1122 486 1031 q 396 1214 486 1214 q 306 1122 306 1214 q 396 1031 306 1031 m 490 1200 l 457 1219 l 564 1325 l 619 1325 l 490 1200 z "},"Ã":{"ha":785,"x_min":18,"x_max":767,"o":"m 18 0 l 363 1028 l 422 1028 l 767 0 l 715 0 l 383 1000 l 400 1000 l 68 0 l 18 0 m 171 367 l 185 413 l 600 413 l 614 367 l 171 367 m 482 1178 q 389 1205 430 1178 q 304 1232 347 1232 q 253 1219 275 1232 q 211 1182 231 1207 l 211 1228 q 304 1271 245 1271 q 398 1244 356 1271 q 482 1217 439 1217 q 533 1229 511 1217 q 575 1267 556 1242 l 575 1221 q 482 1178 541 1178 z "},"Æ":{"ha":1074,"x_min":18,"x_max":1050,"o":"m 18 0 l 371 1028 l 554 1028 l 554 982 l 403 982 l 68 0 l 18 0 m 172 367 l 186 413 l 572 413 l 572 367 l 172 367 m 568 0 l 524 1028 l 1043 1028 l 1043 982 l 572 982 l 614 46 l 1050 46 l 1050 0 l 568 0 m 581 506 l 581 551 l 981 551 l 981 506 l 581 506 z "},"Ǽ":{"ha":1074,"x_min":18,"x_max":1050,"o":"m 18 0 l 371 1028 l 554 1028 l 554 982 l 403 982 l 68 0 l 18 0 m 172 367 l 186 413 l 572 413 l 572 367 l 172 367 m 568 0 l 524 1028 l 1043 1028 l 1043 982 l 572 982 l 614 46 l 1050 46 l 1050 0 l 568 0 m 581 506 l 581 551 l 981 551 l 981 506 l 581 506 m 529 1122 l 618 1311 l 668 1311 l 568 1122 l 529 1122 z "},"B":{"ha":757,"x_min":114,"x_max":704,"o":"m 311 -7 q 211 -5 260 -7 q 114 3 163 -3 l 114 1018 q 211 1032 158 1026 q 331 1038 264 1038 q 593 973 512 1038 q 675 774 675 909 q 630 616 675 688 q 461 526 584 544 l 461 536 q 646 450 588 522 q 704 271 704 378 q 613 63 704 133 q 311 -7 521 -7 m 313 39 q 578 94 500 39 q 656 268 656 150 q 586 446 656 386 q 365 506 517 506 l 150 506 l 150 551 l 338 551 q 565 610 504 551 q 626 774 626 668 q 559 941 626 890 q 328 992 492 992 q 237 989 276 992 q 161 979 197 985 l 161 46 q 236 40 197 42 q 313 39 275 39 z "},"C":{"ha":646,"x_min":68,"x_max":633,"o":"m 440 -12 q 169 101 269 -12 q 68 513 68 214 q 168 924 68 807 q 450 1040 269 1040 q 542 1033 494 1040 q 633 1013 589 1026 l 633 965 q 536 989 581 983 q 444 994 492 994 q 203 892 288 994 q 118 515 118 790 q 204 133 118 233 q 439 33 290 33 q 535 42 489 33 q 633 69 581 51 l 633 22 q 544 -2 593 8 q 440 -12 496 -12 z "},"Ć":{"ha":646,"x_min":68,"x_max":633,"o":"m 440 -12 q 169 101 269 -12 q 68 513 68 214 q 168 924 68 807 q 450 1040 269 1040 q 542 1033 494 1040 q 633 1013 589 1026 l 633 965 q 536 989 581 983 q 444 994 492 994 q 203 892 288 994 q 118 515 118 790 q 204 133 118 233 q 439 33 290 33 q 535 42 489 33 q 633 69 581 51 l 633 22 q 544 -2 593 8 q 440 -12 496 -12 m 389 1122 l 478 1311 l 528 1311 l 428 1122 l 389 1122 z "},"Č":{"ha":646,"x_min":68,"x_max":633,"o":"m 440 -12 q 169 101 269 -12 q 68 513 68 214 q 168 924 68 807 q 450 1040 269 1040 q 542 1033 494 1040 q 633 1013 589 1026 l 633 965 q 536 989 581 983 q 444 994 492 994 q 203 892 288 994 q 118 515 118 790 q 204 133 118 233 q 439 33 290 33 q 535 42 489 33 q 633 69 581 51 l 633 22 q 544 -2 593 8 q 440 -12 496 -12 m 382 1122 l 246 1311 l 294 1311 l 414 1143 l 403 1143 l 522 1311 l 571 1311 l 435 1122 l 382 1122 z "},"Ç":{"ha":646,"x_min":68,"x_max":633,"o":"m 440 -12 q 169 101 269 -12 q 68 513 68 214 q 168 924 68 807 q 450 1040 269 1040 q 542 1033 494 1040 q 633 1013 589 1026 l 633 965 q 536 989 581 983 q 444 994 492 994 q 203 892 288 994 q 118 515 118 790 q 204 133 118 233 q 439 33 290 33 q 535 42 489 33 q 633 69 581 51 l 633 22 q 544 -2 593 8 q 440 -12 496 -12 m 424 -278 q 363 -272 394 -278 q 304 -251 332 -265 l 304 -212 q 368 -235 340 -229 q 424 -242 397 -242 q 507 -178 507 -242 q 422 -114 507 -114 l 396 -114 l 396 14 l 435 14 l 435 -99 l 424 -78 q 511 -103 476 -78 q 546 -178 546 -129 q 511 -252 546 -226 q 424 -278 476 -278 z "},"Ḉ":{"ha":646,"x_min":68,"x_max":633,"o":"m 440 -12 q 169 101 269 -12 q 68 513 68 214 q 168 924 68 807 q 450 1040 269 1040 q 542 1033 494 1040 q 633 1013 589 1026 l 633 965 q 536 989 581 983 q 444 994 492 994 q 203 892 288 994 q 118 515 118 790 q 204 133 118 233 q 439 33 290 33 q 535 42 489 33 q 633 69 581 51 l 633 22 q 544 -2 593 8 q 440 -12 496 -12 m 424 -278 q 363 -272 394 -278 q 304 -251 332 -265 l 304 -212 q 368 -235 340 -229 q 424 -242 397 -242 q 507 -178 507 -242 q 422 -114 507 -114 l 396 -114 l 396 14 l 435 14 l 435 -99 l 424 -78 q 511 -103 476 -78 q 546 -178 546 -129 q 511 -252 546 -226 q 424 -278 476 -278 m 389 1122 l 478 1311 l 528 1311 l 428 1122 l 389 1122 z "},"Ĉ":{"ha":646,"x_min":68,"x_max":633,"o":"m 440 -12 q 169 101 269 -12 q 68 513 68 214 q 168 924 68 807 q 450 1040 269 1040 q 542 1033 494 1040 q 633 1013 589 1026 l 633 965 q 536 989 581 983 q 444 994 492 994 q 203 892 288 994 q 118 515 118 790 q 204 133 118 233 q 439 33 290 33 q 535 42 489 33 q 633 69 581 51 l 633 22 q 544 -2 593 8 q 440 -12 496 -12 m 246 1122 l 382 1311 l 435 1311 l 571 1122 l 522 1122 l 403 1290 l 414 1290 l 294 1122 l 246 1122 z "},"Ċ":{"ha":646,"x_min":68,"x_max":633,"o":"m 440 -12 q 169 101 269 -12 q 68 513 68 214 q 168 924 68 807 q 450 1040 269 1040 q 542 1033 494 1040 q 633 1013 589 1026 l 633 965 q 536 989 581 983 q 444 994 492 994 q 203 892 288 994 q 118 515 118 790 q 204 133 118 233 q 439 33 290 33 q 535 42 489 33 q 633 69 581 51 l 633 22 q 544 -2 593 8 q 440 -12 496 -12 m 408 1174 q 377 1185 390 1174 q 365 1217 365 1197 q 377 1249 365 1236 q 408 1261 390 1261 q 439 1249 427 1261 q 451 1217 451 1236 q 439 1185 451 1197 q 408 1174 427 1174 z "},"D":{"ha":803,"x_min":114,"x_max":735,"o":"m 288 -7 q 208 -5 248 -7 q 114 3 168 -3 l 114 1019 q 208 1032 158 1026 q 307 1038 258 1038 q 628 910 521 1038 q 735 514 735 783 q 620 115 735 236 q 288 -7 506 -7 m 289 39 q 586 148 488 39 q 685 514 685 257 q 593 879 685 766 q 304 992 501 992 q 234 989 271 992 q 161 981 197 986 l 161 46 q 226 40 196 42 q 289 39 257 39 z "},"Ǳ":{"ha":1435,"x_min":114,"x_max":1396,"o":"m 288 -7 q 208 -5 248 -7 q 114 3 168 -3 l 114 1019 q 208 1032 158 1026 q 307 1038 258 1038 q 628 910 521 1038 q 735 514 735 783 q 620 115 735 236 q 288 -7 506 -7 m 289 39 q 586 148 488 39 q 685 514 685 257 q 593 879 685 766 q 304 992 501 992 q 234 989 271 992 q 161 981 197 986 l 161 46 q 226 40 196 42 q 289 39 257 39 m 814 0 l 814 28 l 1338 1001 l 1349 983 l 821 983 l 821 1028 l 1389 1028 l 1389 1000 l 865 26 l 854 44 l 1396 44 l 1396 0 l 814 0 z "},"Ǆ":{"ha":1435,"x_min":114,"x_max":1396,"o":"m 288 -7 q 208 -5 248 -7 q 114 3 168 -3 l 114 1019 q 208 1032 158 1026 q 307 1038 258 1038 q 628 910 521 1038 q 735 514 735 783 q 620 115 735 236 q 288 -7 506 -7 m 289 39 q 586 148 488 39 q 685 514 685 257 q 593 879 685 766 q 304 992 501 992 q 234 989 271 992 q 161 981 197 986 l 161 46 q 226 40 196 42 q 289 39 257 39 m 814 0 l 814 28 l 1338 1001 l 1349 983 l 821 983 l 821 1028 l 1389 1028 l 1389 1000 l 865 26 l 854 44 l 1396 44 l 1396 0 l 814 0 m 1079 1122 l 943 1311 l 992 1311 l 1111 1143 l 1100 1143 l 1219 1311 l 1268 1311 l 1132 1122 l 1079 1122 z "},"Ð":{"ha":803,"x_min":-3,"x_max":735,"o":"m 288 -7 q 208 -5 248 -7 q 114 3 168 -3 l 114 1019 q 208 1032 158 1026 q 307 1038 258 1038 q 628 910 521 1038 q 735 514 735 783 q 620 115 735 236 q 288 -7 506 -7 m 289 39 q 586 148 488 39 q 685 514 685 257 q 593 879 685 766 q 304 992 501 992 q 234 989 271 992 q 161 981 197 986 l 161 46 q 226 40 196 42 q 289 39 257 39 m -3 508 l -3 550 l 369 550 l 369 508 l -3 508 z "},"Ď":{"ha":803,"x_min":114,"x_max":735,"o":"m 288 -7 q 208 -5 248 -7 q 114 3 168 -3 l 114 1019 q 208 1032 158 1026 q 307 1038 258 1038 q 628 910 521 1038 q 735 514 735 783 q 620 115 735 236 q 288 -7 506 -7 m 289 39 q 586 148 488 39 q 685 514 685 257 q 593 879 685 766 q 304 992 501 992 q 234 989 271 992 q 161 981 197 986 l 161 46 q 226 40 196 42 q 289 39 257 39 m 332 1122 l 196 1311 l 244 1311 l 364 1143 l 353 1143 l 472 1311 l 521 1311 l 385 1122 l 332 1122 z "},"Đ":{"ha":803,"x_min":-3,"x_max":735,"o":"m 288 -7 q 208 -5 248 -7 q 114 3 168 -3 l 114 1019 q 208 1032 158 1026 q 307 1038 258 1038 q 628 910 521 1038 q 735 514 735 783 q 620 115 735 236 q 288 -7 506 -7 m 289 39 q 586 148 488 39 q 685 514 685 257 q 593 879 685 766 q 304 992 501 992 q 234 989 271 992 q 161 981 197 986 l 161 46 q 226 40 196 42 q 289 39 257 39 m -3 508 l -3 550 l 369 550 l 369 508 l -3 508 z "},"Ḍ":{"ha":803,"x_min":114,"x_max":735,"o":"m 288 -7 q 208 -5 248 -7 q 114 3 168 -3 l 114 1019 q 208 1032 158 1026 q 307 1038 258 1038 q 628 910 521 1038 q 735 514 735 783 q 620 115 735 236 q 288 -7 506 -7 m 289 39 q 586 148 488 39 q 685 514 685 257 q 593 879 685 766 q 304 992 501 992 q 234 989 271 992 q 161 981 197 986 l 161 46 q 226 40 196 42 q 289 39 257 39 m 358 -215 q 327 -203 340 -215 q 315 -172 315 -192 q 327 -140 315 -153 q 358 -128 340 -128 q 389 -140 377 -128 q 401 -172 401 -153 q 389 -203 401 -192 q 358 -215 377 -215 z "},"Ḏ":{"ha":803,"x_min":114,"x_max":735,"o":"m 288 -7 q 208 -5 248 -7 q 114 3 168 -3 l 114 1019 q 208 1032 158 1026 q 307 1038 258 1038 q 628 910 521 1038 q 735 514 735 783 q 620 115 735 236 q 288 -7 506 -7 m 289 39 q 586 148 488 39 q 685 514 685 257 q 593 879 685 766 q 304 992 501 992 q 234 989 271 992 q 161 981 197 986 l 161 46 q 226 40 196 42 q 289 39 257 39 m 192 -192 l 192 -151 l 525 -151 l 525 -192 l 192 -192 z "},"ǲ":{"ha":1318,"x_min":114,"x_max":1283,"o":"m 288 -7 q 208 -5 248 -7 q 114 3 168 -3 l 114 1019 q 208 1032 158 1026 q 307 1038 258 1038 q 628 910 521 1038 q 735 514 735 783 q 620 115 735 236 q 288 -7 506 -7 m 289 39 q 586 148 488 39 q 685 514 685 257 q 593 879 685 766 q 304 992 501 992 q 234 989 271 992 q 161 981 197 986 l 161 46 q 226 40 196 42 q 289 39 257 39 m 840 0 l 840 28 l 1226 724 l 1226 706 l 847 706 l 847 750 l 1276 750 l 1276 722 l 890 26 l 890 44 l 1283 44 l 1283 0 l 840 0 z "},"ǅ":{"ha":1318,"x_min":114,"x_max":1283,"o":"m 288 -7 q 208 -5 248 -7 q 114 3 168 -3 l 114 1019 q 208 1032 158 1026 q 307 1038 258 1038 q 628 910 521 1038 q 735 514 735 783 q 620 115 735 236 q 288 -7 506 -7 m 289 39 q 586 148 488 39 q 685 514 685 257 q 593 879 685 766 q 304 992 501 992 q 234 989 271 992 q 161 981 197 986 l 161 46 q 226 40 196 42 q 289 39 257 39 m 840 0 l 840 28 l 1226 724 l 1226 706 l 847 706 l 847 750 l 1276 750 l 1276 722 l 890 26 l 890 44 l 1283 44 l 1283 0 l 840 0 m 1036 900 l 900 1089 l 949 1089 l 1068 921 l 1057 921 l 1176 1089 l 1225 1089 l 1089 900 l 1036 900 z "},"E":{"ha":657,"x_min":114,"x_max":633,"o":"m 114 0 l 114 1028 l 626 1028 l 626 982 l 161 982 l 161 46 l 633 46 l 633 0 l 114 0 m 156 506 l 156 551 l 564 551 l 564 506 l 156 506 z "},"É":{"ha":657,"x_min":114,"x_max":633,"o":"m 114 0 l 114 1028 l 626 1028 l 626 982 l 161 982 l 161 46 l 633 46 l 633 0 l 114 0 m 156 506 l 156 551 l 564 551 l 564 506 l 156 506 m 367 1122 l 456 1311 l 506 1311 l 406 1122 l 367 1122 z "},"Ĕ":{"ha":657,"x_min":114,"x_max":633,"o":"m 114 0 l 114 1028 l 626 1028 l 626 982 l 161 982 l 161 46 l 633 46 l 633 0 l 114 0 m 156 506 l 156 551 l 564 551 l 564 506 l 156 506 m 388 1131 q 267 1171 311 1131 q 218 1292 224 1211 l 257 1292 q 294 1199 264 1227 q 388 1171 325 1171 q 480 1199 450 1171 q 515 1292 510 1227 l 554 1292 q 506 1170 549 1210 q 388 1131 464 1131 z "},"Ě":{"ha":657,"x_min":114,"x_max":633,"o":"m 114 0 l 114 1028 l 626 1028 l 626 982 l 161 982 l 161 46 l 633 46 l 633 0 l 114 0 m 156 506 l 156 551 l 564 551 l 564 506 l 156 506 m 360 1122 l 224 1311 l 272 1311 l 392 1143 l 381 1143 l 500 1311 l 549 1311 l 413 1122 l 360 1122 z "},"Ḝ":{"ha":657,"x_min":114,"x_max":633,"o":"m 114 0 l 114 1028 l 626 1028 l 626 982 l 161 982 l 161 46 l 633 46 l 633 0 l 114 0 m 156 506 l 156 551 l 564 551 l 564 506 l 156 506 m 394 -278 q 334 -272 365 -278 q 275 -251 303 -265 l 275 -212 q 339 -235 311 -229 q 394 -242 367 -242 q 478 -178 478 -242 q 393 -114 478 -114 l 367 -114 l 367 14 l 406 14 l 406 -99 l 394 -78 q 482 -103 447 -78 q 517 -178 517 -129 q 482 -252 517 -226 q 394 -278 447 -278 m 388 1131 q 267 1171 311 1131 q 218 1292 224 1211 l 257 1292 q 294 1199 264 1227 q 388 1171 325 1171 q 480 1199 450 1171 q 515 1292 510 1227 l 554 1292 q 506 1170 549 1210 q 388 1131 464 1131 z "},"Ê":{"ha":657,"x_min":114,"x_max":633,"o":"m 114 0 l 114 1028 l 626 1028 l 626 982 l 161 982 l 161 46 l 633 46 l 633 0 l 114 0 m 156 506 l 156 551 l 564 551 l 564 506 l 156 506 m 224 1122 l 360 1311 l 413 1311 l 549 1122 l 500 1122 l 381 1290 l 392 1290 l 272 1122 l 224 1122 z "},"Ế":{"ha":657,"x_min":114,"x_max":649,"o":"m 114 0 l 114 1028 l 626 1028 l 626 982 l 161 982 l 161 46 l 633 46 l 633 0 l 114 0 m 156 506 l 156 551 l 564 551 l 564 506 l 156 506 m 224 1122 l 360 1311 l 413 1311 l 549 1122 l 500 1122 l 381 1290 l 392 1290 l 272 1122 l 224 1122 m 510 1244 l 599 1433 l 649 1433 l 549 1244 l 510 1244 z "},"Ệ":{"ha":657,"x_min":114,"x_max":633,"o":"m 114 0 l 114 1028 l 626 1028 l 626 982 l 161 982 l 161 46 l 633 46 l 633 0 l 114 0 m 156 506 l 156 551 l 564 551 l 564 506 l 156 506 m 386 -215 q 355 -203 367 -215 q 343 -172 343 -192 q 355 -140 343 -153 q 386 -128 367 -128 q 417 -140 405 -128 q 429 -172 429 -153 q 417 -203 429 -192 q 386 -215 405 -215 m 224 1122 l 360 1311 l 413 1311 l 549 1122 l 500 1122 l 381 1290 l 392 1290 l 272 1122 l 224 1122 z "},"Ề":{"ha":657,"x_min":114,"x_max":633,"o":"m 114 0 l 114 1028 l 626 1028 l 626 982 l 161 982 l 161 46 l 633 46 l 633 0 l 114 0 m 156 506 l 156 551 l 564 551 l 564 506 l 156 506 m 224 1122 l 360 1311 l 413 1311 l 549 1122 l 500 1122 l 381 1290 l 392 1290 l 272 1122 l 224 1122 m 524 1244 l 424 1433 l 474 1433 l 563 1244 l 524 1244 z "},"Ể":{"ha":657,"x_min":114,"x_max":656,"o":"m 114 0 l 114 1028 l 626 1028 l 626 982 l 161 982 l 161 46 l 633 46 l 633 0 l 114 0 m 156 506 l 156 551 l 564 551 l 564 506 l 156 506 m 224 1122 l 360 1311 l 413 1311 l 549 1122 l 500 1122 l 381 1290 l 392 1290 l 272 1122 l 224 1122 m 508 1244 q 536 1298 510 1283 q 588 1324 563 1313 q 614 1360 614 1334 q 599 1385 614 1375 q 536 1396 583 1396 q 475 1390 507 1396 q 413 1369 443 1383 l 413 1408 q 469 1426 436 1419 q 536 1433 503 1433 q 626 1413 597 1433 q 656 1361 656 1392 q 630 1309 656 1324 q 579 1283 605 1294 q 550 1244 553 1272 l 508 1244 z "},"Ễ":{"ha":657,"x_min":114,"x_max":633,"o":"m 114 0 l 114 1028 l 626 1028 l 626 982 l 161 982 l 161 46 l 633 46 l 633 0 l 114 0 m 156 506 l 156 551 l 564 551 l 564 506 l 156 506 m 224 1122 l 360 1311 l 413 1311 l 549 1122 l 500 1122 l 381 1290 l 392 1290 l 272 1122 l 224 1122 m 463 1343 q 382 1370 419 1343 q 310 1397 344 1397 q 263 1385 283 1397 q 224 1347 242 1372 l 224 1393 q 260 1424 238 1413 q 310 1436 283 1436 q 391 1409 353 1436 q 463 1382 428 1382 q 509 1394 489 1382 q 549 1432 530 1407 l 549 1386 q 512 1355 534 1367 q 463 1343 490 1343 z "},"Ȅ":{"ha":657,"x_min":114,"x_max":633,"o":"m 114 0 l 114 1028 l 626 1028 l 626 982 l 161 982 l 161 46 l 633 46 l 633 0 l 114 0 m 156 506 l 156 551 l 564 551 l 564 506 l 156 506 m 456 1122 l 389 1311 l 433 1311 l 493 1122 l 456 1122 m 279 1122 l 213 1311 l 257 1311 l 317 1122 l 279 1122 z "},"Ë":{"ha":657,"x_min":114,"x_max":633,"o":"m 114 0 l 114 1028 l 626 1028 l 626 982 l 161 982 l 161 46 l 633 46 l 633 0 l 114 0 m 156 506 l 156 551 l 564 551 l 564 506 l 156 506 m 511 1174 q 468 1217 468 1174 q 511 1261 468 1261 q 554 1217 554 1261 q 511 1174 554 1174 m 261 1174 q 218 1217 218 1174 q 261 1261 218 1261 q 304 1217 304 1261 q 261 1174 304 1174 z "},"Ė":{"ha":657,"x_min":114,"x_max":633,"o":"m 114 0 l 114 1028 l 626 1028 l 626 982 l 161 982 l 161 46 l 633 46 l 633 0 l 114 0 m 156 506 l 156 551 l 564 551 l 564 506 l 156 506 m 386 1174 q 355 1185 367 1174 q 343 1217 343 1197 q 355 1249 343 1236 q 386 1261 367 1261 q 417 1249 405 1261 q 429 1217 429 1236 q 417 1185 429 1197 q 386 1174 405 1174 z "},"Ẹ":{"ha":657,"x_min":114,"x_max":633,"o":"m 114 0 l 114 1028 l 626 1028 l 626 982 l 161 982 l 161 46 l 633 46 l 633 0 l 114 0 m 156 506 l 156 551 l 564 551 l 564 506 l 156 506 m 386 -215 q 355 -203 367 -215 q 343 -172 343 -192 q 355 -140 343 -153 q 386 -128 367 -128 q 417 -140 405 -128 q 429 -172 429 -153 q 417 -203 429 -192 q 386 -215 405 -215 z "},"È":{"ha":657,"x_min":114,"x_max":633,"o":"m 114 0 l 114 1028 l 626 1028 l 626 982 l 161 982 l 161 46 l 633 46 l 633 0 l 114 0 m 156 506 l 156 551 l 564 551 l 564 506 l 156 506 m 367 1122 l 267 1311 l 317 1311 l 406 1122 l 367 1122 z "},"Ẻ":{"ha":657,"x_min":114,"x_max":633,"o":"m 114 0 l 114 1028 l 626 1028 l 626 982 l 161 982 l 161 46 l 633 46 l 633 0 l 114 0 m 156 506 l 156 551 l 564 551 l 564 506 l 156 506 m 365 1122 q 393 1176 367 1161 q 445 1201 419 1191 q 471 1238 471 1212 q 456 1263 471 1253 q 393 1274 440 1274 q 332 1267 364 1274 q 269 1247 300 1261 l 269 1286 q 326 1304 293 1297 q 393 1311 360 1311 q 483 1290 453 1311 q 513 1239 513 1269 q 487 1187 513 1201 q 436 1161 462 1172 q 407 1122 410 1149 l 365 1122 z "},"Ȇ":{"ha":657,"x_min":114,"x_max":633,"o":"m 114 0 l 114 1028 l 626 1028 l 626 982 l 161 982 l 161 46 l 633 46 l 633 0 l 114 0 m 156 506 l 156 551 l 564 551 l 564 506 l 156 506 m 218 1142 q 266 1263 224 1223 q 385 1303 308 1303 q 505 1263 461 1303 q 554 1142 549 1222 l 515 1142 q 478 1234 508 1206 q 385 1263 447 1263 q 292 1234 322 1263 q 257 1142 263 1206 l 218 1142 z "},"Ē":{"ha":657,"x_min":114,"x_max":633,"o":"m 114 0 l 114 1028 l 626 1028 l 626 982 l 161 982 l 161 46 l 633 46 l 633 0 l 114 0 m 156 506 l 156 551 l 564 551 l 564 506 l 156 506 m 219 1197 l 219 1238 l 553 1238 l 553 1197 l 219 1197 z "},"Ḗ":{"ha":657,"x_min":114,"x_max":633,"o":"m 114 0 l 114 1028 l 626 1028 l 626 982 l 161 982 l 161 46 l 633 46 l 633 0 l 114 0 m 156 506 l 156 551 l 564 551 l 564 506 l 156 506 m 367 1308 l 456 1469 l 506 1469 l 406 1308 l 367 1308 m 219 1197 l 219 1238 l 553 1238 l 553 1197 l 219 1197 z "},"Ḕ":{"ha":657,"x_min":114,"x_max":633,"o":"m 114 0 l 114 1028 l 626 1028 l 626 982 l 161 982 l 161 46 l 633 46 l 633 0 l 114 0 m 156 506 l 156 551 l 564 551 l 564 506 l 156 506 m 367 1308 l 267 1469 l 317 1469 l 406 1308 l 367 1308 m 219 1197 l 219 1238 l 553 1238 l 553 1197 l 219 1197 z "},"Ę":{"ha":657,"x_min":114,"x_max":656,"o":"m 114 0 l 114 1028 l 626 1028 l 626 982 l 161 982 l 161 46 l 633 46 l 633 0 l 114 0 m 156 506 l 156 551 l 564 551 l 564 506 l 156 506 m 554 -278 q 453 -248 489 -278 q 417 -161 417 -218 q 451 -60 417 -107 q 558 32 485 -14 l 578 0 q 483 -79 510 -42 q 456 -158 456 -117 q 553 -242 456 -242 q 599 -235 575 -242 q 656 -214 624 -229 l 656 -251 q 604 -272 629 -265 q 554 -278 579 -278 z "},"Ẽ":{"ha":657,"x_min":114,"x_max":633,"o":"m 114 0 l 114 1028 l 626 1028 l 626 982 l 161 982 l 161 46 l 633 46 l 633 0 l 114 0 m 156 506 l 156 551 l 564 551 l 564 506 l 156 506 m 475 1178 q 382 1205 423 1178 q 297 1232 340 1232 q 246 1219 268 1232 q 204 1182 224 1207 l 204 1228 q 297 1271 238 1271 q 391 1244 349 1271 q 475 1217 432 1217 q 526 1229 504 1217 q 568 1267 549 1242 l 568 1221 q 475 1178 534 1178 z "},"F":{"ha":632,"x_min":114,"x_max":619,"o":"m 114 0 l 114 1028 l 619 1028 l 619 982 l 161 982 l 161 0 l 114 0 m 156 506 l 156 551 l 557 551 l 557 506 l 156 506 z "},"G":{"ha":768,"x_min":68,"x_max":679,"o":"m 508 -7 q 181 108 293 -7 q 68 513 68 222 q 177 925 68 810 q 475 1040 286 1040 q 572 1033 522 1040 q 667 1013 622 1026 l 667 965 q 567 988 615 982 q 471 994 519 994 q 212 892 306 994 q 118 513 118 790 q 215 140 118 242 q 508 39 313 39 q 579 42 544 39 q 647 53 614 46 l 632 28 l 632 500 l 679 500 l 679 10 q 588 -3 628 0 q 508 -7 549 -7 z "},"Ǵ":{"ha":768,"x_min":68,"x_max":679,"o":"m 508 -7 q 181 108 293 -7 q 68 513 68 222 q 177 925 68 810 q 475 1040 286 1040 q 572 1033 522 1040 q 667 1013 622 1026 l 667 965 q 567 988 615 982 q 471 994 519 994 q 212 892 306 994 q 118 513 118 790 q 215 140 118 242 q 508 39 313 39 q 579 42 544 39 q 647 53 614 46 l 632 28 l 632 500 l 679 500 l 679 10 q 588 -3 628 0 q 508 -7 549 -7 m 410 1122 l 499 1311 l 549 1311 l 449 1122 l 410 1122 z "},"Ğ":{"ha":768,"x_min":68,"x_max":679,"o":"m 508 -7 q 181 108 293 -7 q 68 513 68 222 q 177 925 68 810 q 475 1040 286 1040 q 572 1033 522 1040 q 667 1013 622 1026 l 667 965 q 567 988 615 982 q 471 994 519 994 q 212 892 306 994 q 118 513 118 790 q 215 140 118 242 q 508 39 313 39 q 579 42 544 39 q 647 53 614 46 l 632 28 l 632 500 l 679 500 l 679 10 q 588 -3 628 0 q 508 -7 549 -7 m 431 1131 q 310 1171 354 1131 q 261 1292 267 1211 l 300 1292 q 338 1199 307 1227 q 431 1171 368 1171 q 523 1199 493 1171 q 558 1292 553 1227 l 597 1292 q 549 1170 592 1210 q 431 1131 507 1131 z "},"Ǧ":{"ha":768,"x_min":68,"x_max":679,"o":"m 508 -7 q 181 108 293 -7 q 68 513 68 222 q 177 925 68 810 q 475 1040 286 1040 q 572 1033 522 1040 q 667 1013 622 1026 l 667 965 q 567 988 615 982 q 471 994 519 994 q 212 892 306 994 q 118 513 118 790 q 215 140 118 242 q 508 39 313 39 q 579 42 544 39 q 647 53 614 46 l 632 28 l 632 500 l 679 500 l 679 10 q 588 -3 628 0 q 508 -7 549 -7 m 403 1122 l 267 1311 l 315 1311 l 435 1143 l 424 1143 l 543 1311 l 592 1311 l 456 1122 l 403 1122 z "},"Ĝ":{"ha":768,"x_min":68,"x_max":679,"o":"m 508 -7 q 181 108 293 -7 q 68 513 68 222 q 177 925 68 810 q 475 1040 286 1040 q 572 1033 522 1040 q 667 1013 622 1026 l 667 965 q 567 988 615 982 q 471 994 519 994 q 212 892 306 994 q 118 513 118 790 q 215 140 118 242 q 508 39 313 39 q 579 42 544 39 q 647 53 614 46 l 632 28 l 632 500 l 679 500 l 679 10 q 588 -3 628 0 q 508 -7 549 -7 m 267 1122 l 403 1311 l 456 1311 l 592 1122 l 543 1122 l 424 1290 l 435 1290 l 315 1122 l 267 1122 z "},"Ģ":{"ha":768,"x_min":68,"x_max":679,"o":"m 508 -7 q 181 108 293 -7 q 68 513 68 222 q 177 925 68 810 q 475 1040 286 1040 q 572 1033 522 1040 q 667 1013 622 1026 l 667 965 q 567 988 615 982 q 471 994 519 994 q 212 892 306 994 q 118 513 118 790 q 215 140 118 242 q 508 39 313 39 q 579 42 544 39 q 647 53 614 46 l 632 28 l 632 500 l 679 500 l 679 10 q 588 -3 628 0 q 508 -7 549 -7 m 411 -311 q 430 -246 426 -274 q 435 -193 435 -218 l 438 -215 l 429 -215 q 398 -203 410 -215 q 386 -171 386 -190 q 426 -128 386 -128 q 460 -142 447 -128 q 472 -187 472 -157 q 465 -246 472 -212 q 442 -311 457 -279 l 411 -311 z "},"Ġ":{"ha":768,"x_min":68,"x_max":679,"o":"m 508 -7 q 181 108 293 -7 q 68 513 68 222 q 177 925 68 810 q 475 1040 286 1040 q 572 1033 522 1040 q 667 1013 622 1026 l 667 965 q 567 988 615 982 q 471 994 519 994 q 212 892 306 994 q 118 513 118 790 q 215 140 118 242 q 508 39 313 39 q 579 42 544 39 q 647 53 614 46 l 632 28 l 632 500 l 679 500 l 679 10 q 588 -3 628 0 q 508 -7 549 -7 m 429 1174 q 398 1185 410 1174 q 386 1217 386 1197 q 398 1249 386 1236 q 429 1261 410 1261 q 460 1249 448 1261 q 472 1217 472 1236 q 460 1185 472 1197 q 429 1174 448 1174 z "},"Ḡ":{"ha":768,"x_min":68,"x_max":679,"o":"m 508 -7 q 181 108 293 -7 q 68 513 68 222 q 177 925 68 810 q 475 1040 286 1040 q 572 1033 522 1040 q 667 1013 622 1026 l 667 965 q 567 988 615 982 q 471 994 519 994 q 212 892 306 994 q 118 513 118 790 q 215 140 118 242 q 508 39 313 39 q 579 42 544 39 q 647 53 614 46 l 632 28 l 632 500 l 679 500 l 679 10 q 588 -3 628 0 q 508 -7 549 -7 m 263 1197 l 263 1238 l 596 1238 l 596 1197 l 263 1197 z "},"H":{"ha":847,"x_min":114,"x_max":733,"o":"m 114 0 l 114 1028 l 161 1028 l 161 551 l 686 551 l 686 1028 l 733 1028 l 733 0 l 686 0 l 686 506 l 161 506 l 161 0 l 114 0 z "},"Ħ":{"ha":847,"x_min":-3,"x_max":850,"o":"m 114 0 l 114 1028 l 161 1028 l 161 551 l 686 551 l 686 1028 l 733 1028 l 733 0 l 686 0 l 686 506 l 161 506 l 161 0 l 114 0 m -3 771 l -3 813 l 850 813 l 850 771 l -3 771 z "},"Ḫ":{"ha":847,"x_min":114,"x_max":733,"o":"m 114 0 l 114 1028 l 161 1028 l 161 551 l 686 551 l 686 1028 l 733 1028 l 733 0 l 686 0 l 686 506 l 161 506 l 161 0 l 114 0 m 425 -278 q 302 -235 347 -278 q 256 -111 257 -192 l 294 -111 q 330 -207 297 -176 q 425 -237 363 -237 q 519 -207 488 -237 q 553 -111 551 -176 l 592 -111 q 547 -235 590 -193 q 425 -278 503 -278 z "},"Ĥ":{"ha":847,"x_min":114,"x_max":733,"o":"m 114 0 l 114 1028 l 161 1028 l 161 551 l 686 551 l 686 1028 l 733 1028 l 733 0 l 686 0 l 686 506 l 161 506 l 161 0 l 114 0 m 261 1122 l 397 1311 l 450 1311 l 586 1122 l 538 1122 l 418 1290 l 429 1290 l 310 1122 l 261 1122 z "},"Ḥ":{"ha":847,"x_min":114,"x_max":733,"o":"m 114 0 l 114 1028 l 161 1028 l 161 551 l 686 551 l 686 1028 l 733 1028 l 733 0 l 686 0 l 686 506 l 161 506 l 161 0 l 114 0 m 424 -215 q 393 -203 405 -215 q 381 -172 381 -192 q 393 -140 381 -153 q 424 -128 405 -128 q 455 -140 442 -128 q 467 -172 467 -153 q 455 -203 467 -192 q 424 -215 442 -215 z "},"I":{"ha":275,"x_min":114,"x_max":161,"o":"m 114 0 l 114 1028 l 161 1028 l 161 0 l 114 0 z "},"Í":{"ha":275,"x_min":114,"x_max":257,"o":"m 114 0 l 114 1028 l 161 1028 l 161 0 l 114 0 m 118 1122 l 207 1311 l 257 1311 l 157 1122 l 118 1122 z "},"Ĭ":{"ha":275,"x_min":-31,"x_max":306,"o":"m 114 0 l 114 1028 l 161 1028 l 161 0 l 114 0 m 139 1131 q 19 1171 63 1131 q -31 1292 -25 1211 l 8 1292 q 46 1199 15 1227 q 139 1171 76 1171 q 231 1199 201 1171 q 267 1292 261 1227 l 306 1292 q 258 1170 300 1210 q 139 1131 215 1131 z "},"Î":{"ha":275,"x_min":-25,"x_max":300,"o":"m 114 0 l 114 1028 l 161 1028 l 161 0 l 114 0 m -25 1122 l 111 1311 l 164 1311 l 300 1122 l 251 1122 l 132 1290 l 143 1290 l 24 1122 l -25 1122 z "},"Ȉ":{"ha":275,"x_min":-36,"x_max":244,"o":"m 114 0 l 114 1028 l 161 1028 l 161 0 l 114 0 m 207 1122 l 140 1311 l 185 1311 l 244 1122 l 207 1122 m 31 1122 l -36 1311 l 8 1311 l 68 1122 l 31 1122 z "},"Ï":{"ha":275,"x_min":-31,"x_max":306,"o":"m 114 0 l 114 1028 l 161 1028 l 161 0 l 114 0 m 263 1174 q 219 1217 219 1174 q 263 1261 219 1261 q 306 1217 306 1261 q 263 1174 306 1174 m 13 1174 q -31 1217 -31 1174 q 13 1261 -31 1261 q 56 1217 56 1261 q 13 1174 56 1174 z "},"Ḯ":{"ha":275,"x_min":-31,"x_max":306,"o":"m 114 0 l 114 1028 l 161 1028 l 161 0 l 114 0 m 118 1308 l 207 1469 l 257 1469 l 157 1308 l 118 1308 m 263 1174 q 219 1217 219 1174 q 263 1261 219 1261 q 306 1217 306 1261 q 263 1174 306 1174 m 13 1174 q -31 1217 -31 1174 q 13 1261 -31 1261 q 56 1217 56 1261 q 13 1174 56 1174 z "},"İ":{"ha":275,"x_min":94,"x_max":181,"o":"m 114 0 l 114 1028 l 161 1028 l 161 0 l 114 0 m 138 1174 q 107 1185 119 1174 q 94 1217 94 1197 q 107 1249 94 1236 q 138 1261 119 1261 q 168 1249 156 1261 q 181 1217 181 1236 q 168 1185 181 1197 q 138 1174 156 1174 z "},"Ị":{"ha":275,"x_min":94,"x_max":181,"o":"m 114 0 l 114 1028 l 161 1028 l 161 0 l 114 0 m 138 -215 q 107 -203 119 -215 q 94 -172 94 -192 q 107 -140 94 -153 q 138 -128 119 -128 q 168 -140 156 -128 q 181 -172 181 -153 q 168 -203 181 -192 q 138 -215 156 -215 z "},"Ì":{"ha":275,"x_min":18,"x_max":161,"o":"m 114 0 l 114 1028 l 161 1028 l 161 0 l 114 0 m 118 1122 l 18 1311 l 68 1311 l 157 1122 l 118 1122 z "},"Ỉ":{"ha":275,"x_min":21,"x_max":264,"o":"m 114 0 l 114 1028 l 161 1028 l 161 0 l 114 0 m 117 1122 q 145 1176 119 1161 q 197 1201 171 1191 q 222 1238 222 1212 q 207 1263 222 1253 q 144 1274 192 1274 q 83 1267 115 1274 q 21 1247 51 1261 l 21 1286 q 78 1304 44 1297 q 144 1311 111 1311 q 234 1290 205 1311 q 264 1239 264 1269 q 239 1187 264 1201 q 187 1161 213 1172 q 158 1122 161 1149 l 117 1122 z "},"Ȋ":{"ha":275,"x_min":-31,"x_max":306,"o":"m 114 0 l 114 1028 l 161 1028 l 161 0 l 114 0 m -31 1142 q 17 1263 -25 1223 q 136 1303 60 1303 q 256 1263 213 1303 q 306 1142 300 1222 l 267 1142 q 229 1234 260 1206 q 136 1263 199 1263 q 44 1234 74 1263 q 8 1142 14 1206 l -31 1142 z "},"Ī":{"ha":275,"x_min":-29,"x_max":304,"o":"m 114 0 l 114 1028 l 161 1028 l 161 0 l 114 0 m -29 1197 l -29 1238 l 304 1238 l 304 1197 l -29 1197 z "},"Į":{"ha":275,"x_min":0,"x_max":239,"o":"m 114 0 l 114 1028 l 161 1028 l 161 0 l 114 0 m 138 -278 q 36 -248 72 -278 q 0 -161 0 -218 q 34 -60 0 -107 q 142 32 68 -14 l 161 0 q 66 -79 93 -42 q 39 -158 39 -117 q 136 -242 39 -242 q 183 -235 158 -242 q 239 -214 207 -229 l 239 -251 q 188 -272 213 -265 q 138 -278 163 -278 z "},"Ĩ":{"ha":275,"x_min":-44,"x_max":319,"o":"m 114 0 l 114 1028 l 161 1028 l 161 0 l 114 0 m 226 1178 q 133 1205 174 1178 q 49 1232 92 1232 q -3 1219 19 1232 q -44 1182 -25 1207 l -44 1228 q 49 1271 -10 1271 q 142 1244 101 1271 q 226 1217 183 1217 q 278 1229 256 1217 q 319 1267 300 1242 l 319 1221 q 226 1178 285 1178 z "},"J":{"ha":275,"x_min":-4,"x_max":161,"o":"m 31 -236 l -4 -212 q 86 -23 58 -114 q 114 199 114 68 l 114 1028 l 161 1028 l 161 178 q 128 -37 157 56 q 31 -236 99 -130 z "},"Ĵ":{"ha":275,"x_min":-25,"x_max":300,"o":"m 31 -236 l -4 -212 q 86 -23 58 -114 q 114 199 114 68 l 114 1028 l 161 1028 l 161 178 q 128 -37 157 56 q 31 -236 99 -130 m -25 1122 l 111 1311 l 164 1311 l 300 1122 l 251 1122 l 132 1290 l 143 1290 l 24 1122 l -25 1122 z "},"K":{"ha":722,"x_min":114,"x_max":749,"o":"m 692 0 l 279 526 l 664 1028 l 719 1028 l 328 521 l 328 538 l 749 0 l 692 0 m 114 0 l 114 1028 l 161 1028 l 161 0 l 114 0 m 150 506 l 150 550 l 308 550 l 308 506 l 150 506 z "},"Ķ":{"ha":722,"x_min":114,"x_max":749,"o":"m 692 0 l 279 526 l 664 1028 l 719 1028 l 328 521 l 328 538 l 749 0 l 692 0 m 114 0 l 114 1028 l 161 1028 l 161 0 l 114 0 m 150 506 l 150 550 l 308 550 l 308 506 l 150 506 m 368 -311 q 387 -246 383 -274 q 392 -193 392 -218 l 394 -215 l 386 -215 q 355 -203 367 -215 q 343 -171 343 -190 q 383 -128 343 -128 q 417 -142 404 -128 q 429 -187 429 -157 q 422 -246 429 -212 q 399 -311 414 -279 l 368 -311 z "},"L":{"ha":618,"x_min":114,"x_max":615,"o":"m 114 0 l 114 1028 l 161 1028 l 161 46 l 615 46 l 615 0 l 114 0 z "},"Ǉ":{"ha":893,"x_min":114,"x_max":779,"o":"m 114 0 l 114 1028 l 161 1028 l 161 46 l 615 46 l 615 0 l 114 0 m 649 -236 l 614 -212 q 704 -23 676 -114 q 732 199 732 68 l 732 1028 l 779 1028 l 779 178 q 746 -37 775 56 q 649 -236 717 -130 z "},"Ĺ":{"ha":618,"x_min":114,"x_max":615,"o":"m 114 0 l 114 1028 l 161 1028 l 161 46 l 615 46 l 615 0 l 114 0 m 118 1122 l 207 1311 l 257 1311 l 157 1122 l 118 1122 z "},"Ľ":{"ha":618,"x_min":114,"x_max":615,"o":"m 114 0 l 114 1028 l 161 1028 l 161 46 l 615 46 l 615 0 l 114 0 m 389 792 q 399 951 397 865 q 401 1122 401 1037 l 446 1122 q 441 949 446 1033 q 421 792 435 865 l 389 792 z "},"Ļ":{"ha":618,"x_min":114,"x_max":615,"o":"m 114 0 l 114 1028 l 161 1028 l 161 46 l 615 46 l 615 0 l 114 0 m 347 -311 q 366 -246 362 -274 q 371 -193 371 -218 l 374 -215 l 365 -215 q 334 -203 347 -215 q 322 -171 322 -190 q 363 -128 322 -128 q 396 -142 383 -128 q 408 -187 408 -157 q 401 -246 408 -212 q 378 -311 393 -279 l 347 -311 z "},"Ŀ":{"ha":618,"x_min":114,"x_max":615,"o":"m 114 0 l 114 1028 l 161 1028 l 161 46 l 615 46 l 615 0 l 114 0 m 444 493 q 401 536 401 493 q 444 581 401 581 q 488 536 488 581 q 444 493 488 493 z "},"Ḷ":{"ha":618,"x_min":114,"x_max":615,"o":"m 114 0 l 114 1028 l 161 1028 l 161 46 l 615 46 l 615 0 l 114 0 m 365 -215 q 334 -203 347 -215 q 322 -172 322 -192 q 334 -140 322 -153 q 365 -128 347 -128 q 396 -140 384 -128 q 408 -172 408 -153 q 396 -203 408 -192 q 365 -215 384 -215 z "},"ǈ":{"ha":865,"x_min":114,"x_max":785,"o":"m 114 0 l 114 1028 l 161 1028 l 161 46 l 615 46 l 615 0 l 114 0 z "},"Ḻ":{"ha":618,"x_min":114,"x_max":615,"o":"m 114 0 l 114 1028 l 161 1028 l 161 46 l 615 46 l 615 0 l 114 0 m 199 -192 l 199 -151 l 532 -151 l 532 -192 l 199 -192 z "},"Ł":{"ha":618,"x_min":-3,"x_max":615,"o":"m 114 0 l 114 1028 l 161 1028 l 161 46 l 615 46 l 615 0 l 114 0 m 25 394 l -3 424 l 325 750 l 353 721 l 25 394 z "},"M":{"ha":1053,"x_min":117,"x_max":936,"o":"m 117 0 l 117 1028 l 169 1028 l 539 161 l 517 161 l 883 1028 l 936 1028 l 936 0 l 890 0 l 890 986 l 914 986 l 553 139 l 500 139 l 138 986 l 163 986 l 163 0 l 117 0 z "},"Ṃ":{"ha":1053,"x_min":117,"x_max":936,"o":"m 117 0 l 117 1028 l 169 1028 l 539 161 l 517 161 l 883 1028 l 936 1028 l 936 0 l 890 0 l 890 986 l 914 986 l 553 139 l 500 139 l 138 986 l 163 986 l 163 0 l 117 0 m 526 -215 q 495 -203 508 -215 q 483 -172 483 -192 q 495 -140 483 -153 q 526 -128 508 -128 q 557 -140 545 -128 q 569 -172 569 -153 q 557 -203 569 -192 q 526 -215 545 -215 z "},"N":{"ha":867,"x_min":114,"x_max":753,"o":"m 114 0 l 114 1028 l 167 1028 l 729 42 l 707 42 l 707 1028 l 753 1028 l 753 0 l 700 0 l 138 986 l 160 986 l 160 0 l 114 0 z "},"Ǌ":{"ha":1142,"x_min":114,"x_max":1028,"o":"m 114 0 l 114 1028 l 167 1028 l 729 42 l 707 42 l 707 1028 l 753 1028 l 753 0 l 700 0 l 138 986 l 160 986 l 160 0 l 114 0 m 897 -236 l 863 -212 q 953 -23 925 -114 q 981 199 981 68 l 981 1028 l 1028 1028 l 1028 178 q 994 -37 1024 56 q 897 -236 965 -130 z "},"Ń":{"ha":867,"x_min":114,"x_max":753,"o":"m 114 0 l 114 1028 l 167 1028 l 729 42 l 707 42 l 707 1028 l 753 1028 l 753 0 l 700 0 l 138 986 l 160 986 l 160 0 l 114 0 m 414 1122 l 503 1311 l 553 1311 l 453 1122 l 414 1122 z "},"Ň":{"ha":867,"x_min":114,"x_max":753,"o":"m 114 0 l 114 1028 l 167 1028 l 729 42 l 707 42 l 707 1028 l 753 1028 l 753 0 l 700 0 l 138 986 l 160 986 l 160 0 l 114 0 m 407 1122 l 271 1311 l 319 1311 l 439 1143 l 428 1143 l 547 1311 l 596 1311 l 460 1122 l 407 1122 z "},"Ņ":{"ha":867,"x_min":114,"x_max":753,"o":"m 114 0 l 114 1028 l 167 1028 l 729 42 l 707 42 l 707 1028 l 753 1028 l 753 0 l 700 0 l 138 986 l 160 986 l 160 0 l 114 0 m 415 -311 q 434 -246 430 -274 q 439 -193 439 -218 l 442 -215 l 433 -215 q 402 -203 415 -215 q 390 -171 390 -190 q 431 -128 390 -128 q 464 -142 451 -128 q 476 -187 476 -157 q 469 -246 476 -212 q 446 -311 461 -279 l 415 -311 z "},"Ṅ":{"ha":867,"x_min":114,"x_max":753,"o":"m 114 0 l 114 1028 l 167 1028 l 729 42 l 707 42 l 707 1028 l 753 1028 l 753 0 l 700 0 l 138 986 l 160 986 l 160 0 l 114 0 m 433 1174 q 402 1185 415 1174 q 390 1217 390 1197 q 402 1249 390 1236 q 433 1261 415 1261 q 464 1249 452 1261 q 476 1217 476 1236 q 464 1185 476 1197 q 433 1174 452 1174 z "},"Ṇ":{"ha":867,"x_min":114,"x_max":753,"o":"m 114 0 l 114 1028 l 167 1028 l 729 42 l 707 42 l 707 1028 l 753 1028 l 753 0 l 700 0 l 138 986 l 160 986 l 160 0 l 114 0 m 433 -215 q 402 -203 415 -215 q 390 -172 390 -192 q 402 -140 390 -153 q 433 -128 415 -128 q 464 -140 452 -128 q 476 -172 476 -153 q 464 -203 476 -192 q 433 -215 452 -215 z "},"Ŋ":{"ha":867,"x_min":114,"x_max":753,"o":"m 713 -22 l 138 986 l 160 986 l 160 0 l 114 0 l 114 1028 l 167 1028 l 742 19 l 713 -22 m 622 -319 l 588 -296 q 678 -106 650 -197 q 707 115 707 -15 l 707 1028 l 753 1028 l 753 122 q 722 -117 753 -21 q 622 -319 690 -213 z "},"ǋ":{"ha":1114,"x_min":114,"x_max":1033,"o":"m 114 0 l 114 1028 l 167 1028 l 729 42 l 707 42 l 707 1028 l 753 1028 l 753 0 l 700 0 l 138 986 l 160 986 l 160 0 l 114 0 z "},"Ṉ":{"ha":867,"x_min":114,"x_max":753,"o":"m 114 0 l 114 1028 l 167 1028 l 729 42 l 707 42 l 707 1028 l 753 1028 l 753 0 l 700 0 l 138 986 l 160 986 l 160 0 l 114 0 m 267 -192 l 267 -151 l 600 -151 l 600 -192 l 267 -192 z "},"Ñ":{"ha":867,"x_min":114,"x_max":753,"o":"m 114 0 l 114 1028 l 167 1028 l 729 42 l 707 42 l 707 1028 l 753 1028 l 753 0 l 700 0 l 138 986 l 160 986 l 160 0 l 114 0 m 522 1178 q 429 1205 470 1178 q 344 1232 388 1232 q 293 1219 315 1232 q 251 1182 271 1207 l 251 1228 q 344 1271 285 1271 q 438 1244 397 1271 q 522 1217 479 1217 q 574 1229 551 1217 q 615 1267 596 1242 l 615 1221 q 522 1178 581 1178 z "},"O":{"ha":808,"x_min":68,"x_max":740,"o":"m 404 -12 q 159 106 250 -12 q 68 514 68 224 q 159 922 68 804 q 404 1040 250 1040 q 649 922 558 1040 q 740 514 740 804 q 649 106 740 224 q 404 -12 558 -12 m 404 33 q 612 134 533 33 q 690 511 690 235 q 612 893 690 792 q 404 994 533 994 q 197 894 275 994 q 118 517 118 793 q 197 135 118 236 q 404 33 275 33 z "},"Ó":{"ha":808,"x_min":68,"x_max":740,"o":"m 404 -12 q 159 106 250 -12 q 68 514 68 224 q 159 922 68 804 q 404 1040 250 1040 q 649 922 558 1040 q 740 514 740 804 q 649 106 740 224 q 404 -12 558 -12 m 404 33 q 612 134 533 33 q 690 511 690 235 q 612 893 690 792 q 404 994 533 994 q 197 894 275 994 q 118 517 118 793 q 197 135 118 236 q 404 33 275 33 m 385 1122 l 474 1311 l 524 1311 l 424 1122 l 385 1122 z "},"Ŏ":{"ha":808,"x_min":68,"x_max":740,"o":"m 404 -12 q 159 106 250 -12 q 68 514 68 224 q 159 922 68 804 q 404 1040 250 1040 q 649 922 558 1040 q 740 514 740 804 q 649 106 740 224 q 404 -12 558 -12 m 404 33 q 612 134 533 33 q 690 511 690 235 q 612 893 690 792 q 404 994 533 994 q 197 894 275 994 q 118 517 118 793 q 197 135 118 236 q 404 33 275 33 m 406 1131 q 285 1171 329 1131 q 236 1292 242 1211 l 275 1292 q 313 1199 282 1227 q 406 1171 343 1171 q 498 1199 468 1171 q 533 1292 528 1227 l 572 1292 q 524 1170 567 1210 q 406 1131 482 1131 z "},"Ô":{"ha":808,"x_min":68,"x_max":740,"o":"m 404 -12 q 159 106 250 -12 q 68 514 68 224 q 159 922 68 804 q 404 1040 250 1040 q 649 922 558 1040 q 740 514 740 804 q 649 106 740 224 q 404 -12 558 -12 m 404 33 q 612 134 533 33 q 690 511 690 235 q 612 893 690 792 q 404 994 533 994 q 197 894 275 994 q 118 517 118 793 q 197 135 118 236 q 404 33 275 33 m 242 1122 l 378 1311 l 431 1311 l 567 1122 l 518 1122 l 399 1290 l 410 1290 l 290 1122 l 242 1122 z "},"Ố":{"ha":808,"x_min":68,"x_max":740,"o":"m 404 -12 q 159 106 250 -12 q 68 514 68 224 q 159 922 68 804 q 404 1040 250 1040 q 649 922 558 1040 q 740 514 740 804 q 649 106 740 224 q 404 -12 558 -12 m 404 33 q 612 134 533 33 q 690 511 690 235 q 612 893 690 792 q 404 994 533 994 q 197 894 275 994 q 118 517 118 793 q 197 135 118 236 q 404 33 275 33 m 242 1122 l 378 1311 l 431 1311 l 567 1122 l 518 1122 l 399 1290 l 410 1290 l 290 1122 l 242 1122 m 528 1244 l 617 1433 l 667 1433 l 567 1244 l 528 1244 z "},"Ộ":{"ha":808,"x_min":68,"x_max":740,"o":"m 404 -12 q 159 106 250 -12 q 68 514 68 224 q 159 922 68 804 q 404 1040 250 1040 q 649 922 558 1040 q 740 514 740 804 q 649 106 740 224 q 404 -12 558 -12 m 404 33 q 612 134 533 33 q 690 511 690 235 q 612 893 690 792 q 404 994 533 994 q 197 894 275 994 q 118 517 118 793 q 197 135 118 236 q 404 33 275 33 m 404 -215 q 373 -203 385 -215 q 361 -172 361 -192 q 373 -140 361 -153 q 404 -128 385 -128 q 435 -140 423 -128 q 447 -172 447 -153 q 435 -203 447 -192 q 404 -215 423 -215 m 242 1122 l 378 1311 l 431 1311 l 567 1122 l 518 1122 l 399 1290 l 410 1290 l 290 1122 l 242 1122 z "},"Ồ":{"ha":808,"x_min":68,"x_max":740,"o":"m 404 -12 q 159 106 250 -12 q 68 514 68 224 q 159 922 68 804 q 404 1040 250 1040 q 649 922 558 1040 q 740 514 740 804 q 649 106 740 224 q 404 -12 558 -12 m 404 33 q 612 134 533 33 q 690 511 690 235 q 612 893 690 792 q 404 994 533 994 q 197 894 275 994 q 118 517 118 793 q 197 135 118 236 q 404 33 275 33 m 242 1122 l 378 1311 l 431 1311 l 567 1122 l 518 1122 l 399 1290 l 410 1290 l 290 1122 l 242 1122 m 542 1244 l 442 1433 l 492 1433 l 581 1244 l 542 1244 z "},"Ổ":{"ha":808,"x_min":68,"x_max":740,"o":"m 404 -12 q 159 106 250 -12 q 68 514 68 224 q 159 922 68 804 q 404 1040 250 1040 q 649 922 558 1040 q 740 514 740 804 q 649 106 740 224 q 404 -12 558 -12 m 404 33 q 612 134 533 33 q 690 511 690 235 q 612 893 690 792 q 404 994 533 994 q 197 894 275 994 q 118 517 118 793 q 197 135 118 236 q 404 33 275 33 m 242 1122 l 378 1311 l 431 1311 l 567 1122 l 518 1122 l 399 1290 l 410 1290 l 290 1122 l 242 1122 m 526 1244 q 555 1298 528 1283 q 606 1324 581 1313 q 632 1360 632 1334 q 617 1385 632 1375 q 554 1396 601 1396 q 493 1390 525 1396 q 431 1369 461 1383 l 431 1408 q 488 1426 454 1419 q 554 1433 521 1433 q 644 1413 615 1433 q 674 1361 674 1392 q 648 1309 674 1324 q 597 1283 623 1294 q 568 1244 571 1272 l 526 1244 z "},"Ỗ":{"ha":808,"x_min":68,"x_max":740,"o":"m 404 -12 q 159 106 250 -12 q 68 514 68 224 q 159 922 68 804 q 404 1040 250 1040 q 649 922 558 1040 q 740 514 740 804 q 649 106 740 224 q 404 -12 558 -12 m 404 33 q 612 134 533 33 q 690 511 690 235 q 612 893 690 792 q 404 994 533 994 q 197 894 275 994 q 118 517 118 793 q 197 135 118 236 q 404 33 275 33 m 242 1122 l 378 1311 l 431 1311 l 567 1122 l 518 1122 l 399 1290 l 410 1290 l 290 1122 l 242 1122 m 481 1343 q 400 1370 437 1343 q 328 1397 363 1397 q 281 1385 301 1397 q 242 1347 260 1372 l 242 1393 q 278 1424 256 1413 q 328 1436 301 1436 q 409 1409 372 1436 q 481 1382 446 1382 q 527 1394 507 1382 q 567 1432 548 1407 l 567 1386 q 530 1355 552 1367 q 481 1343 508 1343 z "},"Ȍ":{"ha":808,"x_min":68,"x_max":740,"o":"m 404 -12 q 159 106 250 -12 q 68 514 68 224 q 159 922 68 804 q 404 1040 250 1040 q 649 922 558 1040 q 740 514 740 804 q 649 106 740 224 q 404 -12 558 -12 m 404 33 q 612 134 533 33 q 690 511 690 235 q 612 893 690 792 q 404 994 533 994 q 197 894 275 994 q 118 517 118 793 q 197 135 118 236 q 404 33 275 33 m 474 1122 l 407 1311 l 451 1311 l 511 1122 l 474 1122 m 297 1122 l 231 1311 l 275 1311 l 335 1122 l 297 1122 z "},"Ö":{"ha":808,"x_min":68,"x_max":740,"o":"m 404 -12 q 159 106 250 -12 q 68 514 68 224 q 159 922 68 804 q 404 1040 250 1040 q 649 922 558 1040 q 740 514 740 804 q 649 106 740 224 q 404 -12 558 -12 m 404 33 q 612 134 533 33 q 690 511 690 235 q 612 893 690 792 q 404 994 533 994 q 197 894 275 994 q 118 517 118 793 q 197 135 118 236 q 404 33 275 33 m 529 1174 q 486 1217 486 1174 q 529 1261 486 1261 q 572 1217 572 1261 q 529 1174 572 1174 m 279 1174 q 236 1217 236 1174 q 279 1261 236 1261 q 322 1217 322 1261 q 279 1174 322 1174 z "},"Ȫ":{"ha":808,"x_min":68,"x_max":740,"o":"m 404 -12 q 159 106 250 -12 q 68 514 68 224 q 159 922 68 804 q 404 1040 250 1040 q 649 922 558 1040 q 740 514 740 804 q 649 106 740 224 q 404 -12 558 -12 m 404 33 q 612 134 533 33 q 690 511 690 235 q 612 893 690 792 q 404 994 533 994 q 197 894 275 994 q 118 517 118 793 q 197 135 118 236 q 404 33 275 33 z "},"Ȱ":{"ha":808,"x_min":68,"x_max":740,"o":"m 404 -12 q 159 106 250 -12 q 68 514 68 224 q 159 922 68 804 q 404 1040 250 1040 q 649 922 558 1040 q 740 514 740 804 q 649 106 740 224 q 404 -12 558 -12 m 404 33 q 612 134 533 33 q 690 511 690 235 q 612 893 690 792 q 404 994 533 994 q 197 894 275 994 q 118 517 118 793 q 197 135 118 236 q 404 33 275 33 z "},"Ọ":{"ha":808,"x_min":68,"x_max":740,"o":"m 404 -12 q 159 106 250 -12 q 68 514 68 224 q 159 922 68 804 q 404 1040 250 1040 q 649 922 558 1040 q 740 514 740 804 q 649 106 740 224 q 404 -12 558 -12 m 404 33 q 612 134 533 33 q 690 511 690 235 q 612 893 690 792 q 404 994 533 994 q 197 894 275 994 q 118 517 118 793 q 197 135 118 236 q 404 33 275 33 m 404 -215 q 373 -203 385 -215 q 361 -172 361 -192 q 373 -140 361 -153 q 404 -128 385 -128 q 435 -140 423 -128 q 447 -172 447 -153 q 435 -203 447 -192 q 404 -215 423 -215 z "},"Ò":{"ha":808,"x_min":68,"x_max":740,"o":"m 404 -12 q 159 106 250 -12 q 68 514 68 224 q 159 922 68 804 q 404 1040 250 1040 q 649 922 558 1040 q 740 514 740 804 q 649 106 740 224 q 404 -12 558 -12 m 404 33 q 612 134 533 33 q 690 511 690 235 q 612 893 690 792 q 404 994 533 994 q 197 894 275 994 q 118 517 118 793 q 197 135 118 236 q 404 33 275 33 m 385 1122 l 285 1311 l 335 1311 l 424 1122 l 385 1122 z "},"Ỏ":{"ha":808,"x_min":68,"x_max":740,"o":"m 404 -12 q 159 106 250 -12 q 68 514 68 224 q 159 922 68 804 q 404 1040 250 1040 q 649 922 558 1040 q 740 514 740 804 q 649 106 740 224 q 404 -12 558 -12 m 404 33 q 612 134 533 33 q 690 511 690 235 q 612 893 690 792 q 404 994 533 994 q 197 894 275 994 q 118 517 118 793 q 197 135 118 236 q 404 33 275 33 m 383 1122 q 411 1176 385 1161 q 463 1201 438 1191 q 489 1238 489 1212 q 474 1263 489 1253 q 411 1274 458 1274 q 350 1267 382 1274 q 288 1247 318 1261 l 288 1286 q 344 1304 311 1297 q 411 1311 378 1311 q 501 1290 472 1311 q 531 1239 531 1269 q 505 1187 531 1201 q 454 1161 480 1172 q 425 1122 428 1149 l 383 1122 z "},"Ơ":{"ha":808,"x_min":68,"x_max":740,"o":"m 404 -12 q 160 106 252 -12 q 68 514 68 224 q 159 922 68 804 q 404 1040 250 1040 q 495 1033 460 1040 q 571 1025 531 1025 q 659 1051 623 1025 q 694 1135 694 1078 q 690 1187 694 1164 q 678 1233 685 1210 l 724 1233 q 736 1187 732 1210 q 740 1133 740 1165 q 694 1019 740 1060 q 578 979 647 979 l 585 988 q 699 820 658 935 q 740 514 740 706 q 648 106 740 224 q 404 -12 556 -12 m 404 33 q 612 134 533 33 q 690 511 690 235 q 612 893 690 792 q 404 994 533 994 q 197 894 275 994 q 118 517 118 793 q 197 135 118 236 q 404 33 275 33 z "},"Ớ":{"ha":808,"x_min":68,"x_max":740,"o":"m 404 -12 q 160 106 252 -12 q 68 514 68 224 q 159 922 68 804 q 404 1040 250 1040 q 495 1033 460 1040 q 571 1025 531 1025 q 659 1051 623 1025 q 694 1135 694 1078 q 690 1187 694 1164 q 678 1233 685 1210 l 724 1233 q 736 1187 732 1210 q 740 1133 740 1165 q 694 1019 740 1060 q 578 979 647 979 l 585 988 q 699 820 658 935 q 740 514 740 706 q 648 106 740 224 q 404 -12 556 -12 m 404 33 q 612 134 533 33 q 690 511 690 235 q 612 893 690 792 q 404 994 533 994 q 197 894 275 994 q 118 517 118 793 q 197 135 118 236 q 404 33 275 33 m 385 1122 l 474 1311 l 524 1311 l 424 1122 l 385 1122 z "},"Ợ":{"ha":808,"x_min":68,"x_max":740,"o":"m 404 -12 q 160 106 252 -12 q 68 514 68 224 q 159 922 68 804 q 404 1040 250 1040 q 495 1033 460 1040 q 571 1025 531 1025 q 659 1051 623 1025 q 694 1135 694 1078 q 690 1187 694 1164 q 678 1233 685 1210 l 724 1233 q 736 1187 732 1210 q 740 1133 740 1165 q 694 1019 740 1060 q 578 979 647 979 l 585 988 q 699 820 658 935 q 740 514 740 706 q 648 106 740 224 q 404 -12 556 -12 m 404 33 q 612 134 533 33 q 690 511 690 235 q 612 893 690 792 q 404 994 533 994 q 197 894 275 994 q 118 517 118 793 q 197 135 118 236 q 404 33 275 33 m 404 -215 q 373 -203 385 -215 q 361 -172 361 -192 q 373 -140 361 -153 q 404 -128 385 -128 q 435 -140 423 -128 q 447 -172 447 -153 q 435 -203 447 -192 q 404 -215 423 -215 z "},"Ờ":{"ha":808,"x_min":68,"x_max":740,"o":"m 404 -12 q 160 106 252 -12 q 68 514 68 224 q 159 922 68 804 q 404 1040 250 1040 q 495 1033 460 1040 q 571 1025 531 1025 q 659 1051 623 1025 q 694 1135 694 1078 q 690 1187 694 1164 q 678 1233 685 1210 l 724 1233 q 736 1187 732 1210 q 740 1133 740 1165 q 694 1019 740 1060 q 578 979 647 979 l 585 988 q 699 820 658 935 q 740 514 740 706 q 648 106 740 224 q 404 -12 556 -12 m 404 33 q 612 134 533 33 q 690 511 690 235 q 612 893 690 792 q 404 994 533 994 q 197 894 275 994 q 118 517 118 793 q 197 135 118 236 q 404 33 275 33 m 385 1122 l 285 1311 l 335 1311 l 424 1122 l 385 1122 z "},"Ở":{"ha":808,"x_min":68,"x_max":740,"o":"m 404 -12 q 160 106 252 -12 q 68 514 68 224 q 159 922 68 804 q 404 1040 250 1040 q 495 1033 460 1040 q 571 1025 531 1025 q 659 1051 623 1025 q 694 1135 694 1078 q 690 1187 694 1164 q 678 1233 685 1210 l 724 1233 q 736 1187 732 1210 q 740 1133 740 1165 q 694 1019 740 1060 q 578 979 647 979 l 585 988 q 699 820 658 935 q 740 514 740 706 q 648 106 740 224 q 404 -12 556 -12 m 404 33 q 612 134 533 33 q 690 511 690 235 q 612 893 690 792 q 404 994 533 994 q 197 894 275 994 q 118 517 118 793 q 197 135 118 236 q 404 33 275 33 m 383 1122 q 411 1176 385 1161 q 463 1201 438 1191 q 489 1238 489 1212 q 474 1263 489 1253 q 411 1274 458 1274 q 350 1267 382 1274 q 288 1247 318 1261 l 288 1286 q 344 1304 311 1297 q 411 1311 378 1311 q 501 1290 472 1311 q 531 1239 531 1269 q 505 1187 531 1201 q 454 1161 480 1172 q 425 1122 428 1149 l 383 1122 z "},"Ỡ":{"ha":808,"x_min":68,"x_max":740,"o":"m 404 -12 q 160 106 252 -12 q 68 514 68 224 q 159 922 68 804 q 404 1040 250 1040 q 495 1033 460 1040 q 571 1025 531 1025 q 659 1051 623 1025 q 694 1135 694 1078 q 690 1187 694 1164 q 678 1233 685 1210 l 724 1233 q 736 1187 732 1210 q 740 1133 740 1165 q 694 1019 740 1060 q 578 979 647 979 l 585 988 q 699 820 658 935 q 740 514 740 706 q 648 106 740 224 q 404 -12 556 -12 m 404 33 q 612 134 533 33 q 690 511 690 235 q 612 893 690 792 q 404 994 533 994 q 197 894 275 994 q 118 517 118 793 q 197 135 118 236 q 404 33 275 33 m 493 1178 q 400 1205 441 1178 q 315 1232 358 1232 q 264 1219 286 1232 q 222 1182 242 1207 l 222 1228 q 315 1271 256 1271 q 409 1244 367 1271 q 493 1217 450 1217 q 544 1229 522 1217 q 586 1267 567 1242 l 586 1221 q 493 1178 552 1178 z "},"Ő":{"ha":808,"x_min":68,"x_max":740,"o":"m 404 -12 q 159 106 250 -12 q 68 514 68 224 q 159 922 68 804 q 404 1040 250 1040 q 649 922 558 1040 q 740 514 740 804 q 649 106 740 224 q 404 -12 558 -12 m 404 33 q 612 134 533 33 q 690 511 690 235 q 612 893 690 792 q 404 994 533 994 q 197 894 275 994 q 118 517 118 793 q 197 135 118 236 q 404 33 275 33 m 474 1122 l 533 1311 l 578 1311 l 511 1122 l 474 1122 m 297 1122 l 357 1311 l 401 1311 l 335 1122 l 297 1122 z "},"Ȏ":{"ha":808,"x_min":68,"x_max":740,"o":"m 404 -12 q 159 106 250 -12 q 68 514 68 224 q 159 922 68 804 q 404 1040 250 1040 q 649 922 558 1040 q 740 514 740 804 q 649 106 740 224 q 404 -12 558 -12 m 404 33 q 612 134 533 33 q 690 511 690 235 q 612 893 690 792 q 404 994 533 994 q 197 894 275 994 q 118 517 118 793 q 197 135 118 236 q 404 33 275 33 m 236 1142 q 284 1263 242 1223 q 403 1303 326 1303 q 523 1263 479 1303 q 572 1142 567 1222 l 533 1142 q 496 1234 526 1206 q 403 1263 465 1263 q 310 1234 340 1263 q 275 1142 281 1206 l 236 1142 z "},"Ō":{"ha":808,"x_min":68,"x_max":740,"o":"m 404 -12 q 159 106 250 -12 q 68 514 68 224 q 159 922 68 804 q 404 1040 250 1040 q 649 922 558 1040 q 740 514 740 804 q 649 106 740 224 q 404 -12 558 -12 m 404 33 q 612 134 533 33 q 690 511 690 235 q 612 893 690 792 q 404 994 533 994 q 197 894 275 994 q 118 517 118 793 q 197 135 118 236 q 404 33 275 33 m 238 1197 l 238 1238 l 571 1238 l 571 1197 l 238 1197 z "},"Ṓ":{"ha":808,"x_min":68,"x_max":740,"o":"m 404 -12 q 159 106 250 -12 q 68 514 68 224 q 159 922 68 804 q 404 1040 250 1040 q 649 922 558 1040 q 740 514 740 804 q 649 106 740 224 q 404 -12 558 -12 m 404 33 q 612 134 533 33 q 690 511 690 235 q 612 893 690 792 q 404 994 533 994 q 197 894 275 994 q 118 517 118 793 q 197 135 118 236 q 404 33 275 33 m 385 1308 l 474 1469 l 524 1469 l 424 1308 l 385 1308 m 238 1197 l 238 1238 l 571 1238 l 571 1197 l 238 1197 z "},"Ṑ":{"ha":808,"x_min":68,"x_max":740,"o":"m 404 -12 q 159 106 250 -12 q 68 514 68 224 q 159 922 68 804 q 404 1040 250 1040 q 649 922 558 1040 q 740 514 740 804 q 649 106 740 224 q 404 -12 558 -12 m 404 33 q 612 134 533 33 q 690 511 690 235 q 612 893 690 792 q 404 994 533 994 q 197 894 275 994 q 118 517 118 793 q 197 135 118 236 q 404 33 275 33 m 385 1308 l 285 1469 l 335 1469 l 424 1308 l 385 1308 m 238 1197 l 238 1238 l 571 1238 l 571 1197 l 238 1197 z "},"Ǫ":{"ha":808,"x_min":68,"x_max":740,"o":"m 478 -278 q 376 -248 413 -278 q 339 -161 339 -218 q 362 -77 339 -117 q 440 -1 385 -36 l 440 -12 l 404 -12 q 160 106 252 -12 q 68 514 68 224 q 159 922 68 804 q 404 1040 250 1040 q 649 922 558 1040 q 740 514 740 804 q 683 168 740 285 q 525 7 626 51 q 414 -69 448 -26 q 379 -158 379 -112 q 476 -242 379 -242 q 523 -235 499 -242 q 579 -214 547 -229 l 579 -251 q 528 -272 553 -265 q 478 -278 503 -278 m 404 33 q 612 134 533 33 q 690 511 690 235 q 612 893 690 792 q 404 994 533 994 q 197 894 275 994 q 118 517 118 793 q 197 135 118 236 q 404 33 275 33 z "},"Ø":{"ha":808,"x_min":68,"x_max":740,"o":"m 404 -12 q 159 106 250 -12 q 68 514 68 224 q 159 922 68 804 q 404 1040 250 1040 q 649 922 558 1040 q 740 514 740 804 q 649 106 740 224 q 404 -12 558 -12 m 404 33 q 612 134 533 33 q 690 511 690 235 q 612 893 690 792 q 404 994 533 994 q 197 894 275 994 q 118 517 118 793 q 197 135 118 236 q 404 33 275 33 m 113 -11 l 75 11 l 696 1039 l 733 1017 l 113 -11 z "},"Ǿ":{"ha":808,"x_min":68,"x_max":740,"o":"m 404 -12 q 159 106 250 -12 q 68 514 68 224 q 159 922 68 804 q 404 1040 250 1040 q 649 922 558 1040 q 740 514 740 804 q 649 106 740 224 q 404 -12 558 -12 m 404 33 q 612 134 533 33 q 690 511 690 235 q 612 893 690 792 q 404 994 533 994 q 197 894 275 994 q 118 517 118 793 q 197 135 118 236 q 404 33 275 33 m 113 -11 l 75 11 l 696 1039 l 733 1017 l 113 -11 m 386 1122 l 475 1311 l 525 1311 l 425 1122 l 386 1122 z "},"Õ":{"ha":808,"x_min":68,"x_max":740,"o":"m 404 -12 q 159 106 250 -12 q 68 514 68 224 q 159 922 68 804 q 404 1040 250 1040 q 649 922 558 1040 q 740 514 740 804 q 649 106 740 224 q 404 -12 558 -12 m 404 33 q 612 134 533 33 q 690 511 690 235 q 612 893 690 792 q 404 994 533 994 q 197 894 275 994 q 118 517 118 793 q 197 135 118 236 q 404 33 275 33 m 493 1178 q 400 1205 441 1178 q 315 1232 358 1232 q 264 1219 286 1232 q 222 1182 242 1207 l 222 1228 q 315 1271 256 1271 q 409 1244 367 1271 q 493 1217 450 1217 q 544 1229 522 1217 q 586 1267 567 1242 l 586 1221 q 493 1178 552 1178 z "},"Ṍ":{"ha":808,"x_min":68,"x_max":740,"o":"m 404 -12 q 159 106 250 -12 q 68 514 68 224 q 159 922 68 804 q 404 1040 250 1040 q 649 922 558 1040 q 740 514 740 804 q 649 106 740 224 q 404 -12 558 -12 m 404 33 q 612 134 533 33 q 690 511 690 235 q 612 893 690 792 q 404 994 533 994 q 197 894 275 994 q 118 517 118 793 q 197 135 118 236 q 404 33 275 33 m 385 1308 l 474 1469 l 524 1469 l 424 1308 l 385 1308 m 493 1178 q 400 1205 441 1178 q 315 1232 358 1232 q 264 1219 286 1232 q 222 1182 242 1207 l 222 1228 q 315 1271 256 1271 q 409 1244 367 1271 q 493 1217 450 1217 q 544 1229 522 1217 q 586 1267 567 1242 l 586 1221 q 493 1178 552 1178 z "},"Ṏ":{"ha":808,"x_min":68,"x_max":740,"o":"m 404 -12 q 159 106 250 -12 q 68 514 68 224 q 159 922 68 804 q 404 1040 250 1040 q 649 922 558 1040 q 740 514 740 804 q 649 106 740 224 q 404 -12 558 -12 m 404 33 q 612 134 533 33 q 690 511 690 235 q 612 893 690 792 q 404 994 533 994 q 197 894 275 994 q 118 517 118 793 q 197 135 118 236 q 404 33 275 33 z "},"Ȭ":{"ha":808,"x_min":68,"x_max":740,"o":"m 404 -12 q 159 106 250 -12 q 68 514 68 224 q 159 922 68 804 q 404 1040 250 1040 q 649 922 558 1040 q 740 514 740 804 q 649 106 740 224 q 404 -12 558 -12 m 404 33 q 612 134 533 33 q 690 511 690 235 q 612 893 690 792 q 404 994 533 994 q 197 894 275 994 q 118 517 118 793 q 197 135 118 236 q 404 33 275 33 z "},"Œ":{"ha":1151,"x_min":68,"x_max":1128,"o":"m 506 -7 q 181 115 294 -7 q 68 514 68 236 q 174 910 68 783 q 486 1038 280 1038 q 583 1033 543 1038 q 653 1028 622 1028 l 1121 1028 l 1121 982 l 672 982 l 672 46 l 1128 46 l 1128 0 l 657 0 q 593 -3 626 0 q 506 -7 560 -7 m 504 39 q 566 40 536 39 q 625 46 596 42 l 625 982 q 556 990 590 988 q 489 992 522 992 q 209 879 299 992 q 118 514 118 766 q 215 148 118 257 q 504 39 313 39 m 667 506 l 667 551 l 1058 551 l 1058 506 l 667 506 z "},"P":{"ha":732,"x_min":114,"x_max":668,"o":"m 114 0 l 114 1019 q 209 1032 158 1026 q 313 1038 260 1038 q 579 955 490 1038 q 668 697 668 872 q 575 446 668 532 q 283 360 482 360 q 222 361 251 360 q 161 365 192 363 l 161 0 l 114 0 m 288 406 q 538 476 457 406 q 618 694 618 547 q 543 921 618 851 q 313 992 469 992 q 235 989 273 992 q 161 981 197 986 l 161 413 q 224 407 192 408 q 288 406 256 406 z "},"Þ":{"ha":739,"x_min":114,"x_max":668,"o":"m 114 0 l 114 1028 l 161 1028 l 161 856 q 229 863 188 860 q 313 867 269 867 q 579 784 490 867 q 668 526 668 701 q 575 275 668 361 q 283 189 482 189 q 222 190 251 189 q 161 194 192 192 l 161 0 l 114 0 m 288 235 q 538 306 457 235 q 618 524 618 376 q 543 750 618 680 q 313 821 469 821 q 235 818 273 821 q 161 810 197 815 l 161 242 q 224 236 192 238 q 288 235 256 235 z "},"Q":{"ha":808,"x_min":68,"x_max":740,"o":"m 717 -125 q 405 -60 530 -101 q 205 53 279 -18 q 100 237 131 125 q 68 514 68 349 q 159 922 68 804 q 404 1040 250 1040 q 649 922 558 1040 q 740 514 740 804 q 698 205 740 327 q 570 30 656 83 q 356 -6 485 -24 l 342 15 q 525 -48 422 -26 q 725 -79 628 -69 l 717 -125 m 404 33 q 612 134 533 33 q 690 511 690 235 q 612 893 690 792 q 404 994 533 994 q 197 894 275 994 q 118 517 118 793 q 197 135 118 236 q 404 33 275 33 z "},"R":{"ha":779,"x_min":114,"x_max":750,"o":"m 114 0 l 114 1019 q 212 1032 161 1026 q 325 1038 263 1038 q 582 965 498 1038 q 667 750 667 893 q 571 527 669 602 q 282 453 474 453 q 214 454 242 453 q 161 457 186 455 l 161 0 l 114 0 m 694 0 l 347 485 l 401 485 l 750 0 l 694 0 m 278 497 q 539 559 458 497 q 619 749 619 621 q 550 932 619 872 q 321 992 481 992 q 238 989 275 992 q 161 979 201 985 l 161 501 q 222 498 197 499 q 278 497 247 497 z "},"Ŕ":{"ha":779,"x_min":114,"x_max":750,"o":"m 114 0 l 114 1019 q 212 1032 161 1026 q 325 1038 263 1038 q 582 965 498 1038 q 667 750 667 893 q 571 527 669 602 q 282 453 474 453 q 214 454 242 453 q 161 457 186 455 l 161 0 l 114 0 m 694 0 l 347 485 l 401 485 l 750 0 l 694 0 m 278 497 q 539 559 458 497 q 619 749 619 621 q 550 932 619 872 q 321 992 481 992 q 238 989 275 992 q 161 979 201 985 l 161 501 q 222 498 197 499 q 278 497 247 497 m 346 1122 l 435 1311 l 485 1311 l 385 1122 l 346 1122 z "},"Ř":{"ha":779,"x_min":114,"x_max":750,"o":"m 114 0 l 114 1019 q 212 1032 161 1026 q 325 1038 263 1038 q 582 965 498 1038 q 667 750 667 893 q 571 527 669 602 q 282 453 474 453 q 214 454 242 453 q 161 457 186 455 l 161 0 l 114 0 m 694 0 l 347 485 l 401 485 l 750 0 l 694 0 m 278 497 q 539 559 458 497 q 619 749 619 621 q 550 932 619 872 q 321 992 481 992 q 238 989 275 992 q 161 979 201 985 l 161 501 q 222 498 197 499 q 278 497 247 497 m 339 1122 l 203 1311 l 251 1311 l 371 1143 l 360 1143 l 479 1311 l 528 1311 l 392 1122 l 339 1122 z "},"Ŗ":{"ha":779,"x_min":114,"x_max":750,"o":"m 114 0 l 114 1019 q 212 1032 161 1026 q 325 1038 263 1038 q 582 965 498 1038 q 667 750 667 893 q 571 527 669 602 q 282 453 474 453 q 214 454 242 453 q 161 457 186 455 l 161 0 l 114 0 m 694 0 l 347 485 l 401 485 l 750 0 l 694 0 m 278 497 q 539 559 458 497 q 619 749 619 621 q 550 932 619 872 q 321 992 481 992 q 238 989 275 992 q 161 979 201 985 l 161 501 q 222 498 197 499 q 278 497 247 497 m 396 -311 q 415 -246 410 -274 q 419 -193 419 -218 l 422 -215 l 414 -215 q 383 -203 395 -215 q 371 -171 371 -190 q 411 -128 371 -128 q 444 -142 432 -128 q 457 -187 457 -157 q 449 -246 457 -212 q 426 -311 442 -279 l 396 -311 z "},"Ȑ":{"ha":779,"x_min":114,"x_max":750,"o":"m 114 0 l 114 1019 q 212 1032 161 1026 q 325 1038 263 1038 q 582 965 498 1038 q 667 750 667 893 q 571 527 669 602 q 282 453 474 453 q 214 454 242 453 q 161 457 186 455 l 161 0 l 114 0 m 694 0 l 347 485 l 401 485 l 750 0 l 694 0 m 278 497 q 539 559 458 497 q 619 749 619 621 q 550 932 619 872 q 321 992 481 992 q 238 989 275 992 q 161 979 201 985 l 161 501 q 222 498 197 499 q 278 497 247 497 m 435 1122 l 368 1311 l 413 1311 l 472 1122 l 435 1122 m 258 1122 l 192 1311 l 236 1311 l 296 1122 l 258 1122 z "},"Ṛ":{"ha":779,"x_min":114,"x_max":750,"o":"m 114 0 l 114 1019 q 212 1032 161 1026 q 325 1038 263 1038 q 582 965 498 1038 q 667 750 667 893 q 571 527 669 602 q 282 453 474 453 q 214 454 242 453 q 161 457 186 455 l 161 0 l 114 0 m 694 0 l 347 485 l 401 485 l 750 0 l 694 0 m 278 497 q 539 559 458 497 q 619 749 619 621 q 550 932 619 872 q 321 992 481 992 q 238 989 275 992 q 161 979 201 985 l 161 501 q 222 498 197 499 q 278 497 247 497 m 414 -215 q 383 -203 395 -215 q 371 -172 371 -192 q 383 -140 371 -153 q 414 -128 395 -128 q 445 -140 433 -128 q 457 -172 457 -153 q 445 -203 457 -192 q 414 -215 433 -215 z "},"Ȓ":{"ha":779,"x_min":114,"x_max":750,"o":"m 114 0 l 114 1019 q 212 1032 161 1026 q 325 1038 263 1038 q 582 965 498 1038 q 667 750 667 893 q 571 527 669 602 q 282 453 474 453 q 214 454 242 453 q 161 457 186 455 l 161 0 l 114 0 m 694 0 l 347 485 l 401 485 l 750 0 l 694 0 m 278 497 q 539 559 458 497 q 619 749 619 621 q 550 932 619 872 q 321 992 481 992 q 238 989 275 992 q 161 979 201 985 l 161 501 q 222 498 197 499 q 278 497 247 497 m 197 1142 q 245 1263 203 1223 q 364 1303 288 1303 q 484 1263 440 1303 q 533 1142 528 1222 l 494 1142 q 457 1234 488 1206 q 364 1263 426 1263 q 272 1234 301 1263 q 236 1142 242 1206 l 197 1142 z "},"Ṟ":{"ha":779,"x_min":114,"x_max":750,"o":"m 114 0 l 114 1019 q 212 1032 161 1026 q 325 1038 263 1038 q 582 965 498 1038 q 667 750 667 893 q 571 527 669 602 q 282 453 474 453 q 214 454 242 453 q 161 457 186 455 l 161 0 l 114 0 m 694 0 l 347 485 l 401 485 l 750 0 l 694 0 m 278 497 q 539 559 458 497 q 619 749 619 621 q 550 932 619 872 q 321 992 481 992 q 238 989 275 992 q 161 979 201 985 l 161 501 q 222 498 197 499 q 278 497 247 497 m 247 -192 l 247 -151 l 581 -151 l 581 -192 l 247 -192 z "},"S":{"ha":601,"x_min":47,"x_max":554,"o":"m 253 -12 q 157 -4 209 -12 q 57 22 106 4 l 57 69 q 160 42 111 51 q 257 33 210 33 q 441 90 378 33 q 504 258 504 146 q 457 406 504 354 q 303 494 410 457 l 267 507 q 103 608 160 544 q 47 778 47 672 q 124 970 47 901 q 346 1040 200 1040 q 434 1034 386 1040 q 517 1015 481 1028 l 517 968 q 430 989 472 983 q 343 994 387 994 q 158 939 219 994 q 97 781 97 883 q 142 638 97 689 q 292 551 188 588 l 328 539 q 497 434 439 500 q 554 261 554 368 q 476 58 554 129 q 253 -12 397 -12 z "},"Ś":{"ha":601,"x_min":47,"x_max":554,"o":"m 253 -12 q 157 -4 209 -12 q 57 22 106 4 l 57 69 q 160 42 111 51 q 257 33 210 33 q 441 90 378 33 q 504 258 504 146 q 457 406 504 354 q 303 494 410 457 l 267 507 q 103 608 160 544 q 47 778 47 672 q 124 970 47 901 q 346 1040 200 1040 q 434 1034 386 1040 q 517 1015 481 1028 l 517 968 q 430 989 472 983 q 343 994 387 994 q 158 939 219 994 q 97 781 97 883 q 142 638 97 689 q 292 551 188 588 l 328 539 q 497 434 439 500 q 554 261 554 368 q 476 58 554 129 q 253 -12 397 -12 m 286 1122 l 375 1311 l 425 1311 l 325 1122 l 286 1122 z "},"Ṥ":{"ha":601,"x_min":47,"x_max":554,"o":"m 253 -12 q 157 -4 209 -12 q 57 22 106 4 l 57 69 q 160 42 111 51 q 257 33 210 33 q 441 90 378 33 q 504 258 504 146 q 457 406 504 354 q 303 494 410 457 l 267 507 q 103 608 160 544 q 47 778 47 672 q 124 970 47 901 q 346 1040 200 1040 q 434 1034 386 1040 q 517 1015 481 1028 l 517 968 q 430 989 472 983 q 343 994 387 994 q 158 939 219 994 q 97 781 97 883 q 142 638 97 689 q 292 551 188 588 l 328 539 q 497 434 439 500 q 554 261 554 368 q 476 58 554 129 q 253 -12 397 -12 m 278 1283 q 247 1295 259 1283 q 235 1326 235 1307 q 247 1358 235 1346 q 278 1371 259 1371 q 309 1358 297 1371 q 321 1326 321 1346 q 309 1295 321 1307 q 278 1283 297 1283 m 286 1122 l 375 1311 l 425 1311 l 325 1122 l 286 1122 z "},"Š":{"ha":601,"x_min":47,"x_max":554,"o":"m 253 -12 q 157 -4 209 -12 q 57 22 106 4 l 57 69 q 160 42 111 51 q 257 33 210 33 q 441 90 378 33 q 504 258 504 146 q 457 406 504 354 q 303 494 410 457 l 267 507 q 103 608 160 544 q 47 778 47 672 q 124 970 47 901 q 346 1040 200 1040 q 434 1034 386 1040 q 517 1015 481 1028 l 517 968 q 430 989 472 983 q 343 994 387 994 q 158 939 219 994 q 97 781 97 883 q 142 638 97 689 q 292 551 188 588 l 328 539 q 497 434 439 500 q 554 261 554 368 q 476 58 554 129 q 253 -12 397 -12 m 279 1122 l 143 1311 l 192 1311 l 311 1143 l 300 1143 l 419 1311 l 468 1311 l 332 1122 l 279 1122 z "},"Ṧ":{"ha":601,"x_min":47,"x_max":554,"o":"m 253 -12 q 157 -4 209 -12 q 57 22 106 4 l 57 69 q 160 42 111 51 q 257 33 210 33 q 441 90 378 33 q 504 258 504 146 q 457 406 504 354 q 303 494 410 457 l 267 507 q 103 608 160 544 q 47 778 47 672 q 124 970 47 901 q 346 1040 200 1040 q 434 1034 386 1040 q 517 1015 481 1028 l 517 968 q 430 989 472 983 q 343 994 387 994 q 158 939 219 994 q 97 781 97 883 q 142 638 97 689 q 292 551 188 588 l 328 539 q 497 434 439 500 q 554 261 554 368 q 476 58 554 129 q 253 -12 397 -12 m 306 1311 q 275 1323 287 1311 q 263 1354 263 1335 q 275 1386 263 1374 q 306 1399 287 1399 q 336 1386 324 1399 q 349 1354 349 1374 q 336 1323 349 1335 q 306 1311 324 1311 m 279 1122 l 143 1311 l 192 1311 l 311 1143 l 300 1143 l 419 1311 l 468 1311 l 332 1122 l 279 1122 z "},"Ş":{"ha":601,"x_min":47,"x_max":554,"o":"m 253 -12 q 157 -4 209 -12 q 57 22 106 4 l 57 69 q 160 42 111 51 q 257 33 210 33 q 441 90 378 33 q 504 258 504 146 q 457 406 504 354 q 303 494 410 457 l 267 507 q 103 608 160 544 q 47 778 47 672 q 124 970 47 901 q 346 1040 200 1040 q 434 1034 386 1040 q 517 1015 481 1028 l 517 968 q 430 989 472 983 q 343 994 387 994 q 158 939 219 994 q 97 781 97 883 q 142 638 97 689 q 292 551 188 588 l 328 539 q 497 434 439 500 q 554 261 554 368 q 476 58 554 129 q 253 -12 397 -12 m 314 -278 q 253 -272 285 -278 q 194 -251 222 -265 l 194 -212 q 259 -235 231 -229 q 314 -242 287 -242 q 397 -178 397 -242 q 313 -114 397 -114 l 286 -114 l 286 14 l 325 14 l 325 -99 l 314 -78 q 401 -103 367 -78 q 436 -178 436 -129 q 401 -252 436 -226 q 314 -278 367 -278 z "},"Ŝ":{"ha":601,"x_min":47,"x_max":554,"o":"m 253 -12 q 157 -4 209 -12 q 57 22 106 4 l 57 69 q 160 42 111 51 q 257 33 210 33 q 441 90 378 33 q 504 258 504 146 q 457 406 504 354 q 303 494 410 457 l 267 507 q 103 608 160 544 q 47 778 47 672 q 124 970 47 901 q 346 1040 200 1040 q 434 1034 386 1040 q 517 1015 481 1028 l 517 968 q 430 989 472 983 q 343 994 387 994 q 158 939 219 994 q 97 781 97 883 q 142 638 97 689 q 292 551 188 588 l 328 539 q 497 434 439 500 q 554 261 554 368 q 476 58 554 129 q 253 -12 397 -12 m 143 1122 l 279 1311 l 332 1311 l 468 1122 l 419 1122 l 300 1290 l 311 1290 l 192 1122 l 143 1122 z "},"Ș":{"ha":601,"x_min":47,"x_max":554,"o":"m 253 -12 q 157 -4 209 -12 q 57 22 106 4 l 57 69 q 160 42 111 51 q 257 33 210 33 q 441 90 378 33 q 504 258 504 146 q 457 406 504 354 q 303 494 410 457 l 267 507 q 103 608 160 544 q 47 778 47 672 q 124 970 47 901 q 346 1040 200 1040 q 434 1034 386 1040 q 517 1015 481 1028 l 517 968 q 430 989 472 983 q 343 994 387 994 q 158 939 219 994 q 97 781 97 883 q 142 638 97 689 q 292 551 188 588 l 328 539 q 497 434 439 500 q 554 261 554 368 q 476 58 554 129 q 253 -12 397 -12 m 288 -311 q 307 -246 302 -274 q 311 -193 311 -218 l 314 -215 l 306 -215 q 275 -203 287 -215 q 263 -171 263 -190 q 303 -128 263 -128 q 336 -142 324 -128 q 349 -187 349 -157 q 341 -246 349 -212 q 318 -311 333 -279 l 288 -311 z "},"Ṡ":{"ha":601,"x_min":47,"x_max":554,"o":"m 253 -12 q 157 -4 209 -12 q 57 22 106 4 l 57 69 q 160 42 111 51 q 257 33 210 33 q 441 90 378 33 q 504 258 504 146 q 457 406 504 354 q 303 494 410 457 l 267 507 q 103 608 160 544 q 47 778 47 672 q 124 970 47 901 q 346 1040 200 1040 q 434 1034 386 1040 q 517 1015 481 1028 l 517 968 q 430 989 472 983 q 343 994 387 994 q 158 939 219 994 q 97 781 97 883 q 142 638 97 689 q 292 551 188 588 l 328 539 q 497 434 439 500 q 554 261 554 368 q 476 58 554 129 q 253 -12 397 -12 m 306 1174 q 275 1185 287 1174 q 263 1217 263 1197 q 275 1249 263 1236 q 306 1261 287 1261 q 336 1249 324 1261 q 349 1217 349 1236 q 336 1185 349 1197 q 306 1174 324 1174 z "},"Ṣ":{"ha":601,"x_min":47,"x_max":554,"o":"m 253 -12 q 157 -4 209 -12 q 57 22 106 4 l 57 69 q 160 42 111 51 q 257 33 210 33 q 441 90 378 33 q 504 258 504 146 q 457 406 504 354 q 303 494 410 457 l 267 507 q 103 608 160 544 q 47 778 47 672 q 124 970 47 901 q 346 1040 200 1040 q 434 1034 386 1040 q 517 1015 481 1028 l 517 968 q 430 989 472 983 q 343 994 387 994 q 158 939 219 994 q 97 781 97 883 q 142 638 97 689 q 292 551 188 588 l 328 539 q 497 434 439 500 q 554 261 554 368 q 476 58 554 129 q 253 -12 397 -12 m 306 -215 q 275 -203 287 -215 q 263 -172 263 -192 q 275 -140 263 -153 q 306 -128 287 -128 q 336 -140 324 -128 q 349 -172 349 -153 q 336 -203 349 -192 q 306 -215 324 -215 z "},"Ṩ":{"ha":601,"x_min":47,"x_max":554,"o":"m 253 -12 q 157 -4 209 -12 q 57 22 106 4 l 57 69 q 160 42 111 51 q 257 33 210 33 q 441 90 378 33 q 504 258 504 146 q 457 406 504 354 q 303 494 410 457 l 267 507 q 103 608 160 544 q 47 778 47 672 q 124 970 47 901 q 346 1040 200 1040 q 434 1034 386 1040 q 517 1015 481 1028 l 517 968 q 430 989 472 983 q 343 994 387 994 q 158 939 219 994 q 97 781 97 883 q 142 638 97 689 q 292 551 188 588 l 328 539 q 497 434 439 500 q 554 261 554 368 q 476 58 554 129 q 253 -12 397 -12 m 306 -215 q 275 -203 287 -215 q 263 -172 263 -192 q 275 -140 263 -153 q 306 -128 287 -128 q 336 -140 324 -128 q 349 -172 349 -153 q 336 -203 349 -192 q 306 -215 324 -215 m 306 1174 q 275 1185 287 1174 q 263 1217 263 1197 q 275 1249 263 1236 q 306 1261 287 1261 q 336 1249 324 1261 q 349 1217 349 1236 q 336 1185 349 1197 q 306 1174 324 1174 z "},"ẞ":{"ha":971,"x_min":114,"x_max":924,"o":"m 622 -12 q 527 -4 578 -12 q 426 22 475 4 l 426 69 q 530 42 481 51 q 626 33 579 33 q 810 90 747 33 q 874 258 874 146 q 826 406 874 354 q 672 494 779 457 l 636 507 q 473 608 529 544 q 417 778 417 672 q 493 970 417 901 q 715 1040 569 1040 q 803 1034 756 1040 q 886 1015 851 1028 l 886 968 q 799 989 842 983 q 713 994 756 994 q 528 939 589 994 q 467 781 467 883 q 512 638 467 689 q 661 551 557 588 l 697 539 q 866 434 808 500 q 924 261 924 368 q 845 58 924 129 q 622 -12 767 -12 m 114 0 l 114 686 q 187 953 114 867 q 422 1040 260 1040 q 510 1032 469 1040 q 582 1008 550 1024 l 536 978 q 483 990 511 986 q 422 994 454 994 q 222 920 282 994 q 161 693 161 845 l 161 0 l 114 0 z "},"Ə":{"ha":810,"x_min":61,"x_max":742,"o":"m 397 -12 q 150 106 239 -12 q 61 514 61 225 l 61 542 l 711 542 l 711 496 l 94 496 l 111 514 q 186 135 111 236 q 397 33 262 33 q 612 134 533 33 q 692 513 692 235 q 604 894 692 794 q 332 994 517 994 q 223 988 281 994 q 108 965 165 982 l 108 1013 q 221 1034 165 1027 q 336 1040 276 1040 q 637 924 532 1040 q 742 514 742 807 q 649 106 742 224 q 397 -12 556 -12 z "},"T":{"ha":681,"x_min":6,"x_max":675,"o":"m 317 0 l 317 982 l 6 982 l 6 1028 l 675 1028 l 675 982 l 364 982 l 364 0 l 317 0 z "},"Ŧ":{"ha":681,"x_min":6,"x_max":675,"o":"m 317 0 l 317 982 l 6 982 l 6 1028 l 675 1028 l 675 982 l 364 982 l 364 0 l 317 0 m 110 535 l 110 576 l 571 576 l 571 535 l 110 535 z "},"Ť":{"ha":681,"x_min":6,"x_max":675,"o":"m 317 0 l 317 982 l 6 982 l 6 1028 l 675 1028 l 675 982 l 364 982 l 364 0 l 317 0 m 314 1122 l 178 1311 l 226 1311 l 346 1143 l 335 1143 l 454 1311 l 503 1311 l 367 1122 l 314 1122 z "},"Ţ":{"ha":681,"x_min":6,"x_max":675,"o":"m 317 0 l 317 982 l 6 982 l 6 1028 l 675 1028 l 675 982 l 364 982 l 364 0 l 317 0 m 349 -278 q 288 -272 319 -278 q 229 -251 257 -265 l 229 -212 q 293 -235 265 -229 q 349 -242 322 -242 q 432 -178 432 -242 q 347 -114 432 -114 l 321 -114 l 321 14 l 360 14 l 360 -99 l 349 -78 q 436 -103 401 -78 q 471 -178 471 -129 q 436 -252 471 -226 q 349 -278 401 -278 z "},"Ț":{"ha":681,"x_min":6,"x_max":675,"o":"m 317 0 l 317 982 l 6 982 l 6 1028 l 675 1028 l 675 982 l 364 982 l 364 0 l 317 0 m 322 -311 q 341 -246 337 -274 q 346 -193 346 -218 l 349 -215 l 340 -215 q 309 -203 322 -215 q 297 -171 297 -190 q 338 -128 297 -128 q 371 -142 358 -128 q 383 -187 383 -157 q 376 -246 383 -212 q 353 -311 368 -279 l 322 -311 z "},"Ṭ":{"ha":681,"x_min":6,"x_max":675,"o":"m 317 0 l 317 982 l 6 982 l 6 1028 l 675 1028 l 675 982 l 364 982 l 364 0 l 317 0 m 340 -215 q 309 -203 322 -215 q 297 -172 297 -192 q 309 -140 297 -153 q 340 -128 322 -128 q 371 -140 359 -128 q 383 -172 383 -153 q 371 -203 383 -192 q 340 -215 359 -215 z "},"Ṯ":{"ha":681,"x_min":6,"x_max":675,"o":"m 317 0 l 317 982 l 6 982 l 6 1028 l 675 1028 l 675 982 l 364 982 l 364 0 l 317 0 m 174 -192 l 174 -151 l 507 -151 l 507 -192 l 174 -192 z "},"U":{"ha":832,"x_min":108,"x_max":724,"o":"m 417 -12 q 181 74 254 -12 q 108 342 108 161 l 108 1028 l 156 1028 l 156 335 q 216 108 156 183 q 417 33 276 33 q 617 108 557 33 q 678 335 678 183 l 678 1028 l 724 1028 l 724 342 q 651 74 724 161 q 417 -12 579 -12 z "},"Ú":{"ha":832,"x_min":108,"x_max":724,"o":"m 417 -12 q 181 74 254 -12 q 108 342 108 161 l 108 1028 l 156 1028 l 156 335 q 216 108 156 183 q 417 33 276 33 q 617 108 557 33 q 678 335 678 183 l 678 1028 l 724 1028 l 724 342 q 651 74 724 161 q 417 -12 579 -12 m 397 1122 l 486 1311 l 536 1311 l 436 1122 l 397 1122 z "},"Ŭ":{"ha":832,"x_min":108,"x_max":724,"o":"m 417 -12 q 181 74 254 -12 q 108 342 108 161 l 108 1028 l 156 1028 l 156 335 q 216 108 156 183 q 417 33 276 33 q 617 108 557 33 q 678 335 678 183 l 678 1028 l 724 1028 l 724 342 q 651 74 724 161 q 417 -12 579 -12 m 418 1131 q 298 1171 342 1131 q 249 1292 254 1211 l 288 1292 q 325 1199 294 1227 q 418 1171 356 1171 q 510 1199 481 1171 q 546 1292 540 1227 l 585 1292 q 537 1170 579 1210 q 418 1131 494 1131 z "},"Û":{"ha":832,"x_min":108,"x_max":724,"o":"m 417 -12 q 181 74 254 -12 q 108 342 108 161 l 108 1028 l 156 1028 l 156 335 q 216 108 156 183 q 417 33 276 33 q 617 108 557 33 q 678 335 678 183 l 678 1028 l 724 1028 l 724 342 q 651 74 724 161 q 417 -12 579 -12 m 254 1122 l 390 1311 l 443 1311 l 579 1122 l 531 1122 l 411 1290 l 422 1290 l 303 1122 l 254 1122 z "},"Ȕ":{"ha":832,"x_min":108,"x_max":724,"o":"m 417 -12 q 181 74 254 -12 q 108 342 108 161 l 108 1028 l 156 1028 l 156 335 q 216 108 156 183 q 417 33 276 33 q 617 108 557 33 q 678 335 678 183 l 678 1028 l 724 1028 l 724 342 q 651 74 724 161 q 417 -12 579 -12 m 486 1122 l 419 1311 l 464 1311 l 524 1122 l 486 1122 m 310 1122 l 243 1311 l 288 1311 l 347 1122 l 310 1122 z "},"Ü":{"ha":832,"x_min":108,"x_max":724,"o":"m 417 -12 q 181 74 254 -12 q 108 342 108 161 l 108 1028 l 156 1028 l 156 335 q 216 108 156 183 q 417 33 276 33 q 617 108 557 33 q 678 335 678 183 l 678 1028 l 724 1028 l 724 342 q 651 74 724 161 q 417 -12 579 -12 m 542 1174 q 499 1217 499 1174 q 542 1261 499 1261 q 585 1217 585 1261 q 542 1174 585 1174 m 292 1174 q 249 1217 249 1174 q 292 1261 249 1261 q 335 1217 335 1261 q 292 1174 335 1174 z "},"Ụ":{"ha":832,"x_min":108,"x_max":724,"o":"m 417 -12 q 181 74 254 -12 q 108 342 108 161 l 108 1028 l 156 1028 l 156 335 q 216 108 156 183 q 417 33 276 33 q 617 108 557 33 q 678 335 678 183 l 678 1028 l 724 1028 l 724 342 q 651 74 724 161 q 417 -12 579 -12 m 417 -215 q 386 -203 398 -215 q 374 -172 374 -192 q 386 -140 374 -153 q 417 -128 398 -128 q 448 -140 435 -128 q 460 -172 460 -153 q 448 -203 460 -192 q 417 -215 435 -215 z "},"Ù":{"ha":832,"x_min":108,"x_max":724,"o":"m 417 -12 q 181 74 254 -12 q 108 342 108 161 l 108 1028 l 156 1028 l 156 335 q 216 108 156 183 q 417 33 276 33 q 617 108 557 33 q 678 335 678 183 l 678 1028 l 724 1028 l 724 342 q 651 74 724 161 q 417 -12 579 -12 m 397 1122 l 297 1311 l 347 1311 l 436 1122 l 397 1122 z "},"Ủ":{"ha":832,"x_min":108,"x_max":724,"o":"m 417 -12 q 181 74 254 -12 q 108 342 108 161 l 108 1028 l 156 1028 l 156 335 q 216 108 156 183 q 417 33 276 33 q 617 108 557 33 q 678 335 678 183 l 678 1028 l 724 1028 l 724 342 q 651 74 724 161 q 417 -12 579 -12 m 396 1122 q 424 1176 398 1161 q 476 1201 450 1191 q 501 1238 501 1212 q 486 1263 501 1253 q 424 1274 471 1274 q 363 1267 394 1274 q 300 1247 331 1261 l 300 1286 q 357 1304 324 1297 q 424 1311 390 1311 q 514 1290 484 1311 q 543 1239 543 1269 q 518 1187 543 1201 q 466 1161 492 1172 q 438 1122 440 1149 l 396 1122 z "},"Ư":{"ha":832,"x_min":108,"x_max":869,"o":"m 417 -12 q 181 74 254 -12 q 108 342 108 161 l 108 1028 l 156 1028 l 156 335 q 216 108 156 183 q 417 33 276 33 q 617 108 557 33 q 678 335 678 183 l 678 1028 l 700 1028 q 788 1053 752 1028 q 824 1135 824 1078 q 819 1187 824 1164 q 807 1233 814 1210 l 853 1233 q 865 1187 861 1210 q 869 1133 869 1165 q 828 1025 869 1063 q 724 985 786 988 l 724 342 q 651 74 724 161 q 417 -12 579 -12 z "},"Ứ":{"ha":832,"x_min":108,"x_max":869,"o":"m 417 -12 q 181 74 254 -12 q 108 342 108 161 l 108 1028 l 156 1028 l 156 335 q 216 108 156 183 q 417 33 276 33 q 617 108 557 33 q 678 335 678 183 l 678 1028 l 700 1028 q 788 1053 752 1028 q 824 1135 824 1078 q 819 1187 824 1164 q 807 1233 814 1210 l 853 1233 q 865 1187 861 1210 q 869 1133 869 1165 q 828 1025 869 1063 q 724 985 786 988 l 724 342 q 651 74 724 161 q 417 -12 579 -12 m 397 1122 l 486 1311 l 536 1311 l 436 1122 l 397 1122 z "},"Ự":{"ha":832,"x_min":108,"x_max":869,"o":"m 417 -12 q 181 74 254 -12 q 108 342 108 161 l 108 1028 l 156 1028 l 156 335 q 216 108 156 183 q 417 33 276 33 q 617 108 557 33 q 678 335 678 183 l 678 1028 l 700 1028 q 788 1053 752 1028 q 824 1135 824 1078 q 819 1187 824 1164 q 807 1233 814 1210 l 853 1233 q 865 1187 861 1210 q 869 1133 869 1165 q 828 1025 869 1063 q 724 985 786 988 l 724 342 q 651 74 724 161 q 417 -12 579 -12 m 417 -215 q 386 -203 398 -215 q 374 -172 374 -192 q 386 -140 374 -153 q 417 -128 398 -128 q 448 -140 435 -128 q 460 -172 460 -153 q 448 -203 460 -192 q 417 -215 435 -215 z "},"Ừ":{"ha":832,"x_min":108,"x_max":869,"o":"m 417 -12 q 181 74 254 -12 q 108 342 108 161 l 108 1028 l 156 1028 l 156 335 q 216 108 156 183 q 417 33 276 33 q 617 108 557 33 q 678 335 678 183 l 678 1028 l 700 1028 q 788 1053 752 1028 q 824 1135 824 1078 q 819 1187 824 1164 q 807 1233 814 1210 l 853 1233 q 865 1187 861 1210 q 869 1133 869 1165 q 828 1025 869 1063 q 724 985 786 988 l 724 342 q 651 74 724 161 q 417 -12 579 -12 m 397 1122 l 297 1311 l 347 1311 l 436 1122 l 397 1122 z "},"Ử":{"ha":832,"x_min":108,"x_max":869,"o":"m 417 -12 q 181 74 254 -12 q 108 342 108 161 l 108 1028 l 156 1028 l 156 335 q 216 108 156 183 q 417 33 276 33 q 617 108 557 33 q 678 335 678 183 l 678 1028 l 700 1028 q 788 1053 752 1028 q 824 1135 824 1078 q 819 1187 824 1164 q 807 1233 814 1210 l 853 1233 q 865 1187 861 1210 q 869 1133 869 1165 q 828 1025 869 1063 q 724 985 786 988 l 724 342 q 651 74 724 161 q 417 -12 579 -12 m 396 1122 q 424 1176 398 1161 q 476 1201 450 1191 q 501 1238 501 1212 q 486 1263 501 1253 q 424 1274 471 1274 q 363 1267 394 1274 q 300 1247 331 1261 l 300 1286 q 357 1304 324 1297 q 424 1311 390 1311 q 514 1290 484 1311 q 543 1239 543 1269 q 518 1187 543 1201 q 466 1161 492 1172 q 438 1122 440 1149 l 396 1122 z "},"Ữ":{"ha":832,"x_min":108,"x_max":869,"o":"m 417 -12 q 181 74 254 -12 q 108 342 108 161 l 108 1028 l 156 1028 l 156 335 q 216 108 156 183 q 417 33 276 33 q 617 108 557 33 q 678 335 678 183 l 678 1028 l 700 1028 q 788 1053 752 1028 q 824 1135 824 1078 q 819 1187 824 1164 q 807 1233 814 1210 l 853 1233 q 865 1187 861 1210 q 869 1133 869 1165 q 828 1025 869 1063 q 724 985 786 988 l 724 342 q 651 74 724 161 q 417 -12 579 -12 m 506 1178 q 412 1205 453 1178 q 328 1232 371 1232 q 276 1219 299 1232 q 235 1182 254 1207 l 235 1228 q 328 1271 269 1271 q 421 1244 380 1271 q 506 1217 463 1217 q 557 1229 535 1217 q 599 1267 579 1242 l 599 1221 q 506 1178 565 1178 z "},"Ű":{"ha":832,"x_min":108,"x_max":724,"o":"m 417 -12 q 181 74 254 -12 q 108 342 108 161 l 108 1028 l 156 1028 l 156 335 q 216 108 156 183 q 417 33 276 33 q 617 108 557 33 q 678 335 678 183 l 678 1028 l 724 1028 l 724 342 q 651 74 724 161 q 417 -12 579 -12 m 486 1122 l 546 1311 l 590 1311 l 524 1122 l 486 1122 m 310 1122 l 369 1311 l 414 1311 l 347 1122 l 310 1122 z "},"Ȗ":{"ha":832,"x_min":108,"x_max":724,"o":"m 417 -12 q 181 74 254 -12 q 108 342 108 161 l 108 1028 l 156 1028 l 156 335 q 216 108 156 183 q 417 33 276 33 q 617 108 557 33 q 678 335 678 183 l 678 1028 l 724 1028 l 724 342 q 651 74 724 161 q 417 -12 579 -12 m 249 1142 q 297 1263 254 1223 q 415 1303 339 1303 q 535 1263 492 1303 q 585 1142 579 1222 l 546 1142 q 508 1234 539 1206 q 415 1263 478 1263 q 323 1234 353 1263 q 288 1142 293 1206 l 249 1142 z "},"Ū":{"ha":832,"x_min":108,"x_max":724,"o":"m 417 -12 q 181 74 254 -12 q 108 342 108 161 l 108 1028 l 156 1028 l 156 335 q 216 108 156 183 q 417 33 276 33 q 617 108 557 33 q 678 335 678 183 l 678 1028 l 724 1028 l 724 342 q 651 74 724 161 q 417 -12 579 -12 m 250 1197 l 250 1238 l 583 1238 l 583 1197 l 250 1197 z "},"Ṻ":{"ha":832,"x_min":108,"x_max":724,"o":"m 417 -12 q 181 74 254 -12 q 108 342 108 161 l 108 1028 l 156 1028 l 156 335 q 216 108 156 183 q 417 33 276 33 q 617 108 557 33 q 678 335 678 183 l 678 1028 l 724 1028 l 724 342 q 651 74 724 161 q 417 -12 579 -12 z "},"Ų":{"ha":832,"x_min":108,"x_max":724,"o":"m 475 -278 q 374 -248 410 -278 q 338 -161 338 -218 q 361 -75 338 -115 q 439 -3 385 -35 l 444 -12 l 417 -12 q 181 74 254 -12 q 108 342 108 161 l 108 1028 l 156 1028 l 156 335 q 216 108 156 183 q 417 33 276 33 q 617 108 557 33 q 678 335 678 183 l 678 1028 l 724 1028 l 724 342 q 685 128 724 217 q 542 4 647 39 q 408 -74 440 -29 q 376 -158 376 -118 q 474 -242 376 -242 q 520 -235 496 -242 q 576 -214 544 -229 l 576 -251 q 525 -272 550 -265 q 475 -278 500 -278 z "},"Ů":{"ha":832,"x_min":108,"x_max":724,"o":"m 417 -12 q 181 74 254 -12 q 108 342 108 161 l 108 1028 l 156 1028 l 156 335 q 216 108 156 183 q 417 33 276 33 q 617 108 557 33 q 678 335 678 183 l 678 1028 l 724 1028 l 724 342 q 651 74 724 161 q 417 -12 579 -12 m 417 1118 q 325 1154 361 1118 q 289 1246 289 1190 q 325 1338 289 1301 q 417 1374 361 1374 q 508 1338 472 1374 q 544 1246 544 1301 q 508 1154 544 1190 q 417 1118 472 1118 m 417 1154 q 507 1246 507 1154 q 417 1338 507 1338 q 326 1246 326 1338 q 417 1154 326 1154 z "},"Ũ":{"ha":832,"x_min":108,"x_max":724,"o":"m 417 -12 q 181 74 254 -12 q 108 342 108 161 l 108 1028 l 156 1028 l 156 335 q 216 108 156 183 q 417 33 276 33 q 617 108 557 33 q 678 335 678 183 l 678 1028 l 724 1028 l 724 342 q 651 74 724 161 q 417 -12 579 -12 m 506 1178 q 412 1205 453 1178 q 328 1232 371 1232 q 276 1219 299 1232 q 235 1182 254 1207 l 235 1228 q 328 1271 269 1271 q 421 1244 380 1271 q 506 1217 463 1217 q 557 1229 535 1217 q 599 1267 579 1242 l 599 1221 q 506 1178 565 1178 z "},"Ṹ":{"ha":832,"x_min":108,"x_max":724,"o":"m 417 -12 q 181 74 254 -12 q 108 342 108 161 l 108 1028 l 156 1028 l 156 335 q 216 108 156 183 q 417 33 276 33 q 617 108 557 33 q 678 335 678 183 l 678 1028 l 724 1028 l 724 342 q 651 74 724 161 q 417 -12 579 -12 m 397 1308 l 486 1469 l 536 1469 l 436 1308 l 397 1308 m 506 1178 q 412 1205 453 1178 q 328 1232 371 1232 q 276 1219 299 1232 q 235 1182 254 1207 l 235 1228 q 328 1271 269 1271 q 421 1244 380 1271 q 506 1217 463 1217 q 557 1229 535 1217 q 599 1267 579 1242 l 599 1221 q 506 1178 565 1178 z "},"V":{"ha":763,"x_min":7,"x_max":756,"o":"m 349 0 l 7 1028 l 58 1028 l 388 28 l 376 28 l 707 1028 l 756 1028 l 414 0 l 349 0 z "},"W":{"ha":1231,"x_min":39,"x_max":1192,"o":"m 301 0 l 39 1028 l 89 1028 l 340 28 l 329 28 l 583 1028 l 649 1028 l 903 28 l 892 28 l 1144 1028 l 1192 1028 l 929 0 l 864 0 l 611 993 l 621 993 l 367 0 l 301 0 z "},"Ẃ":{"ha":1231,"x_min":39,"x_max":1192,"o":"m 301 0 l 39 1028 l 89 1028 l 340 28 l 329 28 l 583 1028 l 649 1028 l 903 28 l 892 28 l 1144 1028 l 1192 1028 l 929 0 l 864 0 l 611 993 l 621 993 l 367 0 l 301 0 m 597 1122 l 686 1311 l 736 1311 l 636 1122 l 597 1122 z "},"Ŵ":{"ha":1231,"x_min":39,"x_max":1192,"o":"m 301 0 l 39 1028 l 89 1028 l 340 28 l 329 28 l 583 1028 l 649 1028 l 903 28 l 892 28 l 1144 1028 l 1192 1028 l 929 0 l 864 0 l 611 993 l 621 993 l 367 0 l 301 0 m 454 1122 l 590 1311 l 643 1311 l 779 1122 l 731 1122 l 611 1290 l 622 1290 l 503 1122 l 454 1122 z "},"Ẅ":{"ha":1231,"x_min":39,"x_max":1192,"o":"m 301 0 l 39 1028 l 89 1028 l 340 28 l 329 28 l 583 1028 l 649 1028 l 903 28 l 892 28 l 1144 1028 l 1192 1028 l 929 0 l 864 0 l 611 993 l 621 993 l 367 0 l 301 0 m 742 1174 q 699 1217 699 1174 q 742 1261 699 1261 q 785 1217 785 1261 q 742 1174 785 1174 m 492 1174 q 449 1217 449 1174 q 492 1261 449 1261 q 535 1217 535 1261 q 492 1174 535 1174 z "},"Ẁ":{"ha":1231,"x_min":39,"x_max":1192,"o":"m 301 0 l 39 1028 l 89 1028 l 340 28 l 329 28 l 583 1028 l 649 1028 l 903 28 l 892 28 l 1144 1028 l 1192 1028 l 929 0 l 864 0 l 611 993 l 621 993 l 367 0 l 301 0 m 597 1122 l 497 1311 l 547 1311 l 636 1122 l 597 1122 z "},"X":{"ha":747,"x_min":22,"x_max":725,"o":"m 668 0 l 374 475 l 346 519 l 29 1028 l 85 1028 l 374 563 l 401 519 l 725 0 l 668 0 m 22 0 l 346 519 l 374 563 l 663 1028 l 718 1028 l 401 519 l 374 475 l 78 0 l 22 0 z "},"Y":{"ha":681,"x_min":-15,"x_max":690,"o":"m 317 0 l 317 492 l 328 453 l -15 1028 l 39 1028 l 350 503 l 331 503 l 638 1028 l 690 1028 l 353 453 l 364 492 l 364 0 l 317 0 z "},"Ý":{"ha":681,"x_min":-15,"x_max":690,"o":"m 317 0 l 317 492 l 328 453 l -15 1028 l 39 1028 l 350 503 l 331 503 l 638 1028 l 690 1028 l 353 453 l 364 492 l 364 0 l 317 0 m 321 1122 l 410 1311 l 460 1311 l 360 1122 l 321 1122 z "},"Ŷ":{"ha":681,"x_min":-15,"x_max":690,"o":"m 317 0 l 317 492 l 328 453 l -15 1028 l 39 1028 l 350 503 l 331 503 l 638 1028 l 690 1028 l 353 453 l 364 492 l 364 0 l 317 0 m 178 1122 l 314 1311 l 367 1311 l 503 1122 l 454 1122 l 335 1290 l 346 1290 l 226 1122 l 178 1122 z "},"Ÿ":{"ha":681,"x_min":-15,"x_max":690,"o":"m 317 0 l 317 492 l 328 453 l -15 1028 l 39 1028 l 350 503 l 331 503 l 638 1028 l 690 1028 l 353 453 l 364 492 l 364 0 l 317 0 m 465 1174 q 422 1217 422 1174 q 465 1261 422 1261 q 508 1217 508 1261 q 465 1174 508 1174 m 215 1174 q 172 1217 172 1174 q 215 1261 172 1261 q 258 1217 258 1261 q 215 1174 258 1174 z "},"Ẏ":{"ha":681,"x_min":-15,"x_max":690,"o":"m 317 0 l 317 492 l 328 453 l -15 1028 l 39 1028 l 350 503 l 331 503 l 638 1028 l 690 1028 l 353 453 l 364 492 l 364 0 l 317 0 m 340 1174 q 309 1185 322 1174 q 297 1217 297 1197 q 309 1249 297 1236 q 340 1261 322 1261 q 371 1249 359 1261 q 383 1217 383 1236 q 371 1185 383 1197 q 340 1174 359 1174 z "},"Ỵ":{"ha":681,"x_min":-15,"x_max":690,"o":"m 317 0 l 317 492 l 328 453 l -15 1028 l 39 1028 l 350 503 l 331 503 l 638 1028 l 690 1028 l 353 453 l 364 492 l 364 0 l 317 0 m 340 -215 q 309 -203 322 -215 q 297 -172 297 -192 q 309 -140 297 -153 q 340 -128 322 -128 q 371 -140 359 -128 q 383 -172 383 -153 q 371 -203 383 -192 q 340 -215 359 -215 z "},"Ỳ":{"ha":681,"x_min":-15,"x_max":690,"o":"m 317 0 l 317 492 l 328 453 l -15 1028 l 39 1028 l 350 503 l 331 503 l 638 1028 l 690 1028 l 353 453 l 364 492 l 364 0 l 317 0 m 321 1122 l 221 1311 l 271 1311 l 360 1122 l 321 1122 z "},"Ỷ":{"ha":681,"x_min":-15,"x_max":690,"o":"m 317 0 l 317 492 l 328 453 l -15 1028 l 39 1028 l 350 503 l 331 503 l 638 1028 l 690 1028 l 353 453 l 364 492 l 364 0 l 317 0 m 319 1122 q 348 1176 322 1161 q 399 1201 374 1191 q 425 1238 425 1212 q 410 1263 425 1253 q 347 1274 394 1274 q 286 1267 318 1274 q 224 1247 254 1261 l 224 1286 q 281 1304 247 1297 q 347 1311 314 1311 q 437 1290 408 1311 q 467 1239 467 1269 q 441 1187 467 1201 q 390 1161 416 1172 q 361 1122 364 1149 l 319 1122 z "},"Ȳ":{"ha":681,"x_min":-15,"x_max":690,"o":"m 317 0 l 317 492 l 328 453 l -15 1028 l 39 1028 l 350 503 l 331 503 l 638 1028 l 690 1028 l 353 453 l 364 492 l 364 0 l 317 0 m 174 1197 l 174 1238 l 507 1238 l 507 1197 l 174 1197 z "},"Ỹ":{"ha":681,"x_min":-15,"x_max":690,"o":"m 317 0 l 317 492 l 328 453 l -15 1028 l 39 1028 l 350 503 l 331 503 l 638 1028 l 690 1028 l 353 453 l 364 492 l 364 0 l 317 0 m 429 1178 q 336 1205 377 1178 q 251 1232 294 1232 q 200 1219 222 1232 q 158 1182 178 1207 l 158 1228 q 251 1271 192 1271 q 345 1244 303 1271 q 429 1217 386 1217 q 481 1229 458 1217 q 522 1267 503 1242 l 522 1221 q 429 1178 488 1178 z "},"Z":{"ha":660,"x_min":39,"x_max":621,"o":"m 39 0 l 39 28 l 563 1001 l 574 983 l 46 983 l 46 1028 l 614 1028 l 614 1000 l 90 26 l 79 44 l 621 44 l 621 0 l 39 0 z "},"Ź":{"ha":660,"x_min":39,"x_max":621,"o":"m 39 0 l 39 28 l 563 1001 l 574 983 l 46 983 l 46 1028 l 614 1028 l 614 1000 l 90 26 l 79 44 l 621 44 l 621 0 l 39 0 m 311 1122 l 400 1311 l 450 1311 l 350 1122 l 311 1122 z "},"Ž":{"ha":660,"x_min":39,"x_max":621,"o":"m 39 0 l 39 28 l 563 1001 l 574 983 l 46 983 l 46 1028 l 614 1028 l 614 1000 l 90 26 l 79 44 l 621 44 l 621 0 l 39 0 m 304 1122 l 168 1311 l 217 1311 l 336 1143 l 325 1143 l 444 1311 l 493 1311 l 357 1122 l 304 1122 z "},"Ż":{"ha":660,"x_min":39,"x_max":621,"o":"m 39 0 l 39 28 l 563 1001 l 574 983 l 46 983 l 46 1028 l 614 1028 l 614 1000 l 90 26 l 79 44 l 621 44 l 621 0 l 39 0 m 331 1174 q 300 1185 312 1174 q 288 1217 288 1197 q 300 1249 288 1236 q 331 1261 312 1261 q 361 1249 349 1261 q 374 1217 374 1236 q 361 1185 374 1197 q 331 1174 349 1174 z "},"Ẓ":{"ha":660,"x_min":39,"x_max":621,"o":"m 39 0 l 39 28 l 563 1001 l 574 983 l 46 983 l 46 1028 l 614 1028 l 614 1000 l 90 26 l 79 44 l 621 44 l 621 0 l 39 0 m 331 -215 q 300 -203 312 -215 q 288 -172 288 -192 q 300 -140 288 -153 q 331 -128 312 -128 q 361 -140 349 -128 q 374 -172 374 -153 q 361 -203 374 -192 q 331 -215 349 -215 z "},"a":{"ha":592,"x_min":57,"x_max":499,"o":"m 254 -11 q 112 39 167 -11 q 57 185 57 89 q 113 334 57 281 q 285 400 169 388 l 476 422 l 483 376 l 283 354 q 151 304 193 344 q 108 190 108 263 q 258 35 108 35 q 359 60 306 35 q 451 154 411 85 l 451 525 q 404 676 451 638 q 269 715 357 715 q 188 708 233 715 q 94 683 142 700 l 94 731 q 181 753 132 745 q 271 761 229 761 q 440 710 381 761 q 499 524 499 658 l 499 0 l 457 0 l 453 85 l 447 85 q 363 13 413 37 q 254 -11 314 -11 z "},"á":{"ha":592,"x_min":57,"x_max":499,"o":"m 254 -11 q 112 39 167 -11 q 57 185 57 89 q 113 334 57 281 q 285 400 169 388 l 476 422 l 483 376 l 283 354 q 151 304 193 344 q 108 190 108 263 q 258 35 108 35 q 359 60 306 35 q 451 154 411 85 l 451 525 q 404 676 451 638 q 269 715 357 715 q 188 708 233 715 q 94 683 142 700 l 94 731 q 181 753 132 745 q 271 761 229 761 q 440 710 381 761 q 499 524 499 658 l 499 0 l 457 0 l 453 85 l 447 85 q 363 13 413 37 q 254 -11 314 -11 m 272 878 l 375 1122 l 425 1122 l 311 878 l 272 878 z "},"ă":{"ha":592,"x_min":57,"x_max":499,"o":"m 254 -11 q 112 39 167 -11 q 57 185 57 89 q 113 334 57 281 q 285 400 169 388 l 476 422 l 483 376 l 283 354 q 151 304 193 344 q 108 190 108 263 q 258 35 108 35 q 359 60 306 35 q 451 154 411 85 l 451 525 q 404 676 451 638 q 269 715 357 715 q 188 708 233 715 q 94 683 142 700 l 94 731 q 181 753 132 745 q 271 761 229 761 q 440 710 381 761 q 499 524 499 658 l 499 0 l 457 0 l 453 85 l 447 85 q 363 13 413 37 q 254 -11 314 -11 m 293 886 q 183 939 225 886 q 138 1103 140 992 l 176 1103 q 211 966 182 1007 q 293 925 241 925 q 375 966 345 925 q 407 1103 404 1007 l 446 1103 q 402 939 443 992 q 293 886 361 886 z "},"ắ":{"ha":592,"x_min":57,"x_max":499,"o":"m 254 -11 q 112 39 167 -11 q 57 185 57 89 q 113 334 57 281 q 285 400 169 388 l 476 422 l 483 376 l 283 354 q 151 304 193 344 q 108 190 108 263 q 258 35 108 35 q 359 60 306 35 q 451 154 411 85 l 451 525 q 404 676 451 638 q 269 715 357 715 q 188 708 233 715 q 94 683 142 700 l 94 731 q 181 753 132 745 q 271 761 229 761 q 440 710 381 761 q 499 524 499 658 l 499 0 l 457 0 l 453 85 l 447 85 q 363 13 413 37 q 254 -11 314 -11 m 293 886 q 183 939 225 886 q 138 1103 140 992 l 176 1103 q 211 966 182 1007 q 293 925 241 925 q 375 966 345 925 q 407 1103 404 1007 l 446 1103 q 402 939 443 992 q 293 886 361 886 m 272 1108 l 361 1297 l 411 1297 l 311 1108 l 272 1108 z "},"ặ":{"ha":592,"x_min":57,"x_max":499,"o":"m 254 -11 q 112 39 167 -11 q 57 185 57 89 q 113 334 57 281 q 285 400 169 388 l 476 422 l 483 376 l 283 354 q 151 304 193 344 q 108 190 108 263 q 258 35 108 35 q 359 60 306 35 q 451 154 411 85 l 451 525 q 404 676 451 638 q 269 715 357 715 q 188 708 233 715 q 94 683 142 700 l 94 731 q 181 753 132 745 q 271 761 229 761 q 440 710 381 761 q 499 524 499 658 l 499 0 l 457 0 l 453 85 l 447 85 q 363 13 413 37 q 254 -11 314 -11 m 294 -215 q 264 -203 276 -215 q 251 -172 251 -192 q 264 -140 251 -153 q 294 -128 276 -128 q 325 -140 313 -128 q 338 -172 338 -153 q 325 -203 338 -192 q 294 -215 313 -215 m 293 886 q 183 939 225 886 q 138 1103 140 992 l 176 1103 q 211 966 182 1007 q 293 925 241 925 q 375 966 345 925 q 407 1103 404 1007 l 446 1103 q 402 939 443 992 q 293 886 361 886 z "},"ằ":{"ha":592,"x_min":57,"x_max":499,"o":"m 254 -11 q 112 39 167 -11 q 57 185 57 89 q 113 334 57 281 q 285 400 169 388 l 476 422 l 483 376 l 283 354 q 151 304 193 344 q 108 190 108 263 q 258 35 108 35 q 359 60 306 35 q 451 154 411 85 l 451 525 q 404 676 451 638 q 269 715 357 715 q 188 708 233 715 q 94 683 142 700 l 94 731 q 181 753 132 745 q 271 761 229 761 q 440 710 381 761 q 499 524 499 658 l 499 0 l 457 0 l 453 85 l 447 85 q 363 13 413 37 q 254 -11 314 -11 m 293 886 q 183 939 225 886 q 138 1103 140 992 l 176 1103 q 211 966 182 1007 q 293 925 241 925 q 375 966 345 925 q 407 1103 404 1007 l 446 1103 q 402 939 443 992 q 293 886 361 886 m 272 1108 l 172 1297 l 222 1297 l 311 1108 l 272 1108 z "},"ẳ":{"ha":592,"x_min":57,"x_max":499,"o":"m 254 -11 q 112 39 167 -11 q 57 185 57 89 q 113 334 57 281 q 285 400 169 388 l 476 422 l 483 376 l 283 354 q 151 304 193 344 q 108 190 108 263 q 258 35 108 35 q 359 60 306 35 q 451 154 411 85 l 451 525 q 404 676 451 638 q 269 715 357 715 q 188 708 233 715 q 94 683 142 700 l 94 731 q 181 753 132 745 q 271 761 229 761 q 440 710 381 761 q 499 524 499 658 l 499 0 l 457 0 l 453 85 l 447 85 q 363 13 413 37 q 254 -11 314 -11 m 293 886 q 183 939 225 886 q 138 1103 140 992 l 176 1103 q 211 966 182 1007 q 293 925 241 925 q 375 966 345 925 q 407 1103 404 1007 l 446 1103 q 402 939 443 992 q 293 886 361 886 m 271 1108 q 299 1162 273 1147 q 351 1188 325 1177 q 376 1224 376 1198 q 361 1249 376 1239 q 299 1260 346 1260 q 238 1253 269 1260 q 175 1233 206 1247 l 175 1272 q 232 1290 199 1283 q 299 1297 265 1297 q 389 1276 359 1297 q 418 1225 418 1256 q 393 1173 418 1188 q 341 1147 367 1158 q 313 1108 315 1135 l 271 1108 z "},"ẵ":{"ha":592,"x_min":57,"x_max":499,"o":"m 254 -11 q 112 39 167 -11 q 57 185 57 89 q 113 334 57 281 q 285 400 169 388 l 476 422 l 483 376 l 283 354 q 151 304 193 344 q 108 190 108 263 q 258 35 108 35 q 359 60 306 35 q 451 154 411 85 l 451 525 q 404 676 451 638 q 269 715 357 715 q 188 708 233 715 q 94 683 142 700 l 94 731 q 181 753 132 745 q 271 761 229 761 q 440 710 381 761 q 499 524 499 658 l 499 0 l 457 0 l 453 85 l 447 85 q 363 13 413 37 q 254 -11 314 -11 m 293 886 q 183 939 225 886 q 138 1103 140 992 l 176 1103 q 211 966 182 1007 q 293 925 241 925 q 375 966 345 925 q 407 1103 404 1007 l 446 1103 q 402 939 443 992 q 293 886 361 886 m 374 1164 q 287 1191 326 1164 q 210 1218 247 1218 q 160 1206 182 1218 q 118 1168 138 1193 l 118 1214 q 210 1257 152 1257 q 297 1230 257 1257 q 374 1203 336 1203 q 424 1215 401 1203 q 465 1253 446 1228 l 465 1207 q 374 1164 431 1164 z "},"â":{"ha":592,"x_min":57,"x_max":499,"o":"m 254 -11 q 112 39 167 -11 q 57 185 57 89 q 113 334 57 281 q 285 400 169 388 l 476 422 l 483 376 l 283 354 q 151 304 193 344 q 108 190 108 263 q 258 35 108 35 q 359 60 306 35 q 451 154 411 85 l 451 525 q 404 676 451 638 q 269 715 357 715 q 188 708 233 715 q 94 683 142 700 l 94 731 q 181 753 132 745 q 271 761 229 761 q 440 710 381 761 q 499 524 499 658 l 499 0 l 457 0 l 453 85 l 447 85 q 363 13 413 37 q 254 -11 314 -11 m 143 878 l 265 1122 l 318 1122 l 440 878 l 396 878 l 286 1104 l 297 1104 l 188 878 l 143 878 z "},"ấ":{"ha":592,"x_min":57,"x_max":554,"o":"m 254 -11 q 112 39 167 -11 q 57 185 57 89 q 113 334 57 281 q 285 400 169 388 l 476 422 l 483 376 l 283 354 q 151 304 193 344 q 108 190 108 263 q 258 35 108 35 q 359 60 306 35 q 451 154 411 85 l 451 525 q 404 676 451 638 q 269 715 357 715 q 188 708 233 715 q 94 683 142 700 l 94 731 q 181 753 132 745 q 271 761 229 761 q 440 710 381 761 q 499 524 499 658 l 499 0 l 457 0 l 453 85 l 447 85 q 363 13 413 37 q 254 -11 314 -11 m 143 878 l 265 1122 l 318 1122 l 440 878 l 396 878 l 286 1104 l 297 1104 l 188 878 l 143 878 m 415 1108 l 504 1297 l 554 1297 l 454 1108 l 415 1108 z "},"ậ":{"ha":592,"x_min":57,"x_max":499,"o":"m 254 -11 q 112 39 167 -11 q 57 185 57 89 q 113 334 57 281 q 285 400 169 388 l 476 422 l 483 376 l 283 354 q 151 304 193 344 q 108 190 108 263 q 258 35 108 35 q 359 60 306 35 q 451 154 411 85 l 451 525 q 404 676 451 638 q 269 715 357 715 q 188 708 233 715 q 94 683 142 700 l 94 731 q 181 753 132 745 q 271 761 229 761 q 440 710 381 761 q 499 524 499 658 l 499 0 l 457 0 l 453 85 l 447 85 q 363 13 413 37 q 254 -11 314 -11 m 294 -215 q 264 -203 276 -215 q 251 -172 251 -192 q 264 -140 251 -153 q 294 -128 276 -128 q 325 -140 313 -128 q 338 -172 338 -153 q 325 -203 338 -192 q 294 -215 313 -215 m 143 878 l 265 1122 l 318 1122 l 440 878 l 396 878 l 286 1104 l 297 1104 l 188 878 l 143 878 z "},"ầ":{"ha":592,"x_min":57,"x_max":499,"o":"m 254 -11 q 112 39 167 -11 q 57 185 57 89 q 113 334 57 281 q 285 400 169 388 l 476 422 l 483 376 l 283 354 q 151 304 193 344 q 108 190 108 263 q 258 35 108 35 q 359 60 306 35 q 451 154 411 85 l 451 525 q 404 676 451 638 q 269 715 357 715 q 188 708 233 715 q 94 683 142 700 l 94 731 q 181 753 132 745 q 271 761 229 761 q 440 710 381 761 q 499 524 499 658 l 499 0 l 457 0 l 453 85 l 447 85 q 363 13 413 37 q 254 -11 314 -11 m 143 878 l 265 1122 l 318 1122 l 440 878 l 396 878 l 286 1104 l 297 1104 l 188 878 l 143 878 m 415 1108 l 315 1297 l 365 1297 l 454 1108 l 415 1108 z "},"ẩ":{"ha":592,"x_min":57,"x_max":546,"o":"m 254 -11 q 112 39 167 -11 q 57 185 57 89 q 113 334 57 281 q 285 400 169 388 l 476 422 l 483 376 l 283 354 q 151 304 193 344 q 108 190 108 263 q 258 35 108 35 q 359 60 306 35 q 451 154 411 85 l 451 525 q 404 676 451 638 q 269 715 357 715 q 188 708 233 715 q 94 683 142 700 l 94 731 q 181 753 132 745 q 271 761 229 761 q 440 710 381 761 q 499 524 499 658 l 499 0 l 457 0 l 453 85 l 447 85 q 363 13 413 37 q 254 -11 314 -11 m 143 878 l 265 1122 l 318 1122 l 440 878 l 396 878 l 286 1104 l 297 1104 l 188 878 l 143 878 m 399 1108 q 427 1162 401 1147 q 478 1188 453 1177 q 504 1224 504 1198 q 489 1249 504 1239 q 426 1260 474 1260 q 303 1233 362 1260 l 303 1272 q 360 1290 326 1283 q 426 1297 393 1297 q 516 1276 487 1297 q 546 1225 546 1256 q 520 1173 546 1188 q 469 1147 495 1158 q 440 1108 443 1135 l 399 1108 z "},"ẫ":{"ha":592,"x_min":57,"x_max":499,"o":"m 254 -11 q 112 39 167 -11 q 57 185 57 89 q 113 334 57 281 q 285 400 169 388 l 476 422 l 483 376 l 283 354 q 151 304 193 344 q 108 190 108 263 q 258 35 108 35 q 359 60 306 35 q 451 154 411 85 l 451 525 q 404 676 451 638 q 269 715 357 715 q 188 708 233 715 q 94 683 142 700 l 94 731 q 181 753 132 745 q 271 761 229 761 q 440 710 381 761 q 499 524 499 658 l 499 0 l 457 0 l 453 85 l 447 85 q 363 13 413 37 q 254 -11 314 -11 m 143 878 l 265 1122 l 318 1122 l 440 878 l 396 878 l 286 1104 l 297 1104 l 188 878 l 143 878 m 374 1164 q 287 1191 326 1164 q 210 1218 247 1218 q 160 1206 182 1218 q 118 1168 138 1193 l 118 1214 q 210 1257 152 1257 q 297 1230 257 1257 q 374 1203 336 1203 q 424 1215 401 1203 q 465 1253 446 1228 l 465 1207 q 374 1164 431 1164 z "},"ȁ":{"ha":592,"x_min":57,"x_max":499,"o":"m 254 -11 q 112 39 167 -11 q 57 185 57 89 q 113 334 57 281 q 285 400 169 388 l 476 422 l 483 376 l 283 354 q 151 304 193 344 q 108 190 108 263 q 258 35 108 35 q 359 60 306 35 q 451 154 411 85 l 451 525 q 404 676 451 638 q 269 715 357 715 q 188 708 233 715 q 94 683 142 700 l 94 731 q 181 753 132 745 q 271 761 229 761 q 440 710 381 761 q 499 524 499 658 l 499 0 l 457 0 l 453 85 l 447 85 q 363 13 413 37 q 254 -11 314 -11 m 361 878 l 294 1122 l 340 1122 l 399 878 l 361 878 m 185 878 l 118 1122 l 164 1122 l 222 878 l 185 878 z "},"ä":{"ha":592,"x_min":57,"x_max":499,"o":"m 254 -11 q 112 39 167 -11 q 57 185 57 89 q 113 334 57 281 q 285 400 169 388 l 476 422 l 483 376 l 283 354 q 151 304 193 344 q 108 190 108 263 q 258 35 108 35 q 359 60 306 35 q 451 154 411 85 l 451 525 q 404 676 451 638 q 269 715 357 715 q 188 708 233 715 q 94 683 142 700 l 94 731 q 181 753 132 745 q 271 761 229 761 q 440 710 381 761 q 499 524 499 658 l 499 0 l 457 0 l 453 85 l 447 85 q 363 13 413 37 q 254 -11 314 -11 m 403 944 q 372 956 384 944 q 360 988 360 968 q 372 1019 360 1007 q 403 1032 384 1032 q 434 1019 422 1032 q 446 988 446 1007 q 434 956 446 968 q 403 944 422 944 m 181 944 q 150 956 162 944 q 138 988 138 968 q 150 1019 138 1007 q 181 1032 162 1032 q 211 1019 199 1032 q 224 988 224 1007 q 211 956 224 968 q 181 944 199 944 z "},"ạ":{"ha":592,"x_min":57,"x_max":499,"o":"m 254 -11 q 112 39 167 -11 q 57 185 57 89 q 113 334 57 281 q 285 400 169 388 l 476 422 l 483 376 l 283 354 q 151 304 193 344 q 108 190 108 263 q 258 35 108 35 q 359 60 306 35 q 451 154 411 85 l 451 525 q 404 676 451 638 q 269 715 357 715 q 188 708 233 715 q 94 683 142 700 l 94 731 q 181 753 132 745 q 271 761 229 761 q 440 710 381 761 q 499 524 499 658 l 499 0 l 457 0 l 453 85 l 447 85 q 363 13 413 37 q 254 -11 314 -11 m 294 -215 q 264 -203 276 -215 q 251 -172 251 -192 q 264 -140 251 -153 q 294 -128 276 -128 q 325 -140 313 -128 q 338 -172 338 -153 q 325 -203 338 -192 q 294 -215 313 -215 z "},"à":{"ha":592,"x_min":57,"x_max":499,"o":"m 254 -11 q 112 39 167 -11 q 57 185 57 89 q 113 334 57 281 q 285 400 169 388 l 476 422 l 483 376 l 283 354 q 151 304 193 344 q 108 190 108 263 q 258 35 108 35 q 359 60 306 35 q 451 154 411 85 l 451 525 q 404 676 451 638 q 269 715 357 715 q 188 708 233 715 q 94 683 142 700 l 94 731 q 181 753 132 745 q 271 761 229 761 q 440 710 381 761 q 499 524 499 658 l 499 0 l 457 0 l 453 85 l 447 85 q 363 13 413 37 q 254 -11 314 -11 m 272 878 l 158 1122 l 208 1122 l 311 878 l 272 878 z "},"ả":{"ha":592,"x_min":57,"x_max":499,"o":"m 254 -11 q 112 39 167 -11 q 57 185 57 89 q 113 334 57 281 q 285 400 169 388 l 476 422 l 483 376 l 283 354 q 151 304 193 344 q 108 190 108 263 q 258 35 108 35 q 359 60 306 35 q 451 154 411 85 l 451 525 q 404 676 451 638 q 269 715 357 715 q 188 708 233 715 q 94 683 142 700 l 94 731 q 181 753 132 745 q 271 761 229 761 q 440 710 381 761 q 499 524 499 658 l 499 0 l 457 0 l 453 85 l 447 85 q 363 13 413 37 q 254 -11 314 -11 m 269 878 q 294 950 269 926 q 344 992 319 974 q 369 1039 369 1010 q 352 1078 369 1065 q 292 1092 335 1092 q 243 1088 269 1092 q 196 1075 217 1083 l 196 1114 q 240 1126 215 1121 q 290 1131 265 1131 q 411 1040 411 1131 q 386 976 411 997 q 337 936 362 956 q 313 878 313 917 l 269 878 z "},"ȃ":{"ha":592,"x_min":57,"x_max":499,"o":"m 254 -11 q 112 39 167 -11 q 57 185 57 89 q 113 334 57 281 q 285 400 169 388 l 476 422 l 483 376 l 283 354 q 151 304 193 344 q 108 190 108 263 q 258 35 108 35 q 359 60 306 35 q 451 154 411 85 l 451 525 q 404 676 451 638 q 269 715 357 715 q 188 708 233 715 q 94 683 142 700 l 94 731 q 181 753 132 745 q 271 761 229 761 q 440 710 381 761 q 499 524 499 658 l 499 0 l 457 0 l 453 85 l 447 85 q 363 13 413 37 q 254 -11 314 -11 m 138 897 q 181 1063 140 1011 q 290 1114 222 1114 q 401 1062 358 1114 q 446 897 443 1010 l 407 897 q 372 1033 401 993 q 290 1074 342 1074 q 209 1033 238 1074 q 176 897 179 993 l 138 897 z "},"ā":{"ha":592,"x_min":57,"x_max":499,"o":"m 254 -11 q 112 39 167 -11 q 57 185 57 89 q 113 334 57 281 q 285 400 169 388 l 476 422 l 483 376 l 283 354 q 151 304 193 344 q 108 190 108 263 q 258 35 108 35 q 359 60 306 35 q 451 154 411 85 l 451 525 q 404 676 451 638 q 269 715 357 715 q 188 708 233 715 q 94 683 142 700 l 94 731 q 181 753 132 745 q 271 761 229 761 q 440 710 381 761 q 499 524 499 658 l 499 0 l 457 0 l 453 85 l 447 85 q 363 13 413 37 q 254 -11 314 -11 m 118 968 l 118 1008 l 465 1008 l 465 968 l 118 968 z "},"ą":{"ha":592,"x_min":57,"x_max":567,"o":"m 254 -11 q 112 39 167 -11 q 57 185 57 89 q 113 334 57 281 q 285 400 169 388 l 476 422 l 483 376 l 283 354 q 151 304 193 344 q 108 190 108 263 q 258 35 108 35 q 359 60 306 35 q 451 154 411 85 l 451 525 q 404 676 451 638 q 269 715 357 715 q 188 708 233 715 q 94 683 142 700 l 94 731 q 181 753 132 745 q 271 761 229 761 q 440 710 381 761 q 499 524 499 658 l 499 0 l 457 0 l 453 85 l 447 85 q 363 13 413 37 q 254 -11 314 -11 m 475 -278 q 384 -247 417 -278 q 351 -161 351 -217 q 382 -62 351 -109 q 479 32 413 -16 l 499 0 q 416 -79 442 -42 q 390 -158 390 -117 q 474 -242 390 -242 q 567 -211 523 -242 l 567 -250 q 523 -271 548 -264 q 475 -278 499 -278 z "},"å":{"ha":592,"x_min":57,"x_max":499,"o":"m 254 -11 q 112 39 167 -11 q 57 185 57 89 q 113 334 57 281 q 285 400 169 388 l 476 422 l 483 376 l 283 354 q 151 304 193 344 q 108 190 108 263 q 258 35 108 35 q 359 60 306 35 q 451 154 411 85 l 451 525 q 404 676 451 638 q 269 715 357 715 q 188 708 233 715 q 94 683 142 700 l 94 731 q 181 753 132 745 q 271 761 229 761 q 440 710 381 761 q 499 524 499 658 l 499 0 l 457 0 l 453 85 l 447 85 q 363 13 413 37 q 254 -11 314 -11 m 292 875 q 200 911 236 875 q 164 1003 164 947 q 200 1094 164 1058 q 292 1131 236 1131 q 383 1094 347 1131 q 419 1003 419 1058 q 383 911 419 947 q 292 875 347 875 m 292 911 q 382 1003 382 911 q 292 1094 382 1094 q 201 1003 201 1094 q 292 911 201 911 z "},"ǻ":{"ha":592,"x_min":57,"x_max":503,"o":"m 254 -11 q 112 39 167 -11 q 57 185 57 89 q 113 334 57 281 q 285 400 169 388 l 476 422 l 483 376 l 283 354 q 151 304 193 344 q 108 190 108 263 q 258 35 108 35 q 359 60 306 35 q 451 154 411 85 l 451 525 q 404 676 451 638 q 269 715 357 715 q 188 708 233 715 q 94 683 142 700 l 94 731 q 181 753 132 745 q 271 761 229 761 q 440 710 381 761 q 499 524 499 658 l 499 0 l 457 0 l 453 85 l 447 85 q 363 13 413 37 q 254 -11 314 -11 m 292 875 q 200 911 236 875 q 164 1003 164 947 q 200 1094 164 1058 q 292 1131 236 1131 q 383 1094 347 1131 q 419 1003 419 1058 q 383 911 419 947 q 292 875 347 875 m 292 911 q 382 1003 382 911 q 292 1094 382 1094 q 201 1003 201 1094 q 292 911 201 911 m 374 1083 l 340 1099 l 450 1236 l 503 1236 l 374 1083 z "},"ã":{"ha":592,"x_min":57,"x_max":499,"o":"m 254 -11 q 112 39 167 -11 q 57 185 57 89 q 113 334 57 281 q 285 400 169 388 l 476 422 l 483 376 l 283 354 q 151 304 193 344 q 108 190 108 263 q 258 35 108 35 q 359 60 306 35 q 451 154 411 85 l 451 525 q 404 676 451 638 q 269 715 357 715 q 188 708 233 715 q 94 683 142 700 l 94 731 q 181 753 132 745 q 271 761 229 761 q 440 710 381 761 q 499 524 499 658 l 499 0 l 457 0 l 453 85 l 447 85 q 363 13 413 37 q 254 -11 314 -11 m 374 958 q 287 985 326 958 q 210 1013 247 1013 q 118 963 158 1013 l 118 1008 q 210 1051 152 1051 q 297 1024 257 1051 q 374 997 336 997 q 465 1047 426 997 l 465 1001 q 374 958 431 958 z "},"æ":{"ha":971,"x_min":57,"x_max":918,"o":"m 729 -12 q 523 74 594 -12 q 451 375 451 160 l 456 382 q 520 679 456 596 q 686 763 584 763 q 855 678 792 763 q 918 375 918 594 l 918 354 l 479 354 l 479 400 l 879 400 l 868 375 q 817 649 868 581 q 686 717 767 717 q 552 648 606 717 q 499 383 499 579 l 499 371 q 558 106 499 178 q 732 33 617 33 q 799 40 763 33 q 885 63 836 47 l 885 15 q 802 -6 840 0 q 729 -12 764 -12 m 256 -11 q 113 38 169 -11 q 57 182 57 88 q 114 339 57 278 q 307 400 171 400 l 476 400 l 476 354 l 306 354 q 152 307 196 354 q 108 188 108 260 q 260 35 108 35 q 378 70 320 35 q 474 199 436 105 l 500 154 q 388 24 452 58 q 256 -11 324 -11 m 451 375 l 451 529 q 404 677 451 639 q 269 715 357 715 q 188 708 233 715 q 94 683 142 700 l 94 731 q 181 753 132 745 q 271 761 229 761 q 437 710 379 761 q 494 528 494 659 l 494 368 l 451 375 z "},"ǽ":{"ha":971,"x_min":57,"x_max":918,"o":"m 729 -12 q 523 74 594 -12 q 451 375 451 160 l 456 382 q 520 679 456 596 q 686 763 584 763 q 855 678 792 763 q 918 375 918 594 l 918 354 l 479 354 l 479 400 l 879 400 l 868 375 q 817 649 868 581 q 686 717 767 717 q 552 648 606 717 q 499 383 499 579 l 499 371 q 558 106 499 178 q 732 33 617 33 q 799 40 763 33 q 885 63 836 47 l 885 15 q 802 -6 840 0 q 729 -12 764 -12 m 256 -11 q 113 38 169 -11 q 57 182 57 88 q 114 339 57 278 q 307 400 171 400 l 476 400 l 476 354 l 306 354 q 152 307 196 354 q 108 188 108 260 q 260 35 108 35 q 378 70 320 35 q 474 199 436 105 l 500 154 q 388 24 452 58 q 256 -11 324 -11 m 451 375 l 451 529 q 404 677 451 639 q 269 715 357 715 q 188 708 233 715 q 94 683 142 700 l 94 731 q 181 753 132 745 q 271 761 229 761 q 437 710 379 761 q 494 528 494 659 l 494 368 l 451 375 m 456 878 l 558 1122 l 608 1122 l 494 878 l 456 878 z "},"b":{"ha":635,"x_min":100,"x_max":574,"o":"m 258 -12 q 175 -6 219 -12 q 100 13 131 1 l 100 1122 l 147 1122 l 147 679 l 151 679 q 222 736 176 710 q 328 761 267 761 q 500 683 426 761 q 574 389 574 606 q 490 83 574 178 q 258 -12 406 -12 m 258 33 q 455 113 385 33 q 524 383 524 193 q 465 651 524 586 q 325 715 407 715 q 224 688 273 715 q 147 607 174 660 l 147 49 q 199 38 168 42 q 258 33 231 33 z "},"c":{"ha":488,"x_min":61,"x_max":476,"o":"m 325 -12 q 130 74 198 -12 q 61 375 61 160 q 137 676 61 590 q 357 761 213 761 q 415 758 384 761 q 476 746 446 754 l 476 699 q 410 712 442 708 q 360 715 379 715 q 172 645 233 715 q 111 378 111 575 q 167 106 111 179 q 331 33 222 33 q 397 40 361 33 q 476 63 433 47 l 476 15 q 399 -6 436 1 q 325 -12 361 -12 z "},"ć":{"ha":488,"x_min":61,"x_max":476,"o":"m 325 -12 q 130 74 198 -12 q 61 375 61 160 q 137 676 61 590 q 357 761 213 761 q 415 758 384 761 q 476 746 446 754 l 476 699 q 410 712 442 708 q 360 715 379 715 q 172 645 233 715 q 111 378 111 575 q 167 106 111 179 q 331 33 222 33 q 397 40 361 33 q 476 63 433 47 l 476 15 q 399 -6 436 1 q 325 -12 361 -12 m 276 878 l 379 1122 l 429 1122 l 315 878 l 276 878 z "},"č":{"ha":488,"x_min":61,"x_max":476,"o":"m 325 -12 q 130 74 198 -12 q 61 375 61 160 q 137 676 61 590 q 357 761 213 761 q 415 758 384 761 q 476 746 446 754 l 476 699 q 410 712 442 708 q 360 715 379 715 q 172 645 233 715 q 111 378 111 575 q 167 106 111 179 q 331 33 222 33 q 397 40 361 33 q 476 63 433 47 l 476 15 q 399 -6 436 1 q 325 -12 361 -12 m 269 878 l 147 1122 l 192 1122 l 301 896 l 290 896 l 400 1122 l 444 1122 l 322 878 l 269 878 z "},"ç":{"ha":488,"x_min":61,"x_max":476,"o":"m 325 -12 q 130 74 198 -12 q 61 375 61 160 q 137 676 61 590 q 357 761 213 761 q 415 758 384 761 q 476 746 446 754 l 476 699 q 410 712 442 708 q 360 715 379 715 q 172 645 233 715 q 111 378 111 575 q 167 106 111 179 q 331 33 222 33 q 397 40 361 33 q 476 63 433 47 l 476 15 q 399 -6 436 1 q 325 -12 361 -12 m 293 -278 q 240 -272 268 -278 q 193 -254 213 -265 l 193 -215 q 247 -236 221 -231 q 297 -242 274 -242 q 371 -179 371 -242 q 296 -114 371 -114 l 278 -114 l 278 14 l 317 14 l 317 -99 l 296 -79 q 380 -106 352 -79 q 408 -179 408 -133 q 378 -250 408 -223 q 293 -278 349 -278 z "},"ḉ":{"ha":488,"x_min":61,"x_max":476,"o":"m 325 -12 q 130 74 198 -12 q 61 375 61 160 q 137 676 61 590 q 357 761 213 761 q 415 758 384 761 q 476 746 446 754 l 476 699 q 410 712 442 708 q 360 715 379 715 q 172 645 233 715 q 111 378 111 575 q 167 106 111 179 q 331 33 222 33 q 397 40 361 33 q 476 63 433 47 l 476 15 q 399 -6 436 1 q 325 -12 361 -12 m 293 -278 q 240 -272 268 -278 q 193 -254 213 -265 l 193 -215 q 247 -236 221 -231 q 297 -242 274 -242 q 371 -179 371 -242 q 296 -114 371 -114 l 278 -114 l 278 14 l 317 14 l 317 -99 l 296 -79 q 380 -106 352 -79 q 408 -179 408 -133 q 378 -250 408 -223 q 293 -278 349 -278 m 276 878 l 379 1122 l 429 1122 l 315 878 l 276 878 z "},"ĉ":{"ha":488,"x_min":61,"x_max":476,"o":"m 325 -12 q 130 74 198 -12 q 61 375 61 160 q 137 676 61 590 q 357 761 213 761 q 415 758 384 761 q 476 746 446 754 l 476 699 q 410 712 442 708 q 360 715 379 715 q 172 645 233 715 q 111 378 111 575 q 167 106 111 179 q 331 33 222 33 q 397 40 361 33 q 476 63 433 47 l 476 15 q 399 -6 436 1 q 325 -12 361 -12 m 147 878 l 269 1122 l 322 1122 l 444 878 l 400 878 l 290 1104 l 301 1104 l 192 878 l 147 878 z "},"ċ":{"ha":488,"x_min":61,"x_max":476,"o":"m 325 -12 q 130 74 198 -12 q 61 375 61 160 q 137 676 61 590 q 357 761 213 761 q 415 758 384 761 q 476 746 446 754 l 476 699 q 410 712 442 708 q 360 715 379 715 q 172 645 233 715 q 111 378 111 575 q 167 106 111 179 q 331 33 222 33 q 397 40 361 33 q 476 63 433 47 l 476 15 q 399 -6 436 1 q 325 -12 361 -12 m 296 944 q 253 988 253 944 q 296 1032 253 1032 q 339 988 339 1032 q 296 944 339 944 z "},"d":{"ha":635,"x_min":61,"x_max":535,"o":"m 310 -12 q 135 65 210 -12 q 61 360 61 143 q 145 666 61 571 q 381 761 228 761 q 434 759 406 761 q 488 754 463 757 l 488 1122 l 535 1122 l 535 0 l 493 0 l 489 74 l 483 74 q 414 13 458 39 q 310 -12 369 -12 m 311 33 q 411 61 363 33 q 488 144 460 89 l 488 706 q 436 713 467 710 q 379 715 406 715 q 181 635 250 715 q 111 365 111 556 q 169 98 111 163 q 311 33 228 33 z "},"ð":{"ha":633,"x_min":61,"x_max":571,"o":"m 318 -12 q 132 75 203 -12 q 61 375 61 163 q 131 674 61 588 q 317 761 200 761 q 410 743 365 761 q 494 672 456 725 l 483 663 q 387 899 452 778 q 200 1122 322 1019 l 261 1122 q 416 936 345 1053 q 528 677 486 819 q 571 396 571 536 q 502 83 571 178 q 318 -12 433 -12 m 318 33 q 465 110 408 33 q 522 372 522 187 q 466 644 522 572 q 317 715 410 715 q 167 644 223 715 q 111 378 111 574 q 167 106 111 178 q 318 33 224 33 m 128 875 l 121 915 l 550 988 l 557 947 l 128 875 z "},"ď":{"ha":635,"x_min":61,"x_max":649,"o":"m 310 -12 q 135 65 210 -12 q 61 360 61 143 q 145 666 61 571 q 381 761 228 761 q 434 759 406 761 q 488 754 463 757 l 488 1122 l 535 1122 l 535 0 l 493 0 l 489 74 l 483 74 q 414 13 458 39 q 310 -12 369 -12 m 311 33 q 411 61 363 33 q 488 144 460 89 l 488 706 q 436 713 467 710 q 379 715 406 715 q 181 635 250 715 q 111 365 111 556 q 169 98 111 163 q 311 33 228 33 m 592 819 q 602 975 600 892 q 604 1122 604 1058 l 649 1122 q 643 974 649 1054 q 624 819 638 893 l 592 819 z "},"đ":{"ha":635,"x_min":61,"x_max":631,"o":"m 310 -12 q 135 65 210 -12 q 61 360 61 143 q 145 666 61 571 q 381 761 228 761 q 434 759 406 761 q 488 754 463 757 l 488 1122 l 535 1122 l 535 0 l 493 0 l 489 74 l 483 74 q 414 13 458 39 q 310 -12 369 -12 m 311 33 q 411 61 363 33 q 488 144 460 89 l 488 706 q 436 713 467 710 q 379 715 406 715 q 181 635 250 715 q 111 365 111 556 q 169 98 111 163 q 311 33 228 33 m 279 921 l 279 963 l 631 963 l 631 921 l 279 921 z "},"ḍ":{"ha":635,"x_min":61,"x_max":535,"o":"m 310 -12 q 135 65 210 -12 q 61 360 61 143 q 145 666 61 571 q 381 761 228 761 q 434 759 406 761 q 488 754 463 757 l 488 1122 l 535 1122 l 535 0 l 493 0 l 489 74 l 483 74 q 414 13 458 39 q 310 -12 369 -12 m 311 33 q 411 61 363 33 q 488 144 460 89 l 488 706 q 436 713 467 710 q 379 715 406 715 q 181 635 250 715 q 111 365 111 556 q 169 98 111 163 q 311 33 228 33 m 315 -215 q 284 -203 297 -215 q 272 -172 272 -192 q 284 -140 272 -153 q 315 -128 297 -128 q 346 -140 334 -128 q 358 -172 358 -153 q 346 -203 358 -192 q 315 -215 334 -215 z "},"ḏ":{"ha":635,"x_min":61,"x_max":535,"o":"m 310 -12 q 135 65 210 -12 q 61 360 61 143 q 145 666 61 571 q 381 761 228 761 q 434 759 406 761 q 488 754 463 757 l 488 1122 l 535 1122 l 535 0 l 493 0 l 489 74 l 483 74 q 414 13 458 39 q 310 -12 369 -12 m 311 33 q 411 61 363 33 q 488 144 460 89 l 488 706 q 436 713 467 710 q 379 715 406 715 q 181 635 250 715 q 111 365 111 556 q 169 98 111 163 q 311 33 228 33 m 163 -192 l 163 -151 l 468 -151 l 468 -192 l 163 -192 z "},"ǳ":{"ha":1150,"x_min":61,"x_max":1115,"o":"m 310 -12 q 135 65 210 -12 q 61 360 61 143 q 145 666 61 571 q 381 761 228 761 q 434 759 406 761 q 488 754 463 757 l 488 1122 l 535 1122 l 535 0 l 493 0 l 489 74 l 483 74 q 414 13 458 39 q 310 -12 369 -12 m 311 33 q 411 61 363 33 q 488 144 460 89 l 488 706 q 436 713 467 710 q 379 715 406 715 q 181 635 250 715 q 111 365 111 556 q 169 98 111 163 q 311 33 228 33 m 672 0 l 672 28 l 1058 724 l 1058 706 l 679 706 l 679 750 l 1108 750 l 1108 722 l 722 26 l 722 44 l 1115 44 l 1115 0 l 672 0 z "},"ǆ":{"ha":1150,"x_min":61,"x_max":1115,"o":"m 310 -12 q 135 65 210 -12 q 61 360 61 143 q 145 666 61 571 q 381 761 228 761 q 434 759 406 761 q 488 754 463 757 l 488 1122 l 535 1122 l 535 0 l 493 0 l 489 74 l 483 74 q 414 13 458 39 q 310 -12 369 -12 m 311 33 q 411 61 363 33 q 488 144 460 89 l 488 706 q 436 713 467 710 q 379 715 406 715 q 181 635 250 715 q 111 365 111 556 q 169 98 111 163 q 311 33 228 33 m 672 0 l 672 28 l 1058 724 l 1058 706 l 679 706 l 679 750 l 1108 750 l 1108 722 l 722 26 l 722 44 l 1115 44 l 1115 0 l 672 0 m 868 878 l 746 1122 l 790 1122 l 900 896 l 889 896 l 999 1122 l 1043 1122 l 921 878 l 868 878 z "},"e":{"ha":589,"x_min":61,"x_max":536,"o":"m 344 -12 q 134 74 207 -12 q 61 375 61 160 q 131 676 61 590 q 304 761 200 761 q 473 677 410 761 q 536 375 536 593 l 536 354 l 92 354 l 92 400 l 497 400 l 486 383 q 435 647 486 579 q 304 715 385 715 q 167 647 223 715 q 111 383 111 579 l 111 371 q 171 106 111 178 q 347 33 231 33 q 417 40 379 33 q 503 63 454 47 l 503 15 q 419 -6 458 0 q 344 -12 381 -12 z "},"é":{"ha":589,"x_min":61,"x_max":536,"o":"m 344 -12 q 134 74 207 -12 q 61 375 61 160 q 131 676 61 590 q 304 761 200 761 q 473 677 410 761 q 536 375 536 593 l 536 354 l 92 354 l 92 400 l 497 400 l 486 383 q 435 647 486 579 q 304 715 385 715 q 167 647 223 715 q 111 383 111 579 l 111 371 q 171 106 111 178 q 347 33 231 33 q 417 40 379 33 q 503 63 454 47 l 503 15 q 419 -6 458 0 q 344 -12 381 -12 m 282 878 l 385 1122 l 435 1122 l 321 878 l 282 878 z "},"ĕ":{"ha":589,"x_min":61,"x_max":536,"o":"m 344 -12 q 134 74 207 -12 q 61 375 61 160 q 131 676 61 590 q 304 761 200 761 q 473 677 410 761 q 536 375 536 593 l 536 354 l 92 354 l 92 400 l 497 400 l 486 383 q 435 647 486 579 q 304 715 385 715 q 167 647 223 715 q 111 383 111 579 l 111 371 q 171 106 111 178 q 347 33 231 33 q 417 40 379 33 q 503 63 454 47 l 503 15 q 419 -6 458 0 q 344 -12 381 -12 m 303 886 q 192 939 235 886 q 147 1103 150 992 l 186 1103 q 221 966 192 1007 q 303 925 251 925 q 384 966 355 925 q 417 1103 414 1007 l 456 1103 q 412 939 453 992 q 303 886 371 886 z "},"ě":{"ha":589,"x_min":61,"x_max":536,"o":"m 344 -12 q 134 74 207 -12 q 61 375 61 160 q 131 676 61 590 q 304 761 200 761 q 473 677 410 761 q 536 375 536 593 l 536 354 l 92 354 l 92 400 l 497 400 l 486 383 q 435 647 486 579 q 304 715 385 715 q 167 647 223 715 q 111 383 111 579 l 111 371 q 171 106 111 178 q 347 33 231 33 q 417 40 379 33 q 503 63 454 47 l 503 15 q 419 -6 458 0 q 344 -12 381 -12 m 275 878 l 153 1122 l 197 1122 l 307 896 l 296 896 l 406 1122 l 450 1122 l 328 878 l 275 878 z "},"ḝ":{"ha":589,"x_min":61,"x_max":536,"o":"m 344 -12 q 134 74 207 -12 q 61 375 61 160 q 131 676 61 590 q 304 761 200 761 q 473 677 410 761 q 536 375 536 593 l 536 354 l 92 354 l 92 400 l 497 400 l 486 383 q 435 647 486 579 q 304 715 385 715 q 167 647 223 715 q 111 383 111 579 l 111 371 q 171 106 111 178 q 347 33 231 33 q 417 40 379 33 q 503 63 454 47 l 503 15 q 419 -6 458 0 q 344 -12 381 -12 m 299 -278 q 246 -272 274 -278 q 199 -254 218 -265 l 199 -215 q 253 -236 226 -231 q 303 -242 279 -242 q 376 -179 376 -242 q 301 -114 376 -114 l 283 -114 l 283 14 l 322 14 l 322 -99 l 301 -79 q 386 -106 358 -79 q 414 -179 414 -133 q 384 -250 414 -223 q 299 -278 354 -278 m 303 886 q 192 939 235 886 q 147 1103 150 992 l 186 1103 q 221 966 192 1007 q 303 925 251 925 q 384 966 355 925 q 417 1103 414 1007 l 456 1103 q 412 939 453 992 q 303 886 371 886 z "},"ê":{"ha":589,"x_min":61,"x_max":536,"o":"m 344 -12 q 134 74 207 -12 q 61 375 61 160 q 131 676 61 590 q 304 761 200 761 q 473 677 410 761 q 536 375 536 593 l 536 354 l 92 354 l 92 400 l 497 400 l 486 383 q 435 647 486 579 q 304 715 385 715 q 167 647 223 715 q 111 383 111 579 l 111 371 q 171 106 111 178 q 347 33 231 33 q 417 40 379 33 q 503 63 454 47 l 503 15 q 419 -6 458 0 q 344 -12 381 -12 m 153 878 l 275 1122 l 328 1122 l 450 878 l 406 878 l 296 1104 l 307 1104 l 197 878 l 153 878 z "},"ế":{"ha":589,"x_min":61,"x_max":564,"o":"m 344 -12 q 134 74 207 -12 q 61 375 61 160 q 131 676 61 590 q 304 761 200 761 q 473 677 410 761 q 536 375 536 593 l 536 354 l 92 354 l 92 400 l 497 400 l 486 383 q 435 647 486 579 q 304 715 385 715 q 167 647 223 715 q 111 383 111 579 l 111 371 q 171 106 111 178 q 347 33 231 33 q 417 40 379 33 q 503 63 454 47 l 503 15 q 419 -6 458 0 q 344 -12 381 -12 m 153 878 l 275 1122 l 328 1122 l 450 878 l 406 878 l 296 1104 l 307 1104 l 197 878 l 153 878 m 425 1108 l 514 1297 l 564 1297 l 464 1108 l 425 1108 z "},"ệ":{"ha":589,"x_min":61,"x_max":536,"o":"m 344 -12 q 134 74 207 -12 q 61 375 61 160 q 131 676 61 590 q 304 761 200 761 q 473 677 410 761 q 536 375 536 593 l 536 354 l 92 354 l 92 400 l 497 400 l 486 383 q 435 647 486 579 q 304 715 385 715 q 167 647 223 715 q 111 383 111 579 l 111 371 q 171 106 111 178 q 347 33 231 33 q 417 40 379 33 q 503 63 454 47 l 503 15 q 419 -6 458 0 q 344 -12 381 -12 m 301 -215 q 270 -203 283 -215 q 258 -172 258 -192 q 270 -140 258 -153 q 301 -128 283 -128 q 332 -140 320 -128 q 344 -172 344 -153 q 332 -203 344 -192 q 301 -215 320 -215 m 153 878 l 275 1122 l 328 1122 l 450 878 l 406 878 l 296 1104 l 307 1104 l 197 878 l 153 878 z "},"ề":{"ha":589,"x_min":61,"x_max":536,"o":"m 344 -12 q 134 74 207 -12 q 61 375 61 160 q 131 676 61 590 q 304 761 200 761 q 473 677 410 761 q 536 375 536 593 l 536 354 l 92 354 l 92 400 l 497 400 l 486 383 q 435 647 486 579 q 304 715 385 715 q 167 647 223 715 q 111 383 111 579 l 111 371 q 171 106 111 178 q 347 33 231 33 q 417 40 379 33 q 503 63 454 47 l 503 15 q 419 -6 458 0 q 344 -12 381 -12 m 153 878 l 275 1122 l 328 1122 l 450 878 l 406 878 l 296 1104 l 307 1104 l 197 878 l 153 878 m 425 1108 l 325 1297 l 375 1297 l 464 1108 l 425 1108 z "},"ể":{"ha":589,"x_min":61,"x_max":556,"o":"m 344 -12 q 134 74 207 -12 q 61 375 61 160 q 131 676 61 590 q 304 761 200 761 q 473 677 410 761 q 536 375 536 593 l 536 354 l 92 354 l 92 400 l 497 400 l 486 383 q 435 647 486 579 q 304 715 385 715 q 167 647 223 715 q 111 383 111 579 l 111 371 q 171 106 111 178 q 347 33 231 33 q 417 40 379 33 q 503 63 454 47 l 503 15 q 419 -6 458 0 q 344 -12 381 -12 m 153 878 l 275 1122 l 328 1122 l 450 878 l 406 878 l 296 1104 l 307 1104 l 197 878 l 153 878 m 408 1108 q 436 1162 410 1147 q 488 1188 463 1177 q 514 1224 514 1198 q 499 1249 514 1239 q 436 1260 483 1260 q 313 1233 372 1260 l 313 1272 q 369 1290 336 1283 q 436 1297 403 1297 q 526 1276 497 1297 q 556 1225 556 1256 q 530 1173 556 1188 q 479 1147 505 1158 q 450 1108 453 1135 l 408 1108 z "},"ễ":{"ha":589,"x_min":61,"x_max":536,"o":"m 344 -12 q 134 74 207 -12 q 61 375 61 160 q 131 676 61 590 q 304 761 200 761 q 473 677 410 761 q 536 375 536 593 l 536 354 l 92 354 l 92 400 l 497 400 l 486 383 q 435 647 486 579 q 304 715 385 715 q 167 647 223 715 q 111 383 111 579 l 111 371 q 171 106 111 178 q 347 33 231 33 q 417 40 379 33 q 503 63 454 47 l 503 15 q 419 -6 458 0 q 344 -12 381 -12 m 153 878 l 275 1122 l 328 1122 l 450 878 l 406 878 l 296 1104 l 307 1104 l 197 878 l 153 878 m 383 1164 q 297 1191 336 1164 q 219 1218 257 1218 q 169 1206 192 1218 q 128 1168 147 1193 l 128 1214 q 219 1257 162 1257 q 306 1230 267 1257 q 383 1203 346 1203 q 433 1215 411 1203 q 475 1253 456 1228 l 475 1207 q 383 1164 441 1164 z "},"ȅ":{"ha":589,"x_min":61,"x_max":536,"o":"m 344 -12 q 134 74 207 -12 q 61 375 61 160 q 131 676 61 590 q 304 761 200 761 q 473 677 410 761 q 536 375 536 593 l 536 354 l 92 354 l 92 400 l 497 400 l 486 383 q 435 647 486 579 q 304 715 385 715 q 167 647 223 715 q 111 383 111 579 l 111 371 q 171 106 111 178 q 347 33 231 33 q 417 40 379 33 q 503 63 454 47 l 503 15 q 419 -6 458 0 q 344 -12 381 -12 m 371 878 l 304 1122 l 350 1122 l 408 878 l 371 878 m 194 878 l 128 1122 l 174 1122 l 232 878 l 194 878 z "},"ë":{"ha":589,"x_min":61,"x_max":536,"o":"m 344 -12 q 134 74 207 -12 q 61 375 61 160 q 131 676 61 590 q 304 761 200 761 q 473 677 410 761 q 536 375 536 593 l 536 354 l 92 354 l 92 400 l 497 400 l 486 383 q 435 647 486 579 q 304 715 385 715 q 167 647 223 715 q 111 383 111 579 l 111 371 q 171 106 111 178 q 347 33 231 33 q 417 40 379 33 q 503 63 454 47 l 503 15 q 419 -6 458 0 q 344 -12 381 -12 m 413 944 q 382 956 394 944 q 369 988 369 968 q 382 1019 369 1007 q 413 1032 394 1032 q 443 1019 431 1032 q 456 988 456 1007 q 443 956 456 968 q 413 944 431 944 m 190 944 q 159 956 172 944 q 147 988 147 968 q 159 1019 147 1007 q 190 1032 172 1032 q 221 1019 209 1032 q 233 988 233 1007 q 221 956 233 968 q 190 944 209 944 z "},"ė":{"ha":589,"x_min":61,"x_max":536,"o":"m 344 -12 q 134 74 207 -12 q 61 375 61 160 q 131 676 61 590 q 304 761 200 761 q 473 677 410 761 q 536 375 536 593 l 536 354 l 92 354 l 92 400 l 497 400 l 486 383 q 435 647 486 579 q 304 715 385 715 q 167 647 223 715 q 111 383 111 579 l 111 371 q 171 106 111 178 q 347 33 231 33 q 417 40 379 33 q 503 63 454 47 l 503 15 q 419 -6 458 0 q 344 -12 381 -12 m 301 944 q 258 988 258 944 q 301 1032 258 1032 q 344 988 344 1032 q 301 944 344 944 z "},"ẹ":{"ha":589,"x_min":61,"x_max":536,"o":"m 344 -12 q 134 74 207 -12 q 61 375 61 160 q 131 676 61 590 q 304 761 200 761 q 473 677 410 761 q 536 375 536 593 l 536 354 l 92 354 l 92 400 l 497 400 l 486 383 q 435 647 486 579 q 304 715 385 715 q 167 647 223 715 q 111 383 111 579 l 111 371 q 171 106 111 178 q 347 33 231 33 q 417 40 379 33 q 503 63 454 47 l 503 15 q 419 -6 458 0 q 344 -12 381 -12 m 301 -215 q 270 -203 283 -215 q 258 -172 258 -192 q 270 -140 258 -153 q 301 -128 283 -128 q 332 -140 320 -128 q 344 -172 344 -153 q 332 -203 344 -192 q 301 -215 320 -215 z "},"è":{"ha":589,"x_min":61,"x_max":536,"o":"m 344 -12 q 134 74 207 -12 q 61 375 61 160 q 131 676 61 590 q 304 761 200 761 q 473 677 410 761 q 536 375 536 593 l 536 354 l 92 354 l 92 400 l 497 400 l 486 383 q 435 647 486 579 q 304 715 385 715 q 167 647 223 715 q 111 383 111 579 l 111 371 q 171 106 111 178 q 347 33 231 33 q 417 40 379 33 q 503 63 454 47 l 503 15 q 419 -6 458 0 q 344 -12 381 -12 m 282 878 l 168 1122 l 218 1122 l 321 878 l 282 878 z "},"ẻ":{"ha":589,"x_min":61,"x_max":536,"o":"m 344 -12 q 134 74 207 -12 q 61 375 61 160 q 131 676 61 590 q 304 761 200 761 q 473 677 410 761 q 536 375 536 593 l 536 354 l 92 354 l 92 400 l 497 400 l 486 383 q 435 647 486 579 q 304 715 385 715 q 167 647 223 715 q 111 383 111 579 l 111 371 q 171 106 111 178 q 347 33 231 33 q 417 40 379 33 q 503 63 454 47 l 503 15 q 419 -6 458 0 q 344 -12 381 -12 m 279 878 q 304 950 279 926 q 354 992 329 974 q 379 1039 379 1010 q 362 1078 379 1065 q 301 1092 345 1092 q 253 1088 279 1092 q 206 1075 226 1083 l 206 1114 q 250 1126 224 1121 q 300 1131 275 1131 q 421 1040 421 1131 q 396 976 421 997 q 347 936 372 956 q 322 878 322 917 l 279 878 z "},"ȇ":{"ha":589,"x_min":61,"x_max":536,"o":"m 344 -12 q 134 74 207 -12 q 61 375 61 160 q 131 676 61 590 q 304 761 200 761 q 473 677 410 761 q 536 375 536 593 l 536 354 l 92 354 l 92 400 l 497 400 l 486 383 q 435 647 486 579 q 304 715 385 715 q 167 647 223 715 q 111 383 111 579 l 111 371 q 171 106 111 178 q 347 33 231 33 q 417 40 379 33 q 503 63 454 47 l 503 15 q 419 -6 458 0 q 344 -12 381 -12 m 147 897 q 191 1063 150 1011 q 300 1114 232 1114 q 410 1062 368 1114 q 456 897 453 1010 l 417 897 q 382 1033 411 993 q 300 1074 352 1074 q 218 1033 248 1074 q 186 897 189 993 l 147 897 z "},"ē":{"ha":589,"x_min":61,"x_max":536,"o":"m 344 -12 q 134 74 207 -12 q 61 375 61 160 q 131 676 61 590 q 304 761 200 761 q 473 677 410 761 q 536 375 536 593 l 536 354 l 92 354 l 92 400 l 497 400 l 486 383 q 435 647 486 579 q 304 715 385 715 q 167 647 223 715 q 111 383 111 579 l 111 371 q 171 106 111 178 q 347 33 231 33 q 417 40 379 33 q 503 63 454 47 l 503 15 q 419 -6 458 0 q 344 -12 381 -12 m 128 968 l 128 1008 l 475 1008 l 475 968 l 128 968 z "},"ḗ":{"ha":589,"x_min":61,"x_max":536,"o":"m 344 -12 q 134 74 207 -12 q 61 375 61 160 q 131 676 61 590 q 304 761 200 761 q 473 677 410 761 q 536 375 536 593 l 536 354 l 92 354 l 92 400 l 497 400 l 486 383 q 435 647 486 579 q 304 715 385 715 q 167 647 223 715 q 111 383 111 579 l 111 371 q 171 106 111 178 q 347 33 231 33 q 417 40 379 33 q 503 63 454 47 l 503 15 q 419 -6 458 0 q 344 -12 381 -12 z "},"ḕ":{"ha":589,"x_min":61,"x_max":536,"o":"m 344 -12 q 134 74 207 -12 q 61 375 61 160 q 131 676 61 590 q 304 761 200 761 q 473 677 410 761 q 536 375 536 593 l 536 354 l 92 354 l 92 400 l 497 400 l 486 383 q 435 647 486 579 q 304 715 385 715 q 167 647 223 715 q 111 383 111 579 l 111 371 q 171 106 111 178 q 347 33 231 33 q 417 40 379 33 q 503 63 454 47 l 503 15 q 419 -6 458 0 q 344 -12 381 -12 z "},"ę":{"ha":589,"x_min":61,"x_max":536,"o":"m 411 -278 q 320 -247 353 -278 q 288 -161 288 -217 q 311 -75 288 -115 q 386 -3 334 -34 l 388 -10 q 366 -12 377 -11 q 344 -12 355 -12 q 134 74 207 -12 q 61 375 61 160 q 131 676 61 590 q 304 761 200 761 q 473 677 410 761 q 536 375 536 593 l 536 354 l 92 354 l 92 400 l 497 400 l 486 383 q 435 647 486 579 q 304 715 385 715 q 167 647 223 715 q 111 383 111 579 l 111 371 q 171 106 111 178 q 347 33 231 33 q 417 40 379 33 q 503 63 454 47 l 503 15 q 359 -70 392 -24 q 326 -158 326 -117 q 410 -242 326 -242 q 503 -211 459 -242 l 503 -250 q 459 -271 484 -264 q 411 -278 435 -278 z "},"ẽ":{"ha":589,"x_min":61,"x_max":536,"o":"m 344 -12 q 134 74 207 -12 q 61 375 61 160 q 131 676 61 590 q 304 761 200 761 q 473 677 410 761 q 536 375 536 593 l 536 354 l 92 354 l 92 400 l 497 400 l 486 383 q 435 647 486 579 q 304 715 385 715 q 167 647 223 715 q 111 383 111 579 l 111 371 q 171 106 111 178 q 347 33 231 33 q 417 40 379 33 q 503 63 454 47 l 503 15 q 419 -6 458 0 q 344 -12 381 -12 m 383 958 q 297 985 336 958 q 219 1013 257 1013 q 128 963 167 1013 l 128 1008 q 219 1051 162 1051 q 306 1024 267 1051 q 383 997 346 997 q 475 1047 435 997 l 475 1001 q 383 958 441 958 z "},"ə":{"ha":589,"x_min":53,"x_max":528,"o":"m 244 763 q 455 676 382 763 q 528 375 528 590 q 458 74 528 160 q 285 -11 389 -11 q 116 73 179 -11 q 53 375 53 157 l 53 396 l 497 396 l 497 350 l 92 350 l 103 367 q 153 103 103 171 q 285 35 204 35 q 422 103 366 35 q 478 367 478 171 l 478 379 q 418 644 478 572 q 242 717 358 717 q 172 710 210 717 q 86 688 135 703 l 86 735 q 169 756 131 750 q 244 763 208 763 z "},"f":{"ha":390,"x_min":6,"x_max":424,"o":"m 144 0 l 144 939 q 194 1086 144 1037 q 340 1136 243 1136 q 381 1135 358 1136 q 424 1129 403 1133 l 424 1082 q 338 1090 380 1090 q 229 1055 267 1090 q 192 938 192 1019 l 192 0 l 144 0 m 6 706 l 6 750 l 400 750 l 400 706 l 6 706 z "},"g":{"ha":635,"x_min":61,"x_max":535,"o":"m 272 -319 q 184 -311 231 -319 q 103 -289 138 -303 l 103 -242 q 191 -266 149 -258 q 272 -274 233 -274 q 433 -220 378 -274 q 488 -32 488 -167 l 488 69 l 483 69 q 413 13 458 38 q 307 -12 368 -12 q 135 65 209 -12 q 61 360 61 143 q 145 666 61 571 q 376 761 228 761 q 461 754 416 761 q 535 736 506 747 l 535 -29 q 467 -253 535 -187 q 272 -319 400 -319 m 310 33 q 411 61 362 33 q 488 142 460 89 l 488 701 q 435 711 467 707 q 376 715 404 715 q 180 635 249 715 q 111 365 111 556 q 169 98 111 163 q 310 33 228 33 z "},"ǵ":{"ha":635,"x_min":61,"x_max":535,"o":"m 272 -319 q 184 -311 231 -319 q 103 -289 138 -303 l 103 -242 q 191 -266 149 -258 q 272 -274 233 -274 q 433 -220 378 -274 q 488 -32 488 -167 l 488 69 l 483 69 q 413 13 458 38 q 307 -12 368 -12 q 135 65 209 -12 q 61 360 61 143 q 145 666 61 571 q 376 761 228 761 q 461 754 416 761 q 535 736 506 747 l 535 -29 q 467 -253 535 -187 q 272 -319 400 -319 m 310 33 q 411 61 362 33 q 488 142 460 89 l 488 701 q 435 711 467 707 q 376 715 404 715 q 180 635 249 715 q 111 365 111 556 q 169 98 111 163 q 310 33 228 33 m 311 878 l 414 1122 l 464 1122 l 350 878 l 311 878 z "},"ğ":{"ha":635,"x_min":61,"x_max":535,"o":"m 272 -319 q 184 -311 231 -319 q 103 -289 138 -303 l 103 -242 q 191 -266 149 -258 q 272 -274 233 -274 q 433 -220 378 -274 q 488 -32 488 -167 l 488 69 l 483 69 q 413 13 458 38 q 307 -12 368 -12 q 135 65 209 -12 q 61 360 61 143 q 145 666 61 571 q 376 761 228 761 q 461 754 416 761 q 535 736 506 747 l 535 -29 q 467 -253 535 -187 q 272 -319 400 -319 m 310 33 q 411 61 362 33 q 488 142 460 89 l 488 701 q 435 711 467 707 q 376 715 404 715 q 180 635 249 715 q 111 365 111 556 q 169 98 111 163 q 310 33 228 33 m 332 886 q 222 939 264 886 q 176 1103 179 992 l 215 1103 q 250 966 221 1007 q 332 925 280 925 q 414 966 384 925 q 446 1103 443 1007 l 485 1103 q 441 939 482 992 q 332 886 400 886 z "},"ǧ":{"ha":635,"x_min":61,"x_max":535,"o":"m 272 -319 q 184 -311 231 -319 q 103 -289 138 -303 l 103 -242 q 191 -266 149 -258 q 272 -274 233 -274 q 433 -220 378 -274 q 488 -32 488 -167 l 488 69 l 483 69 q 413 13 458 38 q 307 -12 368 -12 q 135 65 209 -12 q 61 360 61 143 q 145 666 61 571 q 376 761 228 761 q 461 754 416 761 q 535 736 506 747 l 535 -29 q 467 -253 535 -187 q 272 -319 400 -319 m 310 33 q 411 61 362 33 q 488 142 460 89 l 488 701 q 435 711 467 707 q 376 715 404 715 q 180 635 249 715 q 111 365 111 556 q 169 98 111 163 q 310 33 228 33 m 304 878 l 182 1122 l 226 1122 l 336 896 l 325 896 l 435 1122 l 479 1122 l 357 878 l 304 878 z "},"ĝ":{"ha":635,"x_min":61,"x_max":535,"o":"m 272 -319 q 184 -311 231 -319 q 103 -289 138 -303 l 103 -242 q 191 -266 149 -258 q 272 -274 233 -274 q 433 -220 378 -274 q 488 -32 488 -167 l 488 69 l 483 69 q 413 13 458 38 q 307 -12 368 -12 q 135 65 209 -12 q 61 360 61 143 q 145 666 61 571 q 376 761 228 761 q 461 754 416 761 q 535 736 506 747 l 535 -29 q 467 -253 535 -187 q 272 -319 400 -319 m 310 33 q 411 61 362 33 q 488 142 460 89 l 488 701 q 435 711 467 707 q 376 715 404 715 q 180 635 249 715 q 111 365 111 556 q 169 98 111 163 q 310 33 228 33 m 182 878 l 304 1122 l 357 1122 l 479 878 l 435 878 l 325 1104 l 336 1104 l 226 878 l 182 878 z "},"ģ":{"ha":635,"x_min":61,"x_max":535,"o":"m 272 -319 q 184 -311 231 -319 q 103 -289 138 -303 l 103 -242 q 191 -266 149 -258 q 272 -274 233 -274 q 433 -220 378 -274 q 488 -32 488 -167 l 488 69 l 483 69 q 413 13 458 38 q 307 -12 368 -12 q 135 65 209 -12 q 61 360 61 143 q 145 666 61 571 q 376 761 228 761 q 461 754 416 761 q 535 736 506 747 l 535 -29 q 467 -253 535 -187 q 272 -319 400 -319 m 310 33 q 411 61 362 33 q 488 142 460 89 l 488 701 q 435 711 467 707 q 376 715 404 715 q 180 635 249 715 q 111 365 111 556 q 169 98 111 163 q 310 33 228 33 m 333 944 q 300 959 313 944 q 288 1004 288 974 q 295 1063 288 1029 q 318 1128 303 1096 l 349 1128 q 330 1063 334 1090 q 325 1010 325 1035 l 322 1032 l 331 1032 q 361 1019 349 1032 q 374 988 374 1007 q 333 944 374 944 z "},"ġ":{"ha":635,"x_min":61,"x_max":535,"o":"m 272 -319 q 184 -311 231 -319 q 103 -289 138 -303 l 103 -242 q 191 -266 149 -258 q 272 -274 233 -274 q 433 -220 378 -274 q 488 -32 488 -167 l 488 69 l 483 69 q 413 13 458 38 q 307 -12 368 -12 q 135 65 209 -12 q 61 360 61 143 q 145 666 61 571 q 376 761 228 761 q 461 754 416 761 q 535 736 506 747 l 535 -29 q 467 -253 535 -187 q 272 -319 400 -319 m 310 33 q 411 61 362 33 q 488 142 460 89 l 488 701 q 435 711 467 707 q 376 715 404 715 q 180 635 249 715 q 111 365 111 556 q 169 98 111 163 q 310 33 228 33 m 331 944 q 288 988 288 944 q 331 1032 288 1032 q 374 988 374 1032 q 331 944 374 944 z "},"ḡ":{"ha":635,"x_min":61,"x_max":535,"o":"m 272 -319 q 184 -311 231 -319 q 103 -289 138 -303 l 103 -242 q 191 -266 149 -258 q 272 -274 233 -274 q 433 -220 378 -274 q 488 -32 488 -167 l 488 69 l 483 69 q 413 13 458 38 q 307 -12 368 -12 q 135 65 209 -12 q 61 360 61 143 q 145 666 61 571 q 376 761 228 761 q 461 754 416 761 q 535 736 506 747 l 535 -29 q 467 -253 535 -187 q 272 -319 400 -319 m 310 33 q 411 61 362 33 q 488 142 460 89 l 488 701 q 435 711 467 707 q 376 715 404 715 q 180 635 249 715 q 111 365 111 556 q 169 98 111 163 q 310 33 228 33 m 157 968 l 157 1008 l 504 1008 l 504 968 l 157 968 z "},"h":{"ha":646,"x_min":100,"x_max":553,"o":"m 100 0 l 100 1122 l 147 1122 l 147 664 l 151 664 q 247 738 193 714 q 357 761 300 761 q 497 713 440 761 q 553 535 553 665 l 553 0 l 506 0 l 506 538 q 464 676 506 639 q 354 714 422 714 q 246 688 306 714 q 147 590 186 661 l 147 0 l 100 0 z "},"ħ":{"ha":646,"x_min":4,"x_max":553,"o":"m 100 0 l 100 1122 l 147 1122 l 147 664 l 151 664 q 247 738 193 714 q 357 761 300 761 q 497 713 440 761 q 553 535 553 665 l 553 0 l 506 0 l 506 538 q 464 676 506 639 q 354 714 422 714 q 246 688 306 714 q 147 590 186 661 l 147 0 l 100 0 m 4 921 l 4 963 l 356 963 l 356 921 l 4 921 z "},"ḫ":{"ha":646,"x_min":100,"x_max":553,"o":"m 100 0 l 100 1122 l 147 1122 l 147 664 l 151 664 q 247 738 193 714 q 357 761 300 761 q 497 713 440 761 q 553 535 553 665 l 553 0 l 506 0 l 506 538 q 464 676 506 639 q 354 714 422 714 q 246 688 306 714 q 147 590 186 661 l 147 0 l 100 0 m 328 -278 q 217 -235 260 -278 q 172 -111 174 -192 l 211 -111 q 245 -207 214 -176 q 328 -237 276 -237 q 410 -207 380 -237 q 442 -111 440 -176 l 481 -111 q 438 -235 479 -193 q 328 -278 396 -278 z "},"ĥ":{"ha":646,"x_min":100,"x_max":553,"o":"m 100 0 l 100 1122 l 147 1122 l 147 664 l 151 664 q 247 738 193 714 q 357 761 300 761 q 497 713 440 761 q 553 535 553 665 l 553 0 l 506 0 l 506 538 q 464 676 506 639 q 354 714 422 714 q 246 688 306 714 q 147 590 186 661 l 147 0 l 100 0 m 164 1189 l 300 1378 l 353 1378 l 489 1189 l 440 1189 l 321 1357 l 332 1357 l 213 1189 l 164 1189 z "},"ḥ":{"ha":646,"x_min":100,"x_max":553,"o":"m 100 0 l 100 1122 l 147 1122 l 147 664 l 151 664 q 247 738 193 714 q 357 761 300 761 q 497 713 440 761 q 553 535 553 665 l 553 0 l 506 0 l 506 538 q 464 676 506 639 q 354 714 422 714 q 246 688 306 714 q 147 590 186 661 l 147 0 l 100 0 m 326 -215 q 295 -203 308 -215 q 283 -172 283 -192 q 295 -140 283 -153 q 326 -128 308 -128 q 357 -140 345 -128 q 369 -172 369 -153 q 357 -203 369 -192 q 326 -215 345 -215 z "},"i":{"ha":247,"x_min":81,"x_max":167,"o":"m 100 0 l 100 750 l 147 750 l 147 0 l 100 0 m 124 944 q 81 988 81 944 q 124 1032 81 1032 q 167 988 167 1032 q 124 944 167 944 z "},"ı":{"ha":247,"x_min":100,"x_max":147,"o":"m 100 0 l 100 750 l 147 750 l 147 0 l 100 0 z "},"í":{"ha":247,"x_min":100,"x_max":257,"o":"m 100 0 l 100 750 l 147 750 l 147 0 l 100 0 m 104 878 l 207 1122 l 257 1122 l 143 878 l 104 878 z "},"ĭ":{"ha":247,"x_min":-31,"x_max":278,"o":"m 100 0 l 100 750 l 147 750 l 147 0 l 100 0 m 125 886 q 15 939 57 886 q -31 1103 -28 992 l 8 1103 q 43 966 14 1007 q 125 925 73 925 q 207 966 177 925 q 239 1103 236 1007 l 278 1103 q 234 939 275 992 q 125 886 193 886 z "},"î":{"ha":247,"x_min":-25,"x_max":272,"o":"m 100 0 l 100 750 l 147 750 l 147 0 l 100 0 m -25 878 l 97 1122 l 150 1122 l 272 878 l 228 878 l 118 1104 l 129 1104 l 19 878 l -25 878 z "},"ȉ":{"ha":247,"x_min":-50,"x_max":231,"o":"m 100 0 l 100 750 l 147 750 l 147 0 l 100 0 m 193 878 l 126 1122 l 172 1122 l 231 878 l 193 878 m 17 878 l -50 1122 l -4 1122 l 54 878 l 17 878 z "},"ï":{"ha":247,"x_min":-31,"x_max":278,"o":"m 100 0 l 100 750 l 147 750 l 147 0 l 100 0 m 235 944 q 204 956 216 944 q 192 988 192 968 q 204 1019 192 1007 q 235 1032 216 1032 q 266 1019 253 1032 q 278 988 278 1007 q 266 956 278 968 q 235 944 253 944 m 13 944 q -18 956 -6 944 q -31 988 -31 968 q -18 1019 -31 1007 q 13 1032 -6 1032 q 43 1019 31 1032 q 56 988 56 1007 q 43 956 56 968 q 13 944 31 944 z "},"ḯ":{"ha":247,"x_min":-31,"x_max":278,"o":"m 100 0 l 100 750 l 147 750 l 147 0 l 100 0 z "},"ị":{"ha":247,"x_min":81,"x_max":167,"o":"m 100 0 l 100 750 l 147 750 l 147 0 l 100 0 m 124 944 q 81 988 81 944 q 124 1032 81 1032 q 167 988 167 1032 q 124 944 167 944 m 124 -215 q 93 -203 105 -215 q 81 -172 81 -192 q 93 -140 81 -153 q 124 -128 105 -128 q 155 -140 142 -128 q 167 -172 167 -153 q 155 -203 167 -192 q 124 -215 142 -215 z "},"ì":{"ha":247,"x_min":-10,"x_max":147,"o":"m 100 0 l 100 750 l 147 750 l 147 0 l 100 0 m 104 878 l -10 1122 l 40 1122 l 143 878 l 104 878 z "},"ỉ":{"ha":247,"x_min":28,"x_max":243,"o":"m 100 0 l 100 750 l 147 750 l 147 0 l 100 0 m 101 878 q 126 950 101 926 q 176 992 151 974 q 201 1039 201 1010 q 184 1078 201 1065 q 124 1092 167 1092 q 75 1088 101 1092 q 28 1075 49 1083 l 28 1114 q 72 1126 47 1121 q 122 1131 97 1131 q 243 1040 243 1131 q 218 976 243 997 q 169 936 194 956 q 144 878 144 917 l 101 878 z "},"ȋ":{"ha":247,"x_min":-31,"x_max":278,"o":"m 100 0 l 100 750 l 147 750 l 147 0 l 100 0 m -31 897 q 13 1063 -28 1011 q 122 1114 54 1114 q 233 1062 190 1114 q 278 897 275 1010 l 239 897 q 204 1033 233 993 q 122 1074 174 1074 q 41 1033 70 1074 q 8 897 11 993 l -31 897 z "},"ī":{"ha":247,"x_min":-50,"x_max":297,"o":"m 100 0 l 100 750 l 147 750 l 147 0 l 100 0 m -50 968 l -50 1008 l 297 1008 l 297 968 l -50 968 z "},"į":{"ha":247,"x_min":0,"x_max":215,"o":"m 100 0 l 100 750 l 147 750 l 147 0 l 100 0 m 124 944 q 81 988 81 944 q 124 1032 81 1032 q 167 988 167 1032 q 124 944 167 944 m 124 -278 q 33 -247 65 -278 q 0 -161 0 -217 q 31 -62 0 -109 q 128 32 61 -16 l 147 0 q 65 -79 90 -42 q 39 -158 39 -117 q 122 -242 39 -242 q 215 -211 172 -242 l 215 -250 q 172 -271 197 -264 q 124 -278 147 -278 z "},"ĩ":{"ha":247,"x_min":-50,"x_max":297,"o":"m 100 0 l 100 750 l 147 750 l 147 0 l 100 0 m 206 958 q 119 985 158 958 q 42 1013 79 1013 q -50 963 -10 1013 l -50 1008 q 42 1051 -16 1051 q 128 1024 89 1051 q 206 997 168 997 q 297 1047 258 997 l 297 1001 q 206 958 263 958 z "},"j":{"ha":247,"x_min":-18,"x_max":167,"o":"m 17 -319 l -18 -296 q 72 -106 44 -197 q 100 115 100 -15 l 100 750 l 147 750 l 147 122 q 116 -117 147 -21 q 17 -319 85 -213 m 124 944 q 81 988 81 944 q 124 1032 81 1032 q 167 988 167 1032 q 124 944 167 944 z "},"ȷ":{"ha":247,"x_min":-18,"x_max":147,"o":"m 17 -319 l -18 -296 q 72 -106 44 -197 q 100 115 100 -15 l 100 750 l 147 750 l 147 122 q 116 -117 147 -21 q 17 -319 85 -213 z "},"ĵ":{"ha":247,"x_min":-25,"x_max":272,"o":"m 17 -319 l -18 -296 q 72 -106 44 -197 q 100 115 100 -15 l 100 750 l 147 750 l 147 122 q 116 -117 147 -21 q 17 -319 85 -213 m -25 878 l 97 1122 l 150 1122 l 272 878 l 228 878 l 118 1104 l 129 1104 l 19 878 l -25 878 z "},"k":{"ha":578,"x_min":100,"x_max":594,"o":"m 536 0 l 250 383 l 515 750 l 572 750 l 301 375 l 301 392 l 594 0 l 536 0 m 136 361 l 136 406 l 278 406 l 278 361 l 136 361 m 100 0 l 100 1122 l 147 1122 l 147 0 l 100 0 z "},"ķ":{"ha":578,"x_min":100,"x_max":594,"o":"m 536 0 l 250 383 l 515 750 l 572 750 l 301 375 l 301 392 l 594 0 l 536 0 m 136 361 l 136 406 l 278 406 l 278 361 l 136 361 m 100 0 l 100 1122 l 147 1122 l 147 0 l 100 0 m 303 -311 q 322 -246 317 -274 q 326 -193 326 -218 l 329 -215 l 321 -215 q 290 -203 302 -215 q 278 -171 278 -190 q 318 -128 278 -128 q 351 -142 339 -128 q 364 -187 364 -157 q 356 -246 364 -212 q 333 -311 349 -279 l 303 -311 z "},"ĸ":{"ha":578,"x_min":100,"x_max":594,"o":"m 536 0 l 250 383 l 515 750 l 572 750 l 301 375 l 301 392 l 594 0 l 536 0 m 100 0 l 100 750 l 147 750 l 147 0 l 100 0 m 136 361 l 136 406 l 278 406 l 278 361 l 136 361 z "},"l":{"ha":247,"x_min":100,"x_max":147,"o":"m 100 0 l 100 1122 l 147 1122 l 147 0 l 100 0 z "},"ĺ":{"ha":247,"x_min":100,"x_max":243,"o":"m 100 0 l 100 1122 l 147 1122 l 147 0 l 100 0 m 104 1189 l 193 1378 l 243 1378 l 143 1189 l 104 1189 z "},"ľ":{"ha":247,"x_min":100,"x_max":261,"o":"m 100 0 l 100 1122 l 147 1122 l 147 0 l 100 0 m 204 819 q 215 975 213 892 q 217 1122 217 1058 l 261 1122 q 256 974 261 1054 q 236 819 251 893 l 204 819 z "},"ļ":{"ha":247,"x_min":81,"x_max":167,"o":"m 100 0 l 100 1122 l 147 1122 l 147 0 l 100 0 m 106 -311 q 125 -246 120 -274 q 129 -193 129 -218 l 132 -215 l 124 -215 q 93 -203 105 -215 q 81 -171 81 -190 q 121 -128 81 -128 q 154 -142 142 -128 q 167 -187 167 -157 q 159 -246 167 -212 q 136 -311 151 -279 l 106 -311 z "},"ŀ":{"ha":247,"x_min":100,"x_max":286,"o":"m 100 0 l 100 1122 l 147 1122 l 147 0 l 100 0 m 243 507 q 200 550 200 507 q 243 594 200 594 q 286 550 286 594 q 243 507 286 507 z "},"ḷ":{"ha":247,"x_min":81,"x_max":167,"o":"m 100 0 l 100 1122 l 147 1122 l 147 0 l 100 0 m 124 -215 q 93 -203 105 -215 q 81 -172 81 -192 q 93 -140 81 -153 q 124 -128 105 -128 q 155 -140 142 -128 q 167 -172 167 -153 q 155 -203 167 -192 q 124 -215 142 -215 z "},"ǉ":{"ha":494,"x_min":100,"x_max":414,"o":"m 100 0 l 100 1122 l 147 1122 l 147 0 l 100 0 m 264 -319 l 229 -296 q 319 -106 292 -197 q 347 115 347 -15 l 347 750 l 394 750 l 394 122 q 363 -117 394 -21 q 264 -319 332 -213 m 371 944 q 328 988 328 944 q 371 1032 328 1032 q 414 988 414 1032 q 371 944 414 944 z "},"ḻ":{"ha":247,"x_min":-29,"x_max":276,"o":"m 100 0 l 100 1122 l 147 1122 l 147 0 l 100 0 m -29 -192 l -29 -151 l 276 -151 l 276 -192 l -29 -192 z "},"ł":{"ha":247,"x_min":4,"x_max":243,"o":"m 100 0 l 100 1122 l 147 1122 l 147 0 l 100 0 m 32 376 l 4 404 l 215 615 l 243 588 l 32 376 z "},"m":{"ha":1007,"x_min":100,"x_max":914,"o":"m 100 0 l 100 750 l 142 750 l 146 663 l 151 663 q 243 738 192 714 q 349 761 294 761 q 479 713 426 761 q 532 535 532 665 l 532 0 l 485 0 l 485 535 q 444 676 485 638 q 343 715 404 715 q 242 688 299 715 q 147 586 185 660 l 147 0 l 100 0 m 867 0 l 867 535 q 825 676 867 638 q 722 715 783 715 q 618 685 678 715 q 521 569 558 656 l 501 628 q 611 733 550 705 q 726 761 672 761 q 859 713 803 761 q 914 535 914 665 l 914 0 l 867 0 z "},"ṃ":{"ha":1007,"x_min":100,"x_max":914,"o":"m 100 0 l 100 750 l 142 750 l 146 663 l 151 663 q 243 738 192 714 q 349 761 294 761 q 479 713 426 761 q 532 535 532 665 l 532 0 l 485 0 l 485 535 q 444 676 485 638 q 343 715 404 715 q 242 688 299 715 q 147 586 185 660 l 147 0 l 100 0 m 867 0 l 867 535 q 825 676 867 638 q 722 715 783 715 q 618 685 678 715 q 521 569 558 656 l 501 628 q 611 733 550 705 q 726 761 672 761 q 859 713 803 761 q 914 535 914 665 l 914 0 l 867 0 m 508 -215 q 477 -203 490 -215 q 465 -172 465 -192 q 477 -140 465 -153 q 508 -128 490 -128 q 539 -140 527 -128 q 551 -172 551 -153 q 539 -203 551 -192 q 508 -215 527 -215 z "},"n":{"ha":646,"x_min":100,"x_max":553,"o":"m 100 0 l 100 750 l 142 750 l 146 664 l 151 664 q 357 761 233 761 q 497 714 440 761 q 553 539 553 666 l 553 0 l 506 0 l 506 538 q 464 677 506 639 q 354 715 422 715 q 246 688 306 715 q 147 590 186 661 l 147 0 l 100 0 z "},"ń":{"ha":646,"x_min":100,"x_max":553,"o":"m 100 0 l 100 750 l 142 750 l 146 664 l 151 664 q 357 761 233 761 q 497 714 440 761 q 553 539 553 666 l 553 0 l 506 0 l 506 538 q 464 677 506 639 q 354 715 422 715 q 246 688 306 715 q 147 590 186 661 l 147 0 l 100 0 m 307 878 l 410 1122 l 460 1122 l 346 878 l 307 878 z "},"ŉ":{"ha":646,"x_min":7,"x_max":553,"o":"m 100 0 l 100 750 l 142 750 l 146 664 l 151 664 q 357 761 233 761 q 497 714 440 761 q 553 539 553 666 l 553 0 l 506 0 l 506 538 q 464 677 506 639 q 354 715 422 715 q 246 688 306 715 q 147 590 186 661 l 147 0 l 100 0 m 32 944 q 51 1010 47 982 q 56 1063 56 1038 l 58 1040 l 50 1040 q 19 1053 31 1040 q 7 1085 7 1065 q 47 1128 7 1128 q 81 1113 68 1128 q 93 1068 93 1099 q 85 1010 93 1043 q 63 944 78 976 l 32 944 z "},"ň":{"ha":646,"x_min":100,"x_max":553,"o":"m 100 0 l 100 750 l 142 750 l 146 664 l 151 664 q 357 761 233 761 q 497 714 440 761 q 553 539 553 666 l 553 0 l 506 0 l 506 538 q 464 677 506 639 q 354 715 422 715 q 246 688 306 715 q 147 590 186 661 l 147 0 l 100 0 m 300 878 l 178 1122 l 222 1122 l 332 896 l 321 896 l 431 1122 l 475 1122 l 353 878 l 300 878 z "},"ņ":{"ha":646,"x_min":100,"x_max":553,"o":"m 100 0 l 100 750 l 142 750 l 146 664 l 151 664 q 357 761 233 761 q 497 714 440 761 q 553 539 553 666 l 553 0 l 506 0 l 506 538 q 464 677 506 639 q 354 715 422 715 q 246 688 306 715 q 147 590 186 661 l 147 0 l 100 0 m 308 -311 q 327 -246 323 -274 q 332 -193 332 -218 l 335 -215 l 326 -215 q 295 -203 308 -215 q 283 -171 283 -190 q 324 -128 283 -128 q 357 -142 344 -128 q 369 -187 369 -157 q 362 -246 369 -212 q 339 -311 354 -279 l 308 -311 z "},"ṅ":{"ha":646,"x_min":100,"x_max":553,"o":"m 100 0 l 100 750 l 142 750 l 146 664 l 151 664 q 357 761 233 761 q 497 714 440 761 q 553 539 553 666 l 553 0 l 506 0 l 506 538 q 464 677 506 639 q 354 715 422 715 q 246 688 306 715 q 147 590 186 661 l 147 0 l 100 0 m 326 944 q 283 988 283 944 q 326 1032 283 1032 q 369 988 369 1032 q 326 944 369 944 z "},"ṇ":{"ha":646,"x_min":100,"x_max":553,"o":"m 100 0 l 100 750 l 142 750 l 146 664 l 151 664 q 357 761 233 761 q 497 714 440 761 q 553 539 553 666 l 553 0 l 506 0 l 506 538 q 464 677 506 639 q 354 715 422 715 q 246 688 306 715 q 147 590 186 661 l 147 0 l 100 0 m 326 -215 q 295 -203 308 -215 q 283 -172 283 -192 q 295 -140 283 -153 q 326 -128 308 -128 q 357 -140 345 -128 q 369 -172 369 -153 q 357 -203 369 -192 q 326 -215 345 -215 z "},"ŋ":{"ha":646,"x_min":100,"x_max":553,"o":"m 422 -319 l 388 -296 q 478 -106 450 -197 q 506 115 506 -15 l 506 538 q 464 677 506 639 q 354 715 422 715 q 246 688 306 715 q 147 590 186 661 l 147 0 l 100 0 l 100 750 l 142 750 l 146 664 l 151 664 q 357 761 233 761 q 497 713 440 761 q 553 535 553 665 l 553 94 q 519 -120 549 -28 q 422 -319 490 -213 z "},"ǌ":{"ha":893,"x_min":100,"x_max":813,"o":"m 100 0 l 100 750 l 142 750 l 146 664 l 151 664 q 357 761 233 761 q 497 714 440 761 q 553 539 553 666 l 553 0 l 506 0 l 506 538 q 464 677 506 639 q 354 715 422 715 q 246 688 306 715 q 147 590 186 661 l 147 0 l 100 0 m 663 -319 l 628 -296 q 718 -106 690 -197 q 746 115 746 -15 l 746 750 l 793 750 l 793 122 q 762 -117 793 -21 q 663 -319 731 -213 m 769 944 q 726 988 726 944 q 769 1032 726 1032 q 813 988 813 1032 q 769 944 813 944 z "},"ṉ":{"ha":646,"x_min":100,"x_max":553,"o":"m 100 0 l 100 750 l 142 750 l 146 664 l 151 664 q 357 761 233 761 q 497 714 440 761 q 553 539 553 666 l 553 0 l 506 0 l 506 538 q 464 677 506 639 q 354 715 422 715 q 246 688 306 715 q 147 590 186 661 l 147 0 l 100 0 m 174 -192 l 174 -151 l 479 -151 l 479 -192 l 174 -192 z "},"ñ":{"ha":646,"x_min":100,"x_max":553,"o":"m 100 0 l 100 750 l 142 750 l 146 664 l 151 664 q 357 761 233 761 q 497 714 440 761 q 553 539 553 666 l 553 0 l 506 0 l 506 538 q 464 677 506 639 q 354 715 422 715 q 246 688 306 715 q 147 590 186 661 l 147 0 l 100 0 m 408 958 q 322 985 361 958 q 244 1013 282 1013 q 153 963 192 1013 l 153 1008 q 244 1051 187 1051 q 331 1024 292 1051 q 408 997 371 997 q 500 1047 460 997 l 500 1001 q 408 958 466 958 z "},"o":{"ha":633,"x_min":61,"x_max":572,"o":"m 317 -12 q 132 75 202 -12 q 61 375 61 163 q 131 674 61 588 q 317 761 200 761 q 502 674 431 761 q 572 375 572 588 q 503 75 572 163 q 317 -12 433 -12 m 317 33 q 466 105 410 33 q 522 372 522 176 q 466 644 522 572 q 317 715 410 715 q 167 644 223 715 q 111 378 111 574 q 167 106 111 178 q 317 33 223 33 z "},"ó":{"ha":633,"x_min":61,"x_max":572,"o":"m 317 -12 q 132 75 202 -12 q 61 375 61 163 q 131 674 61 588 q 317 761 200 761 q 502 674 431 761 q 572 375 572 588 q 503 75 572 163 q 317 -12 433 -12 m 317 33 q 466 105 410 33 q 522 372 522 176 q 466 644 522 572 q 317 715 410 715 q 167 644 223 715 q 111 378 111 574 q 167 106 111 178 q 317 33 223 33 m 297 878 l 400 1122 l 450 1122 l 336 878 l 297 878 z "},"ŏ":{"ha":633,"x_min":61,"x_max":572,"o":"m 317 -12 q 132 75 202 -12 q 61 375 61 163 q 131 674 61 588 q 317 761 200 761 q 502 674 431 761 q 572 375 572 588 q 503 75 572 163 q 317 -12 433 -12 m 317 33 q 466 105 410 33 q 522 372 522 176 q 466 644 522 572 q 317 715 410 715 q 167 644 223 715 q 111 378 111 574 q 167 106 111 178 q 317 33 223 33 m 318 886 q 208 939 250 886 q 163 1103 165 992 l 201 1103 q 236 966 207 1007 q 318 925 266 925 q 400 966 370 925 q 432 1103 429 1007 l 471 1103 q 427 939 468 992 q 318 886 386 886 z "},"ô":{"ha":633,"x_min":61,"x_max":572,"o":"m 317 -12 q 132 75 202 -12 q 61 375 61 163 q 131 674 61 588 q 317 761 200 761 q 502 674 431 761 q 572 375 572 588 q 503 75 572 163 q 317 -12 433 -12 m 317 33 q 466 105 410 33 q 522 372 522 176 q 466 644 522 572 q 317 715 410 715 q 167 644 223 715 q 111 378 111 574 q 167 106 111 178 q 317 33 223 33 m 168 878 l 290 1122 l 343 1122 l 465 878 l 421 878 l 311 1104 l 322 1104 l 213 878 l 168 878 z "},"ố":{"ha":633,"x_min":61,"x_max":579,"o":"m 317 -12 q 132 75 202 -12 q 61 375 61 163 q 131 674 61 588 q 317 761 200 761 q 502 674 431 761 q 572 375 572 588 q 503 75 572 163 q 317 -12 433 -12 m 317 33 q 466 105 410 33 q 522 372 522 176 q 466 644 522 572 q 317 715 410 715 q 167 644 223 715 q 111 378 111 574 q 167 106 111 178 q 317 33 223 33 m 168 878 l 290 1122 l 343 1122 l 465 878 l 421 878 l 311 1104 l 322 1104 l 213 878 l 168 878 m 440 1108 l 529 1297 l 579 1297 l 479 1108 l 440 1108 z "},"ộ":{"ha":633,"x_min":61,"x_max":572,"o":"m 317 -12 q 132 75 202 -12 q 61 375 61 163 q 131 674 61 588 q 317 761 200 761 q 502 674 431 761 q 572 375 572 588 q 503 75 572 163 q 317 -12 433 -12 m 317 33 q 466 105 410 33 q 522 372 522 176 q 466 644 522 572 q 317 715 410 715 q 167 644 223 715 q 111 378 111 574 q 167 106 111 178 q 317 33 223 33 m 317 -215 q 286 -203 298 -215 q 274 -172 274 -192 q 286 -140 274 -153 q 317 -128 298 -128 q 348 -140 335 -128 q 360 -172 360 -153 q 348 -203 360 -192 q 317 -215 335 -215 m 168 878 l 290 1122 l 343 1122 l 465 878 l 421 878 l 311 1104 l 322 1104 l 213 878 l 168 878 z "},"ồ":{"ha":633,"x_min":61,"x_max":572,"o":"m 317 -12 q 132 75 202 -12 q 61 375 61 163 q 131 674 61 588 q 317 761 200 761 q 502 674 431 761 q 572 375 572 588 q 503 75 572 163 q 317 -12 433 -12 m 317 33 q 466 105 410 33 q 522 372 522 176 q 466 644 522 572 q 317 715 410 715 q 167 644 223 715 q 111 378 111 574 q 167 106 111 178 q 317 33 223 33 m 168 878 l 290 1122 l 343 1122 l 465 878 l 421 878 l 311 1104 l 322 1104 l 213 878 l 168 878 m 440 1108 l 340 1297 l 390 1297 l 479 1108 l 440 1108 z "},"ổ":{"ha":633,"x_min":61,"x_max":572,"o":"m 317 -12 q 132 75 202 -12 q 61 375 61 163 q 131 674 61 588 q 317 761 200 761 q 502 674 431 761 q 572 375 572 588 q 503 75 572 163 q 317 -12 433 -12 m 317 33 q 466 105 410 33 q 522 372 522 176 q 466 644 522 572 q 317 715 410 715 q 167 644 223 715 q 111 378 111 574 q 167 106 111 178 q 317 33 223 33 m 168 878 l 290 1122 l 343 1122 l 465 878 l 421 878 l 311 1104 l 322 1104 l 213 878 l 168 878 m 424 1108 q 452 1162 426 1147 q 503 1188 478 1177 q 529 1224 529 1198 q 514 1249 529 1239 q 451 1260 499 1260 q 328 1233 387 1260 l 328 1272 q 385 1290 351 1283 q 451 1297 418 1297 q 541 1276 512 1297 q 571 1225 571 1256 q 545 1173 571 1188 q 494 1147 520 1158 q 465 1108 468 1135 l 424 1108 z "},"ỗ":{"ha":633,"x_min":61,"x_max":572,"o":"m 317 -12 q 132 75 202 -12 q 61 375 61 163 q 131 674 61 588 q 317 761 200 761 q 502 674 431 761 q 572 375 572 588 q 503 75 572 163 q 317 -12 433 -12 m 317 33 q 466 105 410 33 q 522 372 522 176 q 466 644 522 572 q 317 715 410 715 q 167 644 223 715 q 111 378 111 574 q 167 106 111 178 q 317 33 223 33 m 168 878 l 290 1122 l 343 1122 l 465 878 l 421 878 l 311 1104 l 322 1104 l 213 878 l 168 878 m 399 1164 q 312 1191 351 1164 q 235 1218 272 1218 q 185 1206 207 1218 q 143 1168 163 1193 l 143 1214 q 235 1257 177 1257 q 322 1230 282 1257 q 399 1203 361 1203 q 449 1215 426 1203 q 490 1253 471 1228 l 490 1207 q 399 1164 456 1164 z "},"ȍ":{"ha":633,"x_min":61,"x_max":572,"o":"m 317 -12 q 132 75 202 -12 q 61 375 61 163 q 131 674 61 588 q 317 761 200 761 q 502 674 431 761 q 572 375 572 588 q 503 75 572 163 q 317 -12 433 -12 m 317 33 q 466 105 410 33 q 522 372 522 176 q 466 644 522 572 q 317 715 410 715 q 167 644 223 715 q 111 378 111 574 q 167 106 111 178 q 317 33 223 33 m 386 878 l 319 1122 l 365 1122 l 424 878 l 386 878 m 210 878 l 143 1122 l 189 1122 l 247 878 l 210 878 z "},"ö":{"ha":633,"x_min":61,"x_max":572,"o":"m 317 -12 q 132 75 202 -12 q 61 375 61 163 q 131 674 61 588 q 317 761 200 761 q 502 674 431 761 q 572 375 572 588 q 503 75 572 163 q 317 -12 433 -12 m 317 33 q 466 105 410 33 q 522 372 522 176 q 466 644 522 572 q 317 715 410 715 q 167 644 223 715 q 111 378 111 574 q 167 106 111 178 q 317 33 223 33 m 428 944 q 397 956 409 944 q 385 988 385 968 q 397 1019 385 1007 q 428 1032 409 1032 q 459 1019 447 1032 q 471 988 471 1007 q 459 956 471 968 q 428 944 447 944 m 206 944 q 175 956 187 944 q 163 988 163 968 q 175 1019 163 1007 q 206 1032 187 1032 q 236 1019 224 1032 q 249 988 249 1007 q 236 956 249 968 q 206 944 224 944 z "},"ȫ":{"ha":633,"x_min":61,"x_max":572,"o":"m 317 -12 q 132 75 202 -12 q 61 375 61 163 q 131 674 61 588 q 317 761 200 761 q 502 674 431 761 q 572 375 572 588 q 503 75 572 163 q 317 -12 433 -12 m 317 33 q 466 105 410 33 q 522 372 522 176 q 466 644 522 572 q 317 715 410 715 q 167 644 223 715 q 111 378 111 574 q 167 106 111 178 q 317 33 223 33 z "},"ȱ":{"ha":633,"x_min":61,"x_max":572,"o":"m 317 -12 q 132 75 202 -12 q 61 375 61 163 q 131 674 61 588 q 317 761 200 761 q 502 674 431 761 q 572 375 572 588 q 503 75 572 163 q 317 -12 433 -12 m 317 33 q 466 105 410 33 q 522 372 522 176 q 466 644 522 572 q 317 715 410 715 q 167 644 223 715 q 111 378 111 574 q 167 106 111 178 q 317 33 223 33 z "},"ọ":{"ha":633,"x_min":61,"x_max":572,"o":"m 317 -12 q 132 75 202 -12 q 61 375 61 163 q 131 674 61 588 q 317 761 200 761 q 502 674 431 761 q 572 375 572 588 q 503 75 572 163 q 317 -12 433 -12 m 317 33 q 466 105 410 33 q 522 372 522 176 q 466 644 522 572 q 317 715 410 715 q 167 644 223 715 q 111 378 111 574 q 167 106 111 178 q 317 33 223 33 m 317 -215 q 286 -203 298 -215 q 274 -172 274 -192 q 286 -140 274 -153 q 317 -128 298 -128 q 348 -140 335 -128 q 360 -172 360 -153 q 348 -203 360 -192 q 317 -215 335 -215 z "},"ò":{"ha":633,"x_min":61,"x_max":572,"o":"m 317 -12 q 132 75 202 -12 q 61 375 61 163 q 131 674 61 588 q 317 761 200 761 q 502 674 431 761 q 572 375 572 588 q 503 75 572 163 q 317 -12 433 -12 m 317 33 q 466 105 410 33 q 522 372 522 176 q 466 644 522 572 q 317 715 410 715 q 167 644 223 715 q 111 378 111 574 q 167 106 111 178 q 317 33 223 33 m 297 878 l 183 1122 l 233 1122 l 336 878 l 297 878 z "},"ỏ":{"ha":633,"x_min":61,"x_max":572,"o":"m 317 -12 q 132 75 202 -12 q 61 375 61 163 q 131 674 61 588 q 317 761 200 761 q 502 674 431 761 q 572 375 572 588 q 503 75 572 163 q 317 -12 433 -12 m 317 33 q 466 105 410 33 q 522 372 522 176 q 466 644 522 572 q 317 715 410 715 q 167 644 223 715 q 111 378 111 574 q 167 106 111 178 q 317 33 223 33 m 294 878 q 319 950 294 926 q 369 992 344 974 q 394 1039 394 1010 q 377 1078 394 1065 q 317 1092 360 1092 q 268 1088 294 1092 q 221 1075 242 1083 l 221 1114 q 265 1126 240 1121 q 315 1131 290 1131 q 436 1040 436 1131 q 411 976 436 997 q 362 936 387 956 q 338 878 338 917 l 294 878 z "},"ơ":{"ha":633,"x_min":61,"x_max":588,"o":"m 317 -12 q 132 75 202 -12 q 61 375 61 163 q 131 674 61 588 q 317 761 200 761 q 372 759 346 761 q 418 757 399 757 q 506 784 470 757 q 542 871 542 810 q 537 923 542 900 q 525 969 532 946 l 571 969 q 583 923 579 946 q 588 869 588 901 q 542 752 588 792 q 429 711 496 711 l 443 729 q 572 375 572 647 q 503 75 572 163 q 317 -12 433 -12 m 317 33 q 466 105 410 33 q 522 372 522 176 q 466 644 522 572 q 317 715 410 715 q 167 644 223 715 q 111 378 111 574 q 167 106 111 178 q 317 33 223 33 z "},"ớ":{"ha":633,"x_min":61,"x_max":588,"o":"m 317 -12 q 132 75 202 -12 q 61 375 61 163 q 131 674 61 588 q 317 761 200 761 q 372 759 346 761 q 418 757 399 757 q 506 784 470 757 q 542 871 542 810 q 537 923 542 900 q 525 969 532 946 l 571 969 q 583 923 579 946 q 588 869 588 901 q 542 752 588 792 q 429 711 496 711 l 443 729 q 572 375 572 647 q 503 75 572 163 q 317 -12 433 -12 m 317 33 q 466 105 410 33 q 522 372 522 176 q 466 644 522 572 q 317 715 410 715 q 167 644 223 715 q 111 378 111 574 q 167 106 111 178 q 317 33 223 33 m 297 878 l 400 1122 l 450 1122 l 336 878 l 297 878 z "},"ợ":{"ha":633,"x_min":61,"x_max":588,"o":"m 317 -12 q 132 75 202 -12 q 61 375 61 163 q 131 674 61 588 q 317 761 200 761 q 372 759 346 761 q 418 757 399 757 q 506 784 470 757 q 542 871 542 810 q 537 923 542 900 q 525 969 532 946 l 571 969 q 583 923 579 946 q 588 869 588 901 q 542 752 588 792 q 429 711 496 711 l 443 729 q 572 375 572 647 q 503 75 572 163 q 317 -12 433 -12 m 317 33 q 466 105 410 33 q 522 372 522 176 q 466 644 522 572 q 317 715 410 715 q 167 644 223 715 q 111 378 111 574 q 167 106 111 178 q 317 33 223 33 m 317 -215 q 286 -203 298 -215 q 274 -172 274 -192 q 286 -140 274 -153 q 317 -128 298 -128 q 348 -140 335 -128 q 360 -172 360 -153 q 348 -203 360 -192 q 317 -215 335 -215 z "},"ờ":{"ha":633,"x_min":61,"x_max":588,"o":"m 317 -12 q 132 75 202 -12 q 61 375 61 163 q 131 674 61 588 q 317 761 200 761 q 372 759 346 761 q 418 757 399 757 q 506 784 470 757 q 542 871 542 810 q 537 923 542 900 q 525 969 532 946 l 571 969 q 583 923 579 946 q 588 869 588 901 q 542 752 588 792 q 429 711 496 711 l 443 729 q 572 375 572 647 q 503 75 572 163 q 317 -12 433 -12 m 317 33 q 466 105 410 33 q 522 372 522 176 q 466 644 522 572 q 317 715 410 715 q 167 644 223 715 q 111 378 111 574 q 167 106 111 178 q 317 33 223 33 m 297 878 l 183 1122 l 233 1122 l 336 878 l 297 878 z "},"ở":{"ha":633,"x_min":61,"x_max":588,"o":"m 317 -12 q 132 75 202 -12 q 61 375 61 163 q 131 674 61 588 q 317 761 200 761 q 372 759 346 761 q 418 757 399 757 q 506 784 470 757 q 542 871 542 810 q 537 923 542 900 q 525 969 532 946 l 571 969 q 583 923 579 946 q 588 869 588 901 q 542 752 588 792 q 429 711 496 711 l 443 729 q 572 375 572 647 q 503 75 572 163 q 317 -12 433 -12 m 317 33 q 466 105 410 33 q 522 372 522 176 q 466 644 522 572 q 317 715 410 715 q 167 644 223 715 q 111 378 111 574 q 167 106 111 178 q 317 33 223 33 m 294 878 q 319 950 294 926 q 369 992 344 974 q 394 1039 394 1010 q 377 1078 394 1065 q 317 1092 360 1092 q 268 1088 294 1092 q 221 1075 242 1083 l 221 1114 q 265 1126 240 1121 q 315 1131 290 1131 q 436 1040 436 1131 q 411 976 436 997 q 362 936 387 956 q 338 878 338 917 l 294 878 z "},"ỡ":{"ha":633,"x_min":61,"x_max":588,"o":"m 317 -12 q 132 75 202 -12 q 61 375 61 163 q 131 674 61 588 q 317 761 200 761 q 372 759 346 761 q 418 757 399 757 q 506 784 470 757 q 542 871 542 810 q 537 923 542 900 q 525 969 532 946 l 571 969 q 583 923 579 946 q 588 869 588 901 q 542 752 588 792 q 429 711 496 711 l 443 729 q 572 375 572 647 q 503 75 572 163 q 317 -12 433 -12 m 317 33 q 466 105 410 33 q 522 372 522 176 q 466 644 522 572 q 317 715 410 715 q 167 644 223 715 q 111 378 111 574 q 167 106 111 178 q 317 33 223 33 m 399 958 q 312 985 351 958 q 235 1013 272 1013 q 143 963 183 1013 l 143 1008 q 235 1051 177 1051 q 322 1024 282 1051 q 399 997 361 997 q 490 1047 451 997 l 490 1001 q 399 958 456 958 z "},"ő":{"ha":633,"x_min":61,"x_max":572,"o":"m 317 -12 q 132 75 202 -12 q 61 375 61 163 q 131 674 61 588 q 317 761 200 761 q 502 674 431 761 q 572 375 572 588 q 503 75 572 163 q 317 -12 433 -12 m 317 33 q 466 105 410 33 q 522 372 522 176 q 466 644 522 572 q 317 715 410 715 q 167 644 223 715 q 111 378 111 574 q 167 106 111 178 q 317 33 223 33 m 386 878 l 446 1122 l 489 1122 l 422 878 l 386 878 m 211 878 l 271 1122 l 314 1122 l 247 878 l 211 878 z "},"ȏ":{"ha":633,"x_min":61,"x_max":572,"o":"m 317 -12 q 132 75 202 -12 q 61 375 61 163 q 131 674 61 588 q 317 761 200 761 q 502 674 431 761 q 572 375 572 588 q 503 75 572 163 q 317 -12 433 -12 m 317 33 q 466 105 410 33 q 522 372 522 176 q 466 644 522 572 q 317 715 410 715 q 167 644 223 715 q 111 378 111 574 q 167 106 111 178 q 317 33 223 33 m 163 897 q 206 1063 165 1011 q 315 1114 247 1114 q 426 1062 383 1114 q 471 897 468 1010 l 432 897 q 397 1033 426 993 q 315 1074 367 1074 q 234 1033 263 1074 q 201 897 204 993 l 163 897 z "},"ō":{"ha":633,"x_min":61,"x_max":572,"o":"m 317 -12 q 132 75 202 -12 q 61 375 61 163 q 131 674 61 588 q 317 761 200 761 q 502 674 431 761 q 572 375 572 588 q 503 75 572 163 q 317 -12 433 -12 m 317 33 q 466 105 410 33 q 522 372 522 176 q 466 644 522 572 q 317 715 410 715 q 167 644 223 715 q 111 378 111 574 q 167 106 111 178 q 317 33 223 33 m 143 968 l 143 1008 l 490 1008 l 490 968 l 143 968 z "},"ṓ":{"ha":633,"x_min":61,"x_max":572,"o":"m 317 -12 q 132 75 202 -12 q 61 375 61 163 q 131 674 61 588 q 317 761 200 761 q 502 674 431 761 q 572 375 572 588 q 503 75 572 163 q 317 -12 433 -12 m 317 33 q 466 105 410 33 q 522 372 522 176 q 466 644 522 572 q 317 715 410 715 q 167 644 223 715 q 111 378 111 574 q 167 106 111 178 q 317 33 223 33 z "},"ṑ":{"ha":633,"x_min":61,"x_max":572,"o":"m 317 -12 q 132 75 202 -12 q 61 375 61 163 q 131 674 61 588 q 317 761 200 761 q 502 674 431 761 q 572 375 572 588 q 503 75 572 163 q 317 -12 433 -12 m 317 33 q 466 105 410 33 q 522 372 522 176 q 466 644 522 572 q 317 715 410 715 q 167 644 223 715 q 111 378 111 574 q 167 106 111 178 q 317 33 223 33 z "},"ǫ":{"ha":633,"x_min":61,"x_max":572,"o":"m 353 -278 q 263 -248 297 -278 q 229 -161 229 -218 q 253 -73 229 -115 q 324 -3 276 -31 l 321 -12 q 132 75 203 -12 q 61 375 61 163 q 131 674 61 588 q 317 761 200 761 q 502 674 431 761 q 572 375 572 588 q 528 117 572 204 q 403 0 483 29 q 299 -72 329 -27 q 268 -157 268 -117 q 351 -242 268 -242 q 432 -219 394 -242 l 444 -251 q 401 -272 424 -265 q 353 -278 378 -278 m 317 33 q 466 105 410 33 q 522 372 522 176 q 466 644 522 572 q 317 715 410 715 q 167 644 223 715 q 111 378 111 574 q 167 106 111 178 q 317 33 223 33 z "},"ø":{"ha":633,"x_min":61,"x_max":572,"o":"m 317 -12 q 132 75 202 -12 q 61 375 61 163 q 131 674 61 588 q 317 761 200 761 q 502 674 431 761 q 572 375 572 588 q 503 75 572 163 q 317 -12 433 -12 m 317 33 q 466 105 410 33 q 522 372 522 176 q 466 644 522 572 q 317 715 410 715 q 167 644 223 715 q 111 378 111 574 q 167 106 111 178 q 317 33 223 33 m 99 -11 l 61 11 l 121 106 l 131 121 l 465 651 l 475 667 l 535 761 l 572 739 l 513 644 l 503 629 l 168 99 l 158 83 l 99 -11 z "},"ǿ":{"ha":633,"x_min":61,"x_max":572,"o":"m 317 -12 q 132 75 202 -12 q 61 375 61 163 q 131 674 61 588 q 317 761 200 761 q 502 674 431 761 q 572 375 572 588 q 503 75 572 163 q 317 -12 433 -12 m 317 33 q 466 105 410 33 q 522 372 522 176 q 466 644 522 572 q 317 715 410 715 q 167 644 223 715 q 111 378 111 574 q 167 106 111 178 q 317 33 223 33 m 99 -11 l 61 11 l 121 106 l 131 121 l 465 651 l 475 667 l 535 761 l 572 739 l 513 644 l 503 629 l 168 99 l 158 83 l 99 -11 m 297 878 l 400 1122 l 450 1122 l 336 878 l 297 878 z "},"õ":{"ha":633,"x_min":61,"x_max":572,"o":"m 317 -12 q 132 75 202 -12 q 61 375 61 163 q 131 674 61 588 q 317 761 200 761 q 502 674 431 761 q 572 375 572 588 q 503 75 572 163 q 317 -12 433 -12 m 317 33 q 466 105 410 33 q 522 372 522 176 q 466 644 522 572 q 317 715 410 715 q 167 644 223 715 q 111 378 111 574 q 167 106 111 178 q 317 33 223 33 m 399 958 q 312 985 351 958 q 235 1013 272 1013 q 143 963 183 1013 l 143 1008 q 235 1051 177 1051 q 322 1024 282 1051 q 399 997 361 997 q 490 1047 451 997 l 490 1001 q 399 958 456 958 z "},"ṍ":{"ha":633,"x_min":61,"x_max":572,"o":"m 317 -12 q 132 75 202 -12 q 61 375 61 163 q 131 674 61 588 q 317 761 200 761 q 502 674 431 761 q 572 375 572 588 q 503 75 572 163 q 317 -12 433 -12 m 317 33 q 466 105 410 33 q 522 372 522 176 q 466 644 522 572 q 317 715 410 715 q 167 644 223 715 q 111 378 111 574 q 167 106 111 178 q 317 33 223 33 z "},"ṏ":{"ha":633,"x_min":61,"x_max":572,"o":"m 317 -12 q 132 75 202 -12 q 61 375 61 163 q 131 674 61 588 q 317 761 200 761 q 502 674 431 761 q 572 375 572 588 q 503 75 572 163 q 317 -12 433 -12 m 317 33 q 466 105 410 33 q 522 372 522 176 q 466 644 522 572 q 317 715 410 715 q 167 644 223 715 q 111 378 111 574 q 167 106 111 178 q 317 33 223 33 z "},"ȭ":{"ha":633,"x_min":61,"x_max":572,"o":"m 317 -12 q 132 75 202 -12 q 61 375 61 163 q 131 674 61 588 q 317 761 200 761 q 502 674 431 761 q 572 375 572 588 q 503 75 572 163 q 317 -12 433 -12 m 317 33 q 466 105 410 33 q 522 372 522 176 q 466 644 522 572 q 317 715 410 715 q 167 644 223 715 q 111 378 111 574 q 167 106 111 178 q 317 33 223 33 z "},"œ":{"ha":1039,"x_min":61,"x_max":986,"o":"m 314 -12 q 131 75 201 -12 q 61 375 61 163 q 130 674 61 588 q 314 761 199 761 q 494 674 425 761 q 563 375 563 588 q 495 75 563 163 q 314 -12 428 -12 m 314 33 q 461 105 406 33 q 517 372 517 176 q 461 644 517 572 q 314 715 406 715 q 167 644 222 715 q 111 378 111 574 q 167 106 111 178 q 314 33 222 33 m 797 -12 q 591 74 662 -12 q 519 375 519 160 l 524 382 q 588 679 524 596 q 754 763 652 763 q 923 678 860 763 q 986 375 986 594 l 986 354 l 547 354 l 547 400 l 947 400 l 936 375 q 885 649 936 581 q 754 717 835 717 q 620 648 674 717 q 567 383 567 579 l 567 371 q 626 106 567 178 q 800 33 685 33 q 867 40 831 33 q 953 63 904 47 l 953 15 q 870 -6 908 0 q 797 -12 832 -12 z "},"p":{"ha":635,"x_min":100,"x_max":574,"o":"m 100 -306 l 100 750 l 142 750 l 146 675 l 151 675 q 221 735 176 710 q 325 761 265 761 q 499 683 425 761 q 574 389 574 606 q 490 83 574 178 q 254 -12 406 -12 q 201 -10 229 -12 q 147 -6 172 -8 l 147 -306 l 100 -306 m 256 33 q 454 113 385 33 q 524 383 524 193 q 465 651 524 586 q 324 715 407 715 q 223 688 272 715 q 147 604 174 660 l 147 43 q 199 36 168 39 q 256 33 229 33 z "},"þ":{"ha":635,"x_min":100,"x_max":574,"o":"m 100 -306 l 100 1122 l 147 1122 l 147 679 l 151 679 q 223 736 178 711 q 332 761 267 761 q 501 683 428 761 q 574 389 574 606 q 490 83 574 178 q 254 -12 406 -12 q 201 -10 229 -12 q 147 -6 172 -8 l 147 -306 l 100 -306 m 256 33 q 454 113 385 33 q 524 383 524 193 q 466 651 524 586 q 328 715 408 715 q 224 688 274 715 q 147 607 174 660 l 147 43 q 199 36 168 39 q 256 33 229 33 z "},"q":{"ha":635,"x_min":61,"x_max":535,"o":"m 488 -306 l 488 69 l 483 69 q 413 13 458 38 q 307 -12 368 -12 q 135 65 209 -12 q 61 360 61 143 q 145 666 61 571 q 376 761 228 761 q 461 754 416 761 q 535 736 506 747 l 535 -306 l 488 -306 m 310 33 q 411 61 362 33 q 488 142 460 89 l 488 701 q 435 711 467 707 q 376 715 404 715 q 180 635 249 715 q 111 365 111 556 q 169 98 111 163 q 310 33 228 33 z "},"r":{"ha":393,"x_min":100,"x_max":386,"o":"m 100 0 l 100 750 l 142 750 l 146 649 l 151 649 q 240 728 188 701 q 349 756 292 756 q 386 753 369 756 l 386 706 q 368 707 376 707 q 347 707 360 707 q 234 673 290 707 q 147 575 178 640 l 147 0 l 100 0 z "},"ŕ":{"ha":393,"x_min":100,"x_max":386,"o":"m 100 0 l 100 750 l 142 750 l 146 649 l 151 649 q 240 728 188 701 q 349 756 292 756 q 386 753 369 756 l 386 706 q 368 707 376 707 q 347 707 360 707 q 234 673 290 707 q 147 575 178 640 l 147 0 l 100 0 m 206 878 l 308 1122 l 358 1122 l 244 878 l 206 878 z "},"ř":{"ha":393,"x_min":76,"x_max":386,"o":"m 100 0 l 100 750 l 142 750 l 146 649 l 151 649 q 240 728 188 701 q 349 756 292 756 q 386 753 369 756 l 386 706 q 368 707 376 707 q 347 707 360 707 q 234 673 290 707 q 147 575 178 640 l 147 0 l 100 0 m 199 878 l 76 1122 l 121 1122 l 231 896 l 219 896 l 329 1122 l 374 1122 l 251 878 l 199 878 z "},"ŗ":{"ha":393,"x_min":81,"x_max":386,"o":"m 100 0 l 100 750 l 142 750 l 146 649 l 151 649 q 240 728 188 701 q 349 756 292 756 q 386 753 369 756 l 386 706 q 368 707 376 707 q 347 707 360 707 q 234 673 290 707 q 147 575 178 640 l 147 0 l 100 0 m 106 -311 q 125 -246 120 -274 q 129 -193 129 -218 l 132 -215 l 124 -215 q 93 -203 105 -215 q 81 -171 81 -190 q 121 -128 81 -128 q 154 -142 142 -128 q 167 -187 167 -157 q 159 -246 167 -212 q 136 -311 151 -279 l 106 -311 z "},"ȑ":{"ha":393,"x_min":51,"x_max":386,"o":"m 100 0 l 100 750 l 142 750 l 146 649 l 151 649 q 240 728 188 701 q 349 756 292 756 q 386 753 369 756 l 386 706 q 368 707 376 707 q 347 707 360 707 q 234 673 290 707 q 147 575 178 640 l 147 0 l 100 0 m 294 878 l 228 1122 l 274 1122 l 332 878 l 294 878 m 118 878 l 51 1122 l 97 1122 l 156 878 l 118 878 z "},"ṛ":{"ha":393,"x_min":81,"x_max":386,"o":"m 100 0 l 100 750 l 142 750 l 146 649 l 151 649 q 240 728 188 701 q 349 756 292 756 q 386 753 369 756 l 386 706 q 368 707 376 707 q 347 707 360 707 q 234 673 290 707 q 147 575 178 640 l 147 0 l 100 0 m 124 -215 q 93 -203 105 -215 q 81 -172 81 -192 q 93 -140 81 -153 q 124 -128 105 -128 q 155 -140 142 -128 q 167 -172 167 -153 q 155 -203 167 -192 q 124 -215 142 -215 z "},"ȓ":{"ha":393,"x_min":71,"x_max":386,"o":"m 100 0 l 100 750 l 142 750 l 146 649 l 151 649 q 240 728 188 701 q 349 756 292 756 q 386 753 369 756 l 386 706 q 368 707 376 707 q 347 707 360 707 q 234 673 290 707 q 147 575 178 640 l 147 0 l 100 0 m 71 897 q 115 1063 74 1011 q 224 1114 156 1114 q 334 1062 292 1114 q 379 897 376 1010 l 340 897 q 305 1033 335 993 q 224 1074 276 1074 q 142 1033 172 1074 q 110 897 113 993 l 71 897 z "},"ṟ":{"ha":393,"x_min":-29,"x_max":386,"o":"m 100 0 l 100 750 l 142 750 l 146 649 l 151 649 q 240 728 188 701 q 349 756 292 756 q 386 753 369 756 l 386 706 q 368 707 376 707 q 347 707 360 707 q 234 673 290 707 q 147 575 178 640 l 147 0 l 100 0 m -29 -192 l -29 -151 l 276 -151 l 276 -192 l -29 -192 z "},"s":{"ha":503,"x_min":53,"x_max":458,"o":"m 222 -12 q 65 14 142 -12 l 65 61 q 149 40 111 47 q 222 33 186 33 q 361 74 312 33 q 410 190 410 114 q 377 293 410 259 q 283 346 344 328 l 219 364 q 89 439 126 391 q 53 560 53 488 q 114 703 53 646 q 289 761 175 761 q 360 757 328 761 q 424 746 392 753 l 424 699 q 355 712 386 708 q 289 715 324 715 q 147 671 193 715 q 101 563 101 626 q 131 467 101 502 q 224 414 161 432 l 288 396 q 423 317 388 368 q 458 193 458 266 q 397 42 458 96 q 222 -12 335 -12 z "},"ś":{"ha":503,"x_min":53,"x_max":458,"o":"m 222 -12 q 65 14 142 -12 l 65 61 q 149 40 111 47 q 222 33 186 33 q 361 74 312 33 q 410 190 410 114 q 377 293 410 259 q 283 346 344 328 l 219 364 q 89 439 126 391 q 53 560 53 488 q 114 703 53 646 q 289 761 175 761 q 360 757 328 761 q 424 746 392 753 l 424 699 q 355 712 386 708 q 289 715 324 715 q 147 671 193 715 q 101 563 101 626 q 131 467 101 502 q 224 414 161 432 l 288 396 q 423 317 388 368 q 458 193 458 266 q 397 42 458 96 q 222 -12 335 -12 m 238 878 l 340 1122 l 390 1122 l 276 878 l 238 878 z "},"ṥ":{"ha":503,"x_min":53,"x_max":458,"o":"m 222 -12 q 65 14 142 -12 l 65 61 q 149 40 111 47 q 222 33 186 33 q 361 74 312 33 q 410 190 410 114 q 377 293 410 259 q 283 346 344 328 l 219 364 q 89 439 126 391 q 53 560 53 488 q 114 703 53 646 q 289 761 175 761 q 360 757 328 761 q 424 746 392 753 l 424 699 q 355 712 386 708 q 289 715 324 715 q 147 671 193 715 q 101 563 101 626 q 131 467 101 502 q 224 414 161 432 l 288 396 q 423 317 388 368 q 458 193 458 266 q 397 42 458 96 q 222 -12 335 -12 m 229 1094 q 198 1106 210 1094 q 186 1138 186 1118 q 198 1169 186 1157 q 229 1182 210 1182 q 260 1169 248 1182 q 272 1138 272 1157 q 260 1106 272 1118 q 229 1094 248 1094 m 238 878 l 340 1122 l 390 1122 l 276 878 l 238 878 z "},"š":{"ha":503,"x_min":53,"x_max":458,"o":"m 222 -12 q 65 14 142 -12 l 65 61 q 149 40 111 47 q 222 33 186 33 q 361 74 312 33 q 410 190 410 114 q 377 293 410 259 q 283 346 344 328 l 219 364 q 89 439 126 391 q 53 560 53 488 q 114 703 53 646 q 289 761 175 761 q 360 757 328 761 q 424 746 392 753 l 424 699 q 355 712 386 708 q 289 715 324 715 q 147 671 193 715 q 101 563 101 626 q 131 467 101 502 q 224 414 161 432 l 288 396 q 423 317 388 368 q 458 193 458 266 q 397 42 458 96 q 222 -12 335 -12 m 231 878 l 108 1122 l 153 1122 l 263 896 l 251 896 l 361 1122 l 406 1122 l 283 878 l 231 878 z "},"ṧ":{"ha":503,"x_min":53,"x_max":458,"o":"m 222 -12 q 65 14 142 -12 l 65 61 q 149 40 111 47 q 222 33 186 33 q 361 74 312 33 q 410 190 410 114 q 377 293 410 259 q 283 346 344 328 l 219 364 q 89 439 126 391 q 53 560 53 488 q 114 703 53 646 q 289 761 175 761 q 360 757 328 761 q 424 746 392 753 l 424 699 q 355 712 386 708 q 289 715 324 715 q 147 671 193 715 q 101 563 101 626 q 131 467 101 502 q 224 414 161 432 l 288 396 q 423 317 388 368 q 458 193 458 266 q 397 42 458 96 q 222 -12 335 -12 m 257 1121 q 226 1133 238 1121 q 214 1164 214 1144 q 226 1196 214 1183 q 257 1208 238 1208 q 288 1196 276 1208 q 300 1164 300 1183 q 288 1133 300 1144 q 257 1121 276 1121 m 231 878 l 108 1122 l 153 1122 l 263 896 l 251 896 l 361 1122 l 406 1122 l 283 878 l 231 878 z "},"ş":{"ha":503,"x_min":53,"x_max":458,"o":"m 222 -12 q 65 14 142 -12 l 65 61 q 149 40 111 47 q 222 33 186 33 q 361 74 312 33 q 410 190 410 114 q 377 293 410 259 q 283 346 344 328 l 219 364 q 89 439 126 391 q 53 560 53 488 q 114 703 53 646 q 289 761 175 761 q 360 757 328 761 q 424 746 392 753 l 424 699 q 355 712 386 708 q 289 715 324 715 q 147 671 193 715 q 101 563 101 626 q 131 467 101 502 q 224 414 161 432 l 288 396 q 423 317 388 368 q 458 193 458 266 q 397 42 458 96 q 222 -12 335 -12 m 254 -278 q 201 -272 229 -278 q 154 -254 174 -265 l 154 -215 q 208 -236 182 -231 q 258 -242 235 -242 q 332 -179 332 -242 q 257 -114 332 -114 l 239 -114 l 239 14 l 278 14 l 278 -99 l 257 -79 q 341 -106 313 -79 q 369 -179 369 -133 q 340 -250 369 -223 q 254 -278 310 -278 z "},"ŝ":{"ha":503,"x_min":53,"x_max":458,"o":"m 222 -12 q 65 14 142 -12 l 65 61 q 149 40 111 47 q 222 33 186 33 q 361 74 312 33 q 410 190 410 114 q 377 293 410 259 q 283 346 344 328 l 219 364 q 89 439 126 391 q 53 560 53 488 q 114 703 53 646 q 289 761 175 761 q 360 757 328 761 q 424 746 392 753 l 424 699 q 355 712 386 708 q 289 715 324 715 q 147 671 193 715 q 101 563 101 626 q 131 467 101 502 q 224 414 161 432 l 288 396 q 423 317 388 368 q 458 193 458 266 q 397 42 458 96 q 222 -12 335 -12 m 108 878 l 231 1122 l 283 1122 l 406 878 l 361 878 l 251 1104 l 263 1104 l 153 878 l 108 878 z "},"ș":{"ha":503,"x_min":53,"x_max":458,"o":"m 222 -12 q 65 14 142 -12 l 65 61 q 149 40 111 47 q 222 33 186 33 q 361 74 312 33 q 410 190 410 114 q 377 293 410 259 q 283 346 344 328 l 219 364 q 89 439 126 391 q 53 560 53 488 q 114 703 53 646 q 289 761 175 761 q 360 757 328 761 q 424 746 392 753 l 424 699 q 355 712 386 708 q 289 715 324 715 q 147 671 193 715 q 101 563 101 626 q 131 467 101 502 q 224 414 161 432 l 288 396 q 423 317 388 368 q 458 193 458 266 q 397 42 458 96 q 222 -12 335 -12 m 239 -311 q 258 -246 253 -274 q 263 -193 263 -218 l 265 -215 l 257 -215 q 226 -203 238 -215 q 214 -171 214 -190 q 254 -128 214 -128 q 288 -142 275 -128 q 300 -187 300 -157 q 292 -246 300 -212 q 269 -311 285 -279 l 239 -311 z "},"ṡ":{"ha":503,"x_min":53,"x_max":458,"o":"m 222 -12 q 65 14 142 -12 l 65 61 q 149 40 111 47 q 222 33 186 33 q 361 74 312 33 q 410 190 410 114 q 377 293 410 259 q 283 346 344 328 l 219 364 q 89 439 126 391 q 53 560 53 488 q 114 703 53 646 q 289 761 175 761 q 360 757 328 761 q 424 746 392 753 l 424 699 q 355 712 386 708 q 289 715 324 715 q 147 671 193 715 q 101 563 101 626 q 131 467 101 502 q 224 414 161 432 l 288 396 q 423 317 388 368 q 458 193 458 266 q 397 42 458 96 q 222 -12 335 -12 m 257 944 q 214 988 214 944 q 257 1032 214 1032 q 300 988 300 1032 q 257 944 300 944 z "},"ṣ":{"ha":503,"x_min":53,"x_max":458,"o":"m 222 -12 q 65 14 142 -12 l 65 61 q 149 40 111 47 q 222 33 186 33 q 361 74 312 33 q 410 190 410 114 q 377 293 410 259 q 283 346 344 328 l 219 364 q 89 439 126 391 q 53 560 53 488 q 114 703 53 646 q 289 761 175 761 q 360 757 328 761 q 424 746 392 753 l 424 699 q 355 712 386 708 q 289 715 324 715 q 147 671 193 715 q 101 563 101 626 q 131 467 101 502 q 224 414 161 432 l 288 396 q 423 317 388 368 q 458 193 458 266 q 397 42 458 96 q 222 -12 335 -12 m 257 -215 q 226 -203 238 -215 q 214 -172 214 -192 q 226 -140 214 -153 q 257 -128 238 -128 q 288 -140 276 -128 q 300 -172 300 -153 q 288 -203 300 -192 q 257 -215 276 -215 z "},"ṩ":{"ha":503,"x_min":53,"x_max":458,"o":"m 222 -12 q 65 14 142 -12 l 65 61 q 149 40 111 47 q 222 33 186 33 q 361 74 312 33 q 410 190 410 114 q 377 293 410 259 q 283 346 344 328 l 219 364 q 89 439 126 391 q 53 560 53 488 q 114 703 53 646 q 289 761 175 761 q 360 757 328 761 q 424 746 392 753 l 424 699 q 355 712 386 708 q 289 715 324 715 q 147 671 193 715 q 101 563 101 626 q 131 467 101 502 q 224 414 161 432 l 288 396 q 423 317 388 368 q 458 193 458 266 q 397 42 458 96 q 222 -12 335 -12 m 257 -215 q 226 -203 238 -215 q 214 -172 214 -192 q 226 -140 214 -153 q 257 -128 238 -128 q 288 -140 276 -128 q 300 -172 300 -153 q 288 -203 300 -192 q 257 -215 276 -215 m 257 944 q 214 988 214 944 q 257 1032 214 1032 q 300 988 300 1032 q 257 944 300 944 z "},"ß":{"ha":783,"x_min":6,"x_max":739,"o":"m 506 -12 q 422 -6 462 -12 q 346 13 382 0 l 346 60 q 429 39 392 45 q 503 33 467 33 q 641 74 592 33 q 690 190 690 114 q 658 293 690 259 q 564 346 625 328 l 500 364 q 370 439 406 390 q 333 560 333 488 q 394 702 333 645 q 569 760 456 760 q 602 758 583 760 q 640 753 622 757 l 621 736 q 628 785 625 760 q 631 839 631 811 q 568 1036 631 982 q 417 1090 506 1090 q 253 1028 315 1090 q 192 810 192 967 l 192 0 l 144 0 l 144 814 q 218 1059 144 983 q 415 1136 292 1136 q 601 1068 526 1136 q 675 840 675 1000 q 669 761 675 800 q 660 704 664 723 q 619 713 638 710 q 569 715 600 715 q 428 671 474 715 q 382 563 382 626 q 412 467 382 502 q 504 414 442 432 l 568 396 q 703 317 668 368 q 739 193 739 266 q 677 42 739 96 q 506 -12 616 -12 m 6 704 l 6 750 l 178 750 l 178 704 l 6 704 z "},"t":{"ha":411,"x_min":0,"x_max":408,"o":"m 325 -12 q 189 35 239 -12 q 139 193 139 82 l 139 750 l 144 1028 l 186 1028 l 186 201 q 222 70 186 107 q 328 33 257 33 q 367 36 347 33 q 408 44 388 39 l 408 -3 q 367 -10 390 -7 q 325 -12 344 -12 m 0 706 l 0 750 l 394 750 l 394 706 l 0 706 z "},"ŧ":{"ha":411,"x_min":0,"x_max":408,"o":"m 325 -12 q 189 35 239 -12 q 139 193 139 82 l 139 750 l 144 1028 l 186 1028 l 186 201 q 222 70 186 107 q 328 33 257 33 q 367 36 347 33 q 408 44 388 39 l 408 -3 q 367 -10 390 -7 q 325 -12 344 -12 m 0 706 l 0 750 l 394 750 l 394 706 l 0 706 m 43 438 l 43 479 l 367 479 l 367 438 l 43 438 z "},"ť":{"ha":411,"x_min":0,"x_max":408,"o":"m 325 -12 q 189 35 239 -12 q 139 193 139 82 l 139 750 l 144 1028 l 186 1028 l 186 201 q 222 70 186 107 q 328 33 257 33 q 367 36 347 33 q 408 44 388 39 l 408 -3 q 367 -10 390 -7 q 325 -12 344 -12 m 0 706 l 0 750 l 394 750 l 394 706 l 0 706 m 313 819 q 323 975 321 892 q 325 1122 325 1058 l 369 1122 q 364 974 369 1054 q 344 819 359 893 l 313 819 z "},"ţ":{"ha":411,"x_min":0,"x_max":408,"o":"m 325 -12 q 189 35 239 -12 q 139 193 139 82 l 139 750 l 144 1028 l 186 1028 l 186 201 q 222 70 186 107 q 328 33 257 33 q 367 36 347 33 q 408 44 388 39 l 408 -3 q 367 -10 390 -7 q 325 -12 344 -12 m 0 706 l 0 750 l 394 750 l 394 706 l 0 706 m 271 -278 q 218 -272 246 -278 q 171 -254 190 -265 l 171 -215 q 225 -236 199 -231 q 275 -242 251 -242 q 349 -179 349 -242 q 274 -114 349 -114 l 256 -114 l 256 14 l 294 14 l 294 -99 l 274 -79 q 358 -106 330 -79 q 386 -179 386 -133 q 356 -250 386 -223 q 271 -278 326 -278 z "},"ț":{"ha":411,"x_min":0,"x_max":408,"o":"m 325 -12 q 189 35 239 -12 q 139 193 139 82 l 139 750 l 144 1028 l 186 1028 l 186 201 q 222 70 186 107 q 328 33 257 33 q 367 36 347 33 q 408 44 388 39 l 408 -3 q 367 -10 390 -7 q 325 -12 344 -12 m 0 706 l 0 750 l 394 750 l 394 706 l 0 706 m 256 -311 q 275 -246 270 -274 q 279 -193 279 -218 l 282 -215 l 274 -215 q 243 -203 255 -215 q 231 -171 231 -190 q 271 -128 231 -128 q 304 -142 292 -128 q 317 -187 317 -157 q 309 -246 317 -212 q 286 -311 301 -279 l 256 -311 z "},"ẗ":{"ha":411,"x_min":0,"x_max":408,"o":"m 325 -12 q 189 35 239 -12 q 139 193 139 82 l 139 750 l 144 1028 l 186 1028 l 186 201 q 222 70 186 107 q 328 33 257 33 q 367 36 347 33 q 408 44 388 39 l 408 -3 q 367 -10 390 -7 q 325 -12 344 -12 m 0 706 l 0 750 l 394 750 l 394 706 l 0 706 m 274 1139 q 243 1151 255 1139 q 231 1182 231 1163 q 243 1214 231 1201 q 274 1226 255 1226 q 305 1214 292 1226 q 317 1182 317 1201 q 305 1151 317 1163 q 274 1139 292 1139 m 51 1139 q 20 1151 33 1139 q 8 1182 8 1163 q 20 1214 8 1201 q 51 1226 33 1226 q 82 1214 70 1226 q 94 1182 94 1201 q 82 1151 94 1163 q 51 1139 70 1139 z "},"ṭ":{"ha":411,"x_min":0,"x_max":408,"o":"m 325 -12 q 189 35 239 -12 q 139 193 139 82 l 139 750 l 144 1028 l 186 1028 l 186 201 q 222 70 186 107 q 328 33 257 33 q 367 36 347 33 q 408 44 388 39 l 408 -3 q 367 -10 390 -7 q 325 -12 344 -12 m 0 706 l 0 750 l 394 750 l 394 706 l 0 706 m 274 -215 q 243 -203 255 -215 q 231 -172 231 -192 q 243 -140 231 -153 q 274 -128 255 -128 q 305 -140 292 -128 q 317 -172 317 -153 q 305 -203 317 -192 q 274 -215 292 -215 z "},"ṯ":{"ha":411,"x_min":0,"x_max":426,"o":"m 325 -12 q 189 35 239 -12 q 139 193 139 82 l 139 750 l 144 1028 l 186 1028 l 186 201 q 222 70 186 107 q 328 33 257 33 q 367 36 347 33 q 408 44 388 39 l 408 -3 q 367 -10 390 -7 q 325 -12 344 -12 m 0 706 l 0 750 l 394 750 l 394 706 l 0 706 m 121 -192 l 121 -151 l 426 -151 l 426 -192 l 121 -192 z "},"u":{"ha":639,"x_min":93,"x_max":539,"o":"m 288 -12 q 149 35 206 -12 q 93 214 93 83 l 93 750 l 140 750 l 140 211 q 182 72 140 110 q 289 33 224 33 q 394 60 335 33 q 492 157 454 88 l 492 750 l 539 750 l 539 0 l 497 0 l 493 83 l 488 83 q 394 11 447 35 q 288 -12 342 -12 z "},"ú":{"ha":639,"x_min":93,"x_max":539,"o":"m 288 -12 q 149 35 206 -12 q 93 214 93 83 l 93 750 l 140 750 l 140 211 q 182 72 140 110 q 289 33 224 33 q 394 60 335 33 q 492 157 454 88 l 492 750 l 539 750 l 539 0 l 497 0 l 493 83 l 488 83 q 394 11 447 35 q 288 -12 342 -12 m 297 878 l 400 1122 l 450 1122 l 336 878 l 297 878 z "},"ŭ":{"ha":639,"x_min":93,"x_max":539,"o":"m 288 -12 q 149 35 206 -12 q 93 214 93 83 l 93 750 l 140 750 l 140 211 q 182 72 140 110 q 289 33 224 33 q 394 60 335 33 q 492 157 454 88 l 492 750 l 539 750 l 539 0 l 497 0 l 493 83 l 488 83 q 394 11 447 35 q 288 -12 342 -12 m 318 886 q 208 939 250 886 q 163 1103 165 992 l 201 1103 q 236 966 207 1007 q 318 925 266 925 q 400 966 370 925 q 432 1103 429 1007 l 471 1103 q 427 939 468 992 q 318 886 386 886 z "},"û":{"ha":639,"x_min":93,"x_max":539,"o":"m 288 -12 q 149 35 206 -12 q 93 214 93 83 l 93 750 l 140 750 l 140 211 q 182 72 140 110 q 289 33 224 33 q 394 60 335 33 q 492 157 454 88 l 492 750 l 539 750 l 539 0 l 497 0 l 493 83 l 488 83 q 394 11 447 35 q 288 -12 342 -12 m 168 878 l 290 1122 l 343 1122 l 465 878 l 421 878 l 311 1104 l 322 1104 l 213 878 l 168 878 z "},"ȕ":{"ha":639,"x_min":93,"x_max":539,"o":"m 288 -12 q 149 35 206 -12 q 93 214 93 83 l 93 750 l 140 750 l 140 211 q 182 72 140 110 q 289 33 224 33 q 394 60 335 33 q 492 157 454 88 l 492 750 l 539 750 l 539 0 l 497 0 l 493 83 l 488 83 q 394 11 447 35 q 288 -12 342 -12 m 386 878 l 319 1122 l 365 1122 l 424 878 l 386 878 m 210 878 l 143 1122 l 189 1122 l 247 878 l 210 878 z "},"ü":{"ha":639,"x_min":93,"x_max":539,"o":"m 288 -12 q 149 35 206 -12 q 93 214 93 83 l 93 750 l 140 750 l 140 211 q 182 72 140 110 q 289 33 224 33 q 394 60 335 33 q 492 157 454 88 l 492 750 l 539 750 l 539 0 l 497 0 l 493 83 l 488 83 q 394 11 447 35 q 288 -12 342 -12 m 428 944 q 397 956 409 944 q 385 988 385 968 q 397 1019 385 1007 q 428 1032 409 1032 q 459 1019 447 1032 q 471 988 471 1007 q 459 956 471 968 q 428 944 447 944 m 206 944 q 175 956 187 944 q 163 988 163 968 q 175 1019 163 1007 q 206 1032 187 1032 q 236 1019 224 1032 q 249 988 249 1007 q 236 956 249 968 q 206 944 224 944 z "},"ụ":{"ha":639,"x_min":93,"x_max":539,"o":"m 288 -12 q 149 35 206 -12 q 93 214 93 83 l 93 750 l 140 750 l 140 211 q 182 72 140 110 q 289 33 224 33 q 394 60 335 33 q 492 157 454 88 l 492 750 l 539 750 l 539 0 l 497 0 l 493 83 l 488 83 q 394 11 447 35 q 288 -12 342 -12 m 317 -215 q 286 -203 298 -215 q 274 -172 274 -192 q 286 -140 274 -153 q 317 -128 298 -128 q 348 -140 335 -128 q 360 -172 360 -153 q 348 -203 360 -192 q 317 -215 335 -215 z "},"ù":{"ha":639,"x_min":93,"x_max":539,"o":"m 288 -12 q 149 35 206 -12 q 93 214 93 83 l 93 750 l 140 750 l 140 211 q 182 72 140 110 q 289 33 224 33 q 394 60 335 33 q 492 157 454 88 l 492 750 l 539 750 l 539 0 l 497 0 l 493 83 l 488 83 q 394 11 447 35 q 288 -12 342 -12 m 297 878 l 183 1122 l 233 1122 l 336 878 l 297 878 z "},"ủ":{"ha":639,"x_min":93,"x_max":539,"o":"m 288 -12 q 149 35 206 -12 q 93 214 93 83 l 93 750 l 140 750 l 140 211 q 182 72 140 110 q 289 33 224 33 q 394 60 335 33 q 492 157 454 88 l 492 750 l 539 750 l 539 0 l 497 0 l 493 83 l 488 83 q 394 11 447 35 q 288 -12 342 -12 m 294 878 q 319 950 294 926 q 369 992 344 974 q 394 1039 394 1010 q 377 1078 394 1065 q 317 1092 360 1092 q 268 1088 294 1092 q 221 1075 242 1083 l 221 1114 q 265 1126 240 1121 q 315 1131 290 1131 q 436 1040 436 1131 q 411 976 436 997 q 362 936 387 956 q 338 878 338 917 l 294 878 z "},"ư":{"ha":653,"x_min":93,"x_max":683,"o":"m 288 -12 q 149 35 206 -12 q 93 214 93 83 l 93 750 l 140 750 l 140 211 q 182 72 140 110 q 289 33 224 33 q 394 60 335 33 q 492 157 454 88 l 492 750 l 514 750 q 602 777 566 750 q 638 864 638 803 q 633 916 638 893 q 621 963 628 939 l 667 963 q 679 916 675 939 q 683 863 683 894 q 638 745 683 785 q 525 704 592 704 l 539 725 l 539 0 l 497 0 l 493 83 l 488 83 q 394 11 447 35 q 288 -12 342 -12 z "},"ứ":{"ha":653,"x_min":93,"x_max":683,"o":"m 288 -12 q 149 35 206 -12 q 93 214 93 83 l 93 750 l 140 750 l 140 211 q 182 72 140 110 q 289 33 224 33 q 394 60 335 33 q 492 157 454 88 l 492 750 l 514 750 q 602 777 566 750 q 638 864 638 803 q 633 916 638 893 q 621 963 628 939 l 667 963 q 679 916 675 939 q 683 863 683 894 q 638 745 683 785 q 525 704 592 704 l 539 725 l 539 0 l 497 0 l 493 83 l 488 83 q 394 11 447 35 q 288 -12 342 -12 m 297 878 l 400 1122 l 450 1122 l 336 878 l 297 878 z "},"ự":{"ha":653,"x_min":93,"x_max":683,"o":"m 288 -12 q 149 35 206 -12 q 93 214 93 83 l 93 750 l 140 750 l 140 211 q 182 72 140 110 q 289 33 224 33 q 394 60 335 33 q 492 157 454 88 l 492 750 l 514 750 q 602 777 566 750 q 638 864 638 803 q 633 916 638 893 q 621 963 628 939 l 667 963 q 679 916 675 939 q 683 863 683 894 q 638 745 683 785 q 525 704 592 704 l 539 725 l 539 0 l 497 0 l 493 83 l 488 83 q 394 11 447 35 q 288 -12 342 -12 m 317 -215 q 286 -203 298 -215 q 274 -172 274 -192 q 286 -140 274 -153 q 317 -128 298 -128 q 348 -140 335 -128 q 360 -172 360 -153 q 348 -203 360 -192 q 317 -215 335 -215 z "},"ừ":{"ha":653,"x_min":93,"x_max":683,"o":"m 288 -12 q 149 35 206 -12 q 93 214 93 83 l 93 750 l 140 750 l 140 211 q 182 72 140 110 q 289 33 224 33 q 394 60 335 33 q 492 157 454 88 l 492 750 l 514 750 q 602 777 566 750 q 638 864 638 803 q 633 916 638 893 q 621 963 628 939 l 667 963 q 679 916 675 939 q 683 863 683 894 q 638 745 683 785 q 525 704 592 704 l 539 725 l 539 0 l 497 0 l 493 83 l 488 83 q 394 11 447 35 q 288 -12 342 -12 m 297 878 l 183 1122 l 233 1122 l 336 878 l 297 878 z "},"ử":{"ha":653,"x_min":93,"x_max":683,"o":"m 288 -12 q 149 35 206 -12 q 93 214 93 83 l 93 750 l 140 750 l 140 211 q 182 72 140 110 q 289 33 224 33 q 394 60 335 33 q 492 157 454 88 l 492 750 l 514 750 q 602 777 566 750 q 638 864 638 803 q 633 916 638 893 q 621 963 628 939 l 667 963 q 679 916 675 939 q 683 863 683 894 q 638 745 683 785 q 525 704 592 704 l 539 725 l 539 0 l 497 0 l 493 83 l 488 83 q 394 11 447 35 q 288 -12 342 -12 m 294 878 q 319 950 294 926 q 369 992 344 974 q 394 1039 394 1010 q 377 1078 394 1065 q 317 1092 360 1092 q 268 1088 294 1092 q 221 1075 242 1083 l 221 1114 q 265 1126 240 1121 q 315 1131 290 1131 q 436 1040 436 1131 q 411 976 436 997 q 362 936 387 956 q 338 878 338 917 l 294 878 z "},"ữ":{"ha":653,"x_min":93,"x_max":683,"o":"m 288 -12 q 149 35 206 -12 q 93 214 93 83 l 93 750 l 140 750 l 140 211 q 182 72 140 110 q 289 33 224 33 q 394 60 335 33 q 492 157 454 88 l 492 750 l 514 750 q 602 777 566 750 q 638 864 638 803 q 633 916 638 893 q 621 963 628 939 l 667 963 q 679 916 675 939 q 683 863 683 894 q 638 745 683 785 q 525 704 592 704 l 539 725 l 539 0 l 497 0 l 493 83 l 488 83 q 394 11 447 35 q 288 -12 342 -12 m 399 958 q 312 985 351 958 q 235 1013 272 1013 q 143 963 183 1013 l 143 1008 q 235 1051 177 1051 q 322 1024 282 1051 q 399 997 361 997 q 490 1047 451 997 l 490 1001 q 399 958 456 958 z "},"ű":{"ha":639,"x_min":93,"x_max":539,"o":"m 288 -12 q 149 35 206 -12 q 93 214 93 83 l 93 750 l 140 750 l 140 211 q 182 72 140 110 q 289 33 224 33 q 394 60 335 33 q 492 157 454 88 l 492 750 l 539 750 l 539 0 l 497 0 l 493 83 l 488 83 q 394 11 447 35 q 288 -12 342 -12 m 386 878 l 446 1122 l 489 1122 l 422 878 l 386 878 m 211 878 l 271 1122 l 314 1122 l 247 878 l 211 878 z "}}}
